%TF.GenerationSoftware,KiCad,Pcbnew,(5.1.9)-1*%
%TF.CreationDate,2021-02-22T18:19:41+01:00*%
%TF.ProjectId,bluePillG,626c7565-5069-46c6-9c47-2e6b69636164,rev?*%
%TF.SameCoordinates,Original*%
%TF.FileFunction,Copper,L1,Top*%
%TF.FilePolarity,Positive*%
%FSLAX46Y46*%
G04 Gerber Fmt 4.6, Leading zero omitted, Abs format (unit mm)*
G04 Created by KiCad (PCBNEW (5.1.9)-1) date 2021-02-22 18:19:41*
%MOMM*%
%LPD*%
G01*
G04 APERTURE LIST*
%TA.AperFunction,ComponentPad*%
%ADD10C,1.500000*%
%TD*%
%TA.AperFunction,SMDPad,CuDef*%
%ADD11R,1.475000X0.300000*%
%TD*%
%TA.AperFunction,SMDPad,CuDef*%
%ADD12R,0.300000X1.475000*%
%TD*%
%TA.AperFunction,SMDPad,CuDef*%
%ADD13R,1.900000X2.600000*%
%TD*%
%TA.AperFunction,ComponentPad*%
%ADD14C,1.000000*%
%TD*%
%TA.AperFunction,ComponentPad*%
%ADD15O,1.700000X1.700000*%
%TD*%
%TA.AperFunction,ComponentPad*%
%ADD16R,1.700000X1.700000*%
%TD*%
%TA.AperFunction,ViaPad*%
%ADD17C,0.800000*%
%TD*%
%TA.AperFunction,Conductor*%
%ADD18C,0.250000*%
%TD*%
%TA.AperFunction,Conductor*%
%ADD19C,0.254000*%
%TD*%
%TA.AperFunction,Conductor*%
%ADD20C,0.100000*%
%TD*%
G04 APERTURE END LIST*
D10*
%TO.P,S1,4*%
%TO.N,/RESET*%
X60234000Y-60146000D03*
%TO.P,S1,3*%
%TO.N,Earth*%
X60234000Y-53646000D03*
%TO.P,S1,2*%
%TO.N,/RESET*%
X64734000Y-60146000D03*
%TO.P,S1,1*%
%TO.N,Earth*%
X64734000Y-53646000D03*
%TD*%
D11*
%TO.P,IC1,48*%
%TO.N,+3V3*%
X74088000Y-67100000D03*
%TO.P,IC1,47*%
%TO.N,Earth*%
X74088000Y-67600000D03*
%TO.P,IC1,46*%
%TO.N,/PB9*%
X74088000Y-68100000D03*
%TO.P,IC1,45*%
%TO.N,/BOOT0*%
X74088000Y-68600000D03*
%TO.P,IC1,44*%
%TO.N,/PB7*%
X74088000Y-69100000D03*
%TO.P,IC1,43*%
%TO.N,/PB6*%
X74088000Y-69600000D03*
%TO.P,IC1,42*%
%TO.N,/PB5*%
X74088000Y-70100000D03*
%TO.P,IC1,41*%
%TO.N,/PB4*%
X74088000Y-70600000D03*
%TO.P,IC1,40*%
%TO.N,/PB3*%
X74088000Y-71100000D03*
%TO.P,IC1,39*%
%TO.N,/PA15*%
X74088000Y-71600000D03*
%TO.P,IC1,38*%
%TO.N,/SWCLK*%
X74088000Y-72100000D03*
%TO.P,IC1,37*%
%TO.N,/SWDIO*%
X74088000Y-72600000D03*
D12*
%TO.P,IC1,36*%
%TO.N,+3V3*%
X72600000Y-74088000D03*
%TO.P,IC1,35*%
%TO.N,Earth*%
X72100000Y-74088000D03*
%TO.P,IC1,34*%
%TO.N,/PA12*%
X71600000Y-74088000D03*
%TO.P,IC1,33*%
%TO.N,/PA11*%
X71100000Y-74088000D03*
%TO.P,IC1,32*%
%TO.N,/PA10*%
X70600000Y-74088000D03*
%TO.P,IC1,31*%
%TO.N,/PA9*%
X70100000Y-74088000D03*
%TO.P,IC1,30*%
%TO.N,/PA8*%
X69600000Y-74088000D03*
%TO.P,IC1,29*%
%TO.N,/PB15*%
X69100000Y-74088000D03*
%TO.P,IC1,28*%
%TO.N,/PB14*%
X68600000Y-74088000D03*
%TO.P,IC1,27*%
%TO.N,/PB13*%
X68100000Y-74088000D03*
%TO.P,IC1,26*%
%TO.N,/PB12*%
X67600000Y-74088000D03*
%TO.P,IC1,25*%
%TO.N,/PB11*%
X67100000Y-74088000D03*
D11*
%TO.P,IC1,24*%
%TO.N,+3V3*%
X65612000Y-72600000D03*
%TO.P,IC1,23*%
%TO.N,Earth*%
X65612000Y-72100000D03*
%TO.P,IC1,22*%
%TO.N,/PB10*%
X65612000Y-71600000D03*
%TO.P,IC1,21*%
%TO.N,+3.3VA*%
X65612000Y-71100000D03*
%TO.P,IC1,20*%
X65612000Y-70600000D03*
%TO.P,IC1,19*%
%TO.N,Earth*%
X65612000Y-70100000D03*
%TO.P,IC1,18*%
%TO.N,/PB2*%
X65612000Y-69600000D03*
%TO.P,IC1,17*%
%TO.N,/PB1*%
X65612000Y-69100000D03*
%TO.P,IC1,16*%
%TO.N,/PB0*%
X65612000Y-68600000D03*
%TO.P,IC1,15*%
%TO.N,/PA7*%
X65612000Y-68100000D03*
%TO.P,IC1,14*%
%TO.N,/PA6*%
X65612000Y-67600000D03*
%TO.P,IC1,13*%
%TO.N,/PA5*%
X65612000Y-67100000D03*
D12*
%TO.P,IC1,12*%
%TO.N,/PA4*%
X67100000Y-65612000D03*
%TO.P,IC1,11*%
%TO.N,/PA3*%
X67600000Y-65612000D03*
%TO.P,IC1,10*%
%TO.N,/PA2*%
X68100000Y-65612000D03*
%TO.P,IC1,9*%
%TO.N,/PA1*%
X68600000Y-65612000D03*
%TO.P,IC1,8*%
%TO.N,/PA0*%
X69100000Y-65612000D03*
%TO.P,IC1,7*%
%TO.N,/RESET*%
X69600000Y-65612000D03*
%TO.P,IC1,6*%
%TO.N,Net-(C9-Pad1)*%
X70100000Y-65612000D03*
%TO.P,IC1,5*%
%TO.N,Net-(C7-Pad1)*%
X70600000Y-65612000D03*
%TO.P,IC1,4*%
%TO.N,Net-(C5-Pad1)*%
X71100000Y-65612000D03*
%TO.P,IC1,3*%
%TO.N,Net-(C4-Pad1)*%
X71600000Y-65612000D03*
%TO.P,IC1,2*%
%TO.N,/PC13*%
X72100000Y-65612000D03*
%TO.P,IC1,1*%
%TO.N,+3V3*%
X72600000Y-65612000D03*
%TD*%
D13*
%TO.P,Y2,2*%
%TO.N,Net-(C9-Pad1)*%
X68208000Y-60960000D03*
%TO.P,Y2,1*%
%TO.N,Net-(C7-Pad1)*%
X72508000Y-60960000D03*
%TD*%
D14*
%TO.P,Y1,2*%
%TO.N,Net-(C5-Pad1)*%
X71120000Y-63754000D03*
%TO.P,Y1,1*%
%TO.N,Net-(C4-Pad1)*%
X73660000Y-63754000D03*
%TD*%
%TO.P,R7,2*%
%TO.N,Net-(C9-Pad1)*%
%TA.AperFunction,SMDPad,CuDef*%
G36*
G01*
X69933000Y-57891000D02*
X69933000Y-58441000D01*
G75*
G02*
X69733000Y-58641000I-200000J0D01*
G01*
X69333000Y-58641000D01*
G75*
G02*
X69133000Y-58441000I0J200000D01*
G01*
X69133000Y-57891000D01*
G75*
G02*
X69333000Y-57691000I200000J0D01*
G01*
X69733000Y-57691000D01*
G75*
G02*
X69933000Y-57891000I0J-200000D01*
G01*
G37*
%TD.AperFunction*%
%TO.P,R7,1*%
%TO.N,Net-(C7-Pad1)*%
%TA.AperFunction,SMDPad,CuDef*%
G36*
G01*
X71583000Y-57891000D02*
X71583000Y-58441000D01*
G75*
G02*
X71383000Y-58641000I-200000J0D01*
G01*
X70983000Y-58641000D01*
G75*
G02*
X70783000Y-58441000I0J200000D01*
G01*
X70783000Y-57891000D01*
G75*
G02*
X70983000Y-57691000I200000J0D01*
G01*
X71383000Y-57691000D01*
G75*
G02*
X71583000Y-57891000I0J-200000D01*
G01*
G37*
%TD.AperFunction*%
%TD*%
%TO.P,R5,2*%
%TO.N,/PC13*%
%TA.AperFunction,SMDPad,CuDef*%
G36*
G01*
X77831000Y-89683000D02*
X77831000Y-89133000D01*
G75*
G02*
X78031000Y-88933000I200000J0D01*
G01*
X78431000Y-88933000D01*
G75*
G02*
X78631000Y-89133000I0J-200000D01*
G01*
X78631000Y-89683000D01*
G75*
G02*
X78431000Y-89883000I-200000J0D01*
G01*
X78031000Y-89883000D01*
G75*
G02*
X77831000Y-89683000I0J200000D01*
G01*
G37*
%TD.AperFunction*%
%TO.P,R5,1*%
%TO.N,Net-(D3-Pad1)*%
%TA.AperFunction,SMDPad,CuDef*%
G36*
G01*
X76181000Y-89683000D02*
X76181000Y-89133000D01*
G75*
G02*
X76381000Y-88933000I200000J0D01*
G01*
X76781000Y-88933000D01*
G75*
G02*
X76981000Y-89133000I0J-200000D01*
G01*
X76981000Y-89683000D01*
G75*
G02*
X76781000Y-89883000I-200000J0D01*
G01*
X76381000Y-89883000D01*
G75*
G02*
X76181000Y-89683000I0J200000D01*
G01*
G37*
%TD.AperFunction*%
%TD*%
%TO.P,R4,2*%
%TO.N,Earth*%
%TA.AperFunction,SMDPad,CuDef*%
G36*
G01*
X77768000Y-92731000D02*
X77768000Y-92181000D01*
G75*
G02*
X77968000Y-91981000I200000J0D01*
G01*
X78368000Y-91981000D01*
G75*
G02*
X78568000Y-92181000I0J-200000D01*
G01*
X78568000Y-92731000D01*
G75*
G02*
X78368000Y-92931000I-200000J0D01*
G01*
X77968000Y-92931000D01*
G75*
G02*
X77768000Y-92731000I0J200000D01*
G01*
G37*
%TD.AperFunction*%
%TO.P,R4,1*%
%TO.N,Net-(D2-Pad1)*%
%TA.AperFunction,SMDPad,CuDef*%
G36*
G01*
X76118000Y-92731000D02*
X76118000Y-92181000D01*
G75*
G02*
X76318000Y-91981000I200000J0D01*
G01*
X76718000Y-91981000D01*
G75*
G02*
X76918000Y-92181000I0J-200000D01*
G01*
X76918000Y-92731000D01*
G75*
G02*
X76718000Y-92931000I-200000J0D01*
G01*
X76318000Y-92931000D01*
G75*
G02*
X76118000Y-92731000I0J200000D01*
G01*
G37*
%TD.AperFunction*%
%TD*%
%TO.P,R3,2*%
%TO.N,Earth*%
%TA.AperFunction,SMDPad,CuDef*%
G36*
G01*
X77768000Y-91207000D02*
X77768000Y-90657000D01*
G75*
G02*
X77968000Y-90457000I200000J0D01*
G01*
X78368000Y-90457000D01*
G75*
G02*
X78568000Y-90657000I0J-200000D01*
G01*
X78568000Y-91207000D01*
G75*
G02*
X78368000Y-91407000I-200000J0D01*
G01*
X77968000Y-91407000D01*
G75*
G02*
X77768000Y-91207000I0J200000D01*
G01*
G37*
%TD.AperFunction*%
%TO.P,R3,1*%
%TO.N,Net-(D1-Pad1)*%
%TA.AperFunction,SMDPad,CuDef*%
G36*
G01*
X76118000Y-91207000D02*
X76118000Y-90657000D01*
G75*
G02*
X76318000Y-90457000I200000J0D01*
G01*
X76718000Y-90457000D01*
G75*
G02*
X76918000Y-90657000I0J-200000D01*
G01*
X76918000Y-91207000D01*
G75*
G02*
X76718000Y-91407000I-200000J0D01*
G01*
X76318000Y-91407000D01*
G75*
G02*
X76118000Y-91207000I0J200000D01*
G01*
G37*
%TD.AperFunction*%
%TD*%
%TO.P,R2,2*%
%TO.N,/RESET*%
%TA.AperFunction,SMDPad,CuDef*%
G36*
G01*
X62909000Y-62505000D02*
X62909000Y-61955000D01*
G75*
G02*
X63109000Y-61755000I200000J0D01*
G01*
X63509000Y-61755000D01*
G75*
G02*
X63709000Y-61955000I0J-200000D01*
G01*
X63709000Y-62505000D01*
G75*
G02*
X63509000Y-62705000I-200000J0D01*
G01*
X63109000Y-62705000D01*
G75*
G02*
X62909000Y-62505000I0J200000D01*
G01*
G37*
%TD.AperFunction*%
%TO.P,R2,1*%
%TO.N,+3V3*%
%TA.AperFunction,SMDPad,CuDef*%
G36*
G01*
X61259000Y-62505000D02*
X61259000Y-61955000D01*
G75*
G02*
X61459000Y-61755000I200000J0D01*
G01*
X61859000Y-61755000D01*
G75*
G02*
X62059000Y-61955000I0J-200000D01*
G01*
X62059000Y-62505000D01*
G75*
G02*
X61859000Y-62705000I-200000J0D01*
G01*
X61459000Y-62705000D01*
G75*
G02*
X61259000Y-62505000I0J200000D01*
G01*
G37*
%TD.AperFunction*%
%TD*%
%TO.P,R1,2*%
%TO.N,Net-(J1-Pad3)*%
%TA.AperFunction,SMDPad,CuDef*%
G36*
G01*
X82021000Y-77069000D02*
X82571000Y-77069000D01*
G75*
G02*
X82771000Y-77269000I0J-200000D01*
G01*
X82771000Y-77669000D01*
G75*
G02*
X82571000Y-77869000I-200000J0D01*
G01*
X82021000Y-77869000D01*
G75*
G02*
X81821000Y-77669000I0J200000D01*
G01*
X81821000Y-77269000D01*
G75*
G02*
X82021000Y-77069000I200000J0D01*
G01*
G37*
%TD.AperFunction*%
%TO.P,R1,1*%
%TO.N,/BOOT1*%
%TA.AperFunction,SMDPad,CuDef*%
G36*
G01*
X82021000Y-75419000D02*
X82571000Y-75419000D01*
G75*
G02*
X82771000Y-75619000I0J-200000D01*
G01*
X82771000Y-76019000D01*
G75*
G02*
X82571000Y-76219000I-200000J0D01*
G01*
X82021000Y-76219000D01*
G75*
G02*
X81821000Y-76019000I0J200000D01*
G01*
X81821000Y-75619000D01*
G75*
G02*
X82021000Y-75419000I200000J0D01*
G01*
G37*
%TD.AperFunction*%
%TD*%
D15*
%TO.P,J4,20*%
%TO.N,/PB11*%
X86360000Y-93980000D03*
%TO.P,J4,19*%
%TO.N,/PB12*%
X86360000Y-91440000D03*
%TO.P,J4,18*%
%TO.N,/PB13*%
X86360000Y-88900000D03*
%TO.P,J4,17*%
%TO.N,/PB14*%
X86360000Y-86360000D03*
%TO.P,J4,16*%
%TO.N,/PB15*%
X86360000Y-83820000D03*
%TO.P,J4,15*%
%TO.N,/PA8*%
X86360000Y-81280000D03*
%TO.P,J4,14*%
%TO.N,/PA9*%
X86360000Y-78740000D03*
%TO.P,J4,13*%
%TO.N,/PA10*%
X86360000Y-76200000D03*
%TO.P,J4,12*%
%TO.N,/PA11*%
X86360000Y-73660000D03*
%TO.P,J4,11*%
%TO.N,/PA12*%
X86360000Y-71120000D03*
%TO.P,J4,10*%
%TO.N,/PA15*%
X86360000Y-68580000D03*
%TO.P,J4,9*%
%TO.N,/PB3*%
X86360000Y-66040000D03*
%TO.P,J4,8*%
%TO.N,/PB4*%
X86360000Y-63500000D03*
%TO.P,J4,7*%
%TO.N,/PB5*%
X86360000Y-60960000D03*
%TO.P,J4,6*%
%TO.N,/PB6*%
X86360000Y-58420000D03*
%TO.P,J4,5*%
%TO.N,/PB7*%
X86360000Y-55880000D03*
%TO.P,J4,4*%
%TO.N,/BOOT0*%
X86360000Y-53340000D03*
%TO.P,J4,3*%
%TO.N,/PB9*%
X86360000Y-50800000D03*
%TO.P,J4,2*%
%TO.N,Earth*%
X86360000Y-48260000D03*
D16*
%TO.P,J4,1*%
%TO.N,+3V3*%
X86360000Y-45720000D03*
%TD*%
D15*
%TO.P,J3,4*%
%TO.N,Earth*%
X74676000Y-50546000D03*
%TO.P,J3,3*%
%TO.N,/SWCLK*%
X72136000Y-50546000D03*
%TO.P,J3,2*%
%TO.N,/SWDIO*%
X69596000Y-50546000D03*
D16*
%TO.P,J3,1*%
%TO.N,+3V3*%
X67056000Y-50546000D03*
%TD*%
D15*
%TO.P,J2,20*%
%TO.N,Earth*%
X53340000Y-93980000D03*
%TO.P,J2,19*%
X53340000Y-91440000D03*
%TO.P,J2,18*%
%TO.N,+5V*%
X53340000Y-88900000D03*
%TO.P,J2,17*%
X53340000Y-86360000D03*
%TO.P,J2,16*%
%TO.N,/PB10*%
X53340000Y-83820000D03*
%TO.P,J2,15*%
%TO.N,/PB2*%
X53340000Y-81280000D03*
%TO.P,J2,14*%
%TO.N,/PB1*%
X53340000Y-78740000D03*
%TO.P,J2,13*%
%TO.N,/PB0*%
X53340000Y-76200000D03*
%TO.P,J2,12*%
%TO.N,/PA7*%
X53340000Y-73660000D03*
%TO.P,J2,11*%
%TO.N,/PA6*%
X53340000Y-71120000D03*
%TO.P,J2,10*%
%TO.N,/PA5*%
X53340000Y-68580000D03*
%TO.P,J2,9*%
%TO.N,/PA4*%
X53340000Y-66040000D03*
%TO.P,J2,8*%
%TO.N,/PA3*%
X53340000Y-63500000D03*
%TO.P,J2,7*%
%TO.N,/PA2*%
X53340000Y-60960000D03*
%TO.P,J2,6*%
%TO.N,/PA1*%
X53340000Y-58420000D03*
%TO.P,J2,5*%
%TO.N,/PA0*%
X53340000Y-55880000D03*
%TO.P,J2,4*%
%TO.N,/RESET*%
X53340000Y-53340000D03*
%TO.P,J2,3*%
%TO.N,/PC13*%
X53340000Y-50800000D03*
%TO.P,J2,2*%
%TO.N,+3V3*%
X53340000Y-48260000D03*
D16*
%TO.P,J2,1*%
X53340000Y-45720000D03*
%TD*%
D15*
%TO.P,J1,6*%
%TO.N,Earth*%
X79756000Y-79565500D03*
%TO.P,J1,5*%
X77216000Y-79565500D03*
%TO.P,J1,4*%
%TO.N,Net-(J1-Pad4)*%
X79756000Y-77025500D03*
%TO.P,J1,3*%
%TO.N,Net-(J1-Pad3)*%
X77216000Y-77025500D03*
%TO.P,J1,2*%
%TO.N,+3V3*%
X79756000Y-74485500D03*
D16*
%TO.P,J1,1*%
X77216000Y-74485500D03*
%TD*%
%TO.P,FB1,2*%
%TO.N,+3V3*%
%TA.AperFunction,SMDPad,CuDef*%
G36*
G01*
X61980500Y-70669998D02*
X61980500Y-71570002D01*
G75*
G02*
X61730502Y-71820000I-249998J0D01*
G01*
X61205498Y-71820000D01*
G75*
G02*
X60955500Y-71570002I0J249998D01*
G01*
X60955500Y-70669998D01*
G75*
G02*
X61205498Y-70420000I249998J0D01*
G01*
X61730502Y-70420000D01*
G75*
G02*
X61980500Y-70669998I0J-249998D01*
G01*
G37*
%TD.AperFunction*%
%TO.P,FB1,1*%
%TO.N,+3.3VA*%
%TA.AperFunction,SMDPad,CuDef*%
G36*
G01*
X63805500Y-70669998D02*
X63805500Y-71570002D01*
G75*
G02*
X63555502Y-71820000I-249998J0D01*
G01*
X63030498Y-71820000D01*
G75*
G02*
X62780500Y-71570002I0J249998D01*
G01*
X62780500Y-70669998D01*
G75*
G02*
X63030498Y-70420000I249998J0D01*
G01*
X63555502Y-70420000D01*
G75*
G02*
X63805500Y-70669998I0J-249998D01*
G01*
G37*
%TD.AperFunction*%
%TD*%
%TO.P,D3,2*%
%TO.N,+3V3*%
%TA.AperFunction,SMDPad,CuDef*%
G36*
G01*
X73970500Y-89151750D02*
X73970500Y-89664250D01*
G75*
G02*
X73751750Y-89883000I-218750J0D01*
G01*
X73314250Y-89883000D01*
G75*
G02*
X73095500Y-89664250I0J218750D01*
G01*
X73095500Y-89151750D01*
G75*
G02*
X73314250Y-88933000I218750J0D01*
G01*
X73751750Y-88933000D01*
G75*
G02*
X73970500Y-89151750I0J-218750D01*
G01*
G37*
%TD.AperFunction*%
%TO.P,D3,1*%
%TO.N,Net-(D3-Pad1)*%
%TA.AperFunction,SMDPad,CuDef*%
G36*
G01*
X75545500Y-89151750D02*
X75545500Y-89664250D01*
G75*
G02*
X75326750Y-89883000I-218750J0D01*
G01*
X74889250Y-89883000D01*
G75*
G02*
X74670500Y-89664250I0J218750D01*
G01*
X74670500Y-89151750D01*
G75*
G02*
X74889250Y-88933000I218750J0D01*
G01*
X75326750Y-88933000D01*
G75*
G02*
X75545500Y-89151750I0J-218750D01*
G01*
G37*
%TD.AperFunction*%
%TD*%
%TO.P,D2,2*%
%TO.N,+5V*%
%TA.AperFunction,SMDPad,CuDef*%
G36*
G01*
X73945000Y-92199750D02*
X73945000Y-92712250D01*
G75*
G02*
X73726250Y-92931000I-218750J0D01*
G01*
X73288750Y-92931000D01*
G75*
G02*
X73070000Y-92712250I0J218750D01*
G01*
X73070000Y-92199750D01*
G75*
G02*
X73288750Y-91981000I218750J0D01*
G01*
X73726250Y-91981000D01*
G75*
G02*
X73945000Y-92199750I0J-218750D01*
G01*
G37*
%TD.AperFunction*%
%TO.P,D2,1*%
%TO.N,Net-(D2-Pad1)*%
%TA.AperFunction,SMDPad,CuDef*%
G36*
G01*
X75520000Y-92199750D02*
X75520000Y-92712250D01*
G75*
G02*
X75301250Y-92931000I-218750J0D01*
G01*
X74863750Y-92931000D01*
G75*
G02*
X74645000Y-92712250I0J218750D01*
G01*
X74645000Y-92199750D01*
G75*
G02*
X74863750Y-91981000I218750J0D01*
G01*
X75301250Y-91981000D01*
G75*
G02*
X75520000Y-92199750I0J-218750D01*
G01*
G37*
%TD.AperFunction*%
%TD*%
%TO.P,D1,2*%
%TO.N,+3V3*%
%TA.AperFunction,SMDPad,CuDef*%
G36*
G01*
X73945000Y-90675750D02*
X73945000Y-91188250D01*
G75*
G02*
X73726250Y-91407000I-218750J0D01*
G01*
X73288750Y-91407000D01*
G75*
G02*
X73070000Y-91188250I0J218750D01*
G01*
X73070000Y-90675750D01*
G75*
G02*
X73288750Y-90457000I218750J0D01*
G01*
X73726250Y-90457000D01*
G75*
G02*
X73945000Y-90675750I0J-218750D01*
G01*
G37*
%TD.AperFunction*%
%TO.P,D1,1*%
%TO.N,Net-(D1-Pad1)*%
%TA.AperFunction,SMDPad,CuDef*%
G36*
G01*
X75520000Y-90675750D02*
X75520000Y-91188250D01*
G75*
G02*
X75301250Y-91407000I-218750J0D01*
G01*
X74863750Y-91407000D01*
G75*
G02*
X74645000Y-91188250I0J218750D01*
G01*
X74645000Y-90675750D01*
G75*
G02*
X74863750Y-90457000I218750J0D01*
G01*
X75301250Y-90457000D01*
G75*
G02*
X75520000Y-90675750I0J-218750D01*
G01*
G37*
%TD.AperFunction*%
%TD*%
%TO.P,C14,2*%
%TO.N,Earth*%
%TA.AperFunction,SMDPad,CuDef*%
G36*
G01*
X63175000Y-50042000D02*
X63175000Y-50542000D01*
G75*
G02*
X62950000Y-50767000I-225000J0D01*
G01*
X62500000Y-50767000D01*
G75*
G02*
X62275000Y-50542000I0J225000D01*
G01*
X62275000Y-50042000D01*
G75*
G02*
X62500000Y-49817000I225000J0D01*
G01*
X62950000Y-49817000D01*
G75*
G02*
X63175000Y-50042000I0J-225000D01*
G01*
G37*
%TD.AperFunction*%
%TO.P,C14,1*%
%TO.N,+3V3*%
%TA.AperFunction,SMDPad,CuDef*%
G36*
G01*
X64725000Y-50042000D02*
X64725000Y-50542000D01*
G75*
G02*
X64500000Y-50767000I-225000J0D01*
G01*
X64050000Y-50767000D01*
G75*
G02*
X63825000Y-50542000I0J225000D01*
G01*
X63825000Y-50042000D01*
G75*
G02*
X64050000Y-49817000I225000J0D01*
G01*
X64500000Y-49817000D01*
G75*
G02*
X64725000Y-50042000I0J-225000D01*
G01*
G37*
%TD.AperFunction*%
%TD*%
%TO.P,C12,2*%
%TO.N,Earth*%
%TA.AperFunction,SMDPad,CuDef*%
G36*
G01*
X78062000Y-60194000D02*
X78062000Y-59694000D01*
G75*
G02*
X78287000Y-59469000I225000J0D01*
G01*
X78737000Y-59469000D01*
G75*
G02*
X78962000Y-59694000I0J-225000D01*
G01*
X78962000Y-60194000D01*
G75*
G02*
X78737000Y-60419000I-225000J0D01*
G01*
X78287000Y-60419000D01*
G75*
G02*
X78062000Y-60194000I0J225000D01*
G01*
G37*
%TD.AperFunction*%
%TO.P,C12,1*%
%TO.N,+3V3*%
%TA.AperFunction,SMDPad,CuDef*%
G36*
G01*
X76512000Y-60194000D02*
X76512000Y-59694000D01*
G75*
G02*
X76737000Y-59469000I225000J0D01*
G01*
X77187000Y-59469000D01*
G75*
G02*
X77412000Y-59694000I0J-225000D01*
G01*
X77412000Y-60194000D01*
G75*
G02*
X77187000Y-60419000I-225000J0D01*
G01*
X76737000Y-60419000D01*
G75*
G02*
X76512000Y-60194000I0J225000D01*
G01*
G37*
%TD.AperFunction*%
%TD*%
%TO.P,C11,2*%
%TO.N,Earth*%
%TA.AperFunction,SMDPad,CuDef*%
G36*
G01*
X77033000Y-66544000D02*
X77033000Y-66044000D01*
G75*
G02*
X77258000Y-65819000I225000J0D01*
G01*
X77708000Y-65819000D01*
G75*
G02*
X77933000Y-66044000I0J-225000D01*
G01*
X77933000Y-66544000D01*
G75*
G02*
X77708000Y-66769000I-225000J0D01*
G01*
X77258000Y-66769000D01*
G75*
G02*
X77033000Y-66544000I0J225000D01*
G01*
G37*
%TD.AperFunction*%
%TO.P,C11,1*%
%TO.N,+3V3*%
%TA.AperFunction,SMDPad,CuDef*%
G36*
G01*
X75483000Y-66544000D02*
X75483000Y-66044000D01*
G75*
G02*
X75708000Y-65819000I225000J0D01*
G01*
X76158000Y-65819000D01*
G75*
G02*
X76383000Y-66044000I0J-225000D01*
G01*
X76383000Y-66544000D01*
G75*
G02*
X76158000Y-66769000I-225000J0D01*
G01*
X75708000Y-66769000D01*
G75*
G02*
X75483000Y-66544000I0J225000D01*
G01*
G37*
%TD.AperFunction*%
%TD*%
%TO.P,C10,2*%
%TO.N,Earth*%
%TA.AperFunction,SMDPad,CuDef*%
G36*
G01*
X63504000Y-75128000D02*
X64004000Y-75128000D01*
G75*
G02*
X64229000Y-75353000I0J-225000D01*
G01*
X64229000Y-75803000D01*
G75*
G02*
X64004000Y-76028000I-225000J0D01*
G01*
X63504000Y-76028000D01*
G75*
G02*
X63279000Y-75803000I0J225000D01*
G01*
X63279000Y-75353000D01*
G75*
G02*
X63504000Y-75128000I225000J0D01*
G01*
G37*
%TD.AperFunction*%
%TO.P,C10,1*%
%TO.N,+3V3*%
%TA.AperFunction,SMDPad,CuDef*%
G36*
G01*
X63504000Y-73578000D02*
X64004000Y-73578000D01*
G75*
G02*
X64229000Y-73803000I0J-225000D01*
G01*
X64229000Y-74253000D01*
G75*
G02*
X64004000Y-74478000I-225000J0D01*
G01*
X63504000Y-74478000D01*
G75*
G02*
X63279000Y-74253000I0J225000D01*
G01*
X63279000Y-73803000D01*
G75*
G02*
X63504000Y-73578000I225000J0D01*
G01*
G37*
%TD.AperFunction*%
%TD*%
%TO.P,C9,2*%
%TO.N,Earth*%
%TA.AperFunction,SMDPad,CuDef*%
G36*
G01*
X66985000Y-57916000D02*
X66985000Y-58416000D01*
G75*
G02*
X66760000Y-58641000I-225000J0D01*
G01*
X66310000Y-58641000D01*
G75*
G02*
X66085000Y-58416000I0J225000D01*
G01*
X66085000Y-57916000D01*
G75*
G02*
X66310000Y-57691000I225000J0D01*
G01*
X66760000Y-57691000D01*
G75*
G02*
X66985000Y-57916000I0J-225000D01*
G01*
G37*
%TD.AperFunction*%
%TO.P,C9,1*%
%TO.N,Net-(C9-Pad1)*%
%TA.AperFunction,SMDPad,CuDef*%
G36*
G01*
X68535000Y-57916000D02*
X68535000Y-58416000D01*
G75*
G02*
X68310000Y-58641000I-225000J0D01*
G01*
X67860000Y-58641000D01*
G75*
G02*
X67635000Y-58416000I0J225000D01*
G01*
X67635000Y-57916000D01*
G75*
G02*
X67860000Y-57691000I225000J0D01*
G01*
X68310000Y-57691000D01*
G75*
G02*
X68535000Y-57916000I0J-225000D01*
G01*
G37*
%TD.AperFunction*%
%TD*%
%TO.P,C8,2*%
%TO.N,Earth*%
%TA.AperFunction,SMDPad,CuDef*%
G36*
G01*
X73664000Y-76956500D02*
X74164000Y-76956500D01*
G75*
G02*
X74389000Y-77181500I0J-225000D01*
G01*
X74389000Y-77631500D01*
G75*
G02*
X74164000Y-77856500I-225000J0D01*
G01*
X73664000Y-77856500D01*
G75*
G02*
X73439000Y-77631500I0J225000D01*
G01*
X73439000Y-77181500D01*
G75*
G02*
X73664000Y-76956500I225000J0D01*
G01*
G37*
%TD.AperFunction*%
%TO.P,C8,1*%
%TO.N,+3V3*%
%TA.AperFunction,SMDPad,CuDef*%
G36*
G01*
X73664000Y-75406500D02*
X74164000Y-75406500D01*
G75*
G02*
X74389000Y-75631500I0J-225000D01*
G01*
X74389000Y-76081500D01*
G75*
G02*
X74164000Y-76306500I-225000J0D01*
G01*
X73664000Y-76306500D01*
G75*
G02*
X73439000Y-76081500I0J225000D01*
G01*
X73439000Y-75631500D01*
G75*
G02*
X73664000Y-75406500I225000J0D01*
G01*
G37*
%TD.AperFunction*%
%TD*%
%TO.P,C7,2*%
%TO.N,Earth*%
%TA.AperFunction,SMDPad,CuDef*%
G36*
G01*
X73718000Y-58416000D02*
X73718000Y-57916000D01*
G75*
G02*
X73943000Y-57691000I225000J0D01*
G01*
X74393000Y-57691000D01*
G75*
G02*
X74618000Y-57916000I0J-225000D01*
G01*
X74618000Y-58416000D01*
G75*
G02*
X74393000Y-58641000I-225000J0D01*
G01*
X73943000Y-58641000D01*
G75*
G02*
X73718000Y-58416000I0J225000D01*
G01*
G37*
%TD.AperFunction*%
%TO.P,C7,1*%
%TO.N,Net-(C7-Pad1)*%
%TA.AperFunction,SMDPad,CuDef*%
G36*
G01*
X72168000Y-58416000D02*
X72168000Y-57916000D01*
G75*
G02*
X72393000Y-57691000I225000J0D01*
G01*
X72843000Y-57691000D01*
G75*
G02*
X73068000Y-57916000I0J-225000D01*
G01*
X73068000Y-58416000D01*
G75*
G02*
X72843000Y-58641000I-225000J0D01*
G01*
X72393000Y-58641000D01*
G75*
G02*
X72168000Y-58416000I0J225000D01*
G01*
G37*
%TD.AperFunction*%
%TD*%
%TO.P,C6,2*%
%TO.N,Earth*%
%TA.AperFunction,SMDPad,CuDef*%
G36*
G01*
X78036000Y-61718000D02*
X78036000Y-61218000D01*
G75*
G02*
X78261000Y-60993000I225000J0D01*
G01*
X78711000Y-60993000D01*
G75*
G02*
X78936000Y-61218000I0J-225000D01*
G01*
X78936000Y-61718000D01*
G75*
G02*
X78711000Y-61943000I-225000J0D01*
G01*
X78261000Y-61943000D01*
G75*
G02*
X78036000Y-61718000I0J225000D01*
G01*
G37*
%TD.AperFunction*%
%TO.P,C6,1*%
%TO.N,+3V3*%
%TA.AperFunction,SMDPad,CuDef*%
G36*
G01*
X76486000Y-61718000D02*
X76486000Y-61218000D01*
G75*
G02*
X76711000Y-60993000I225000J0D01*
G01*
X77161000Y-60993000D01*
G75*
G02*
X77386000Y-61218000I0J-225000D01*
G01*
X77386000Y-61718000D01*
G75*
G02*
X77161000Y-61943000I-225000J0D01*
G01*
X76711000Y-61943000D01*
G75*
G02*
X76486000Y-61718000I0J225000D01*
G01*
G37*
%TD.AperFunction*%
%TD*%
%TO.P,C3,2*%
%TO.N,Earth*%
%TA.AperFunction,SMDPad,CuDef*%
G36*
G01*
X65282000Y-90241000D02*
X65782000Y-90241000D01*
G75*
G02*
X66007000Y-90466000I0J-225000D01*
G01*
X66007000Y-90916000D01*
G75*
G02*
X65782000Y-91141000I-225000J0D01*
G01*
X65282000Y-91141000D01*
G75*
G02*
X65057000Y-90916000I0J225000D01*
G01*
X65057000Y-90466000D01*
G75*
G02*
X65282000Y-90241000I225000J0D01*
G01*
G37*
%TD.AperFunction*%
%TO.P,C3,1*%
%TO.N,+3V3*%
%TA.AperFunction,SMDPad,CuDef*%
G36*
G01*
X65282000Y-88691000D02*
X65782000Y-88691000D01*
G75*
G02*
X66007000Y-88916000I0J-225000D01*
G01*
X66007000Y-89366000D01*
G75*
G02*
X65782000Y-89591000I-225000J0D01*
G01*
X65282000Y-89591000D01*
G75*
G02*
X65057000Y-89366000I0J225000D01*
G01*
X65057000Y-88916000D01*
G75*
G02*
X65282000Y-88691000I225000J0D01*
G01*
G37*
%TD.AperFunction*%
%TD*%
%TO.P,C2,2*%
%TO.N,Earth*%
%TA.AperFunction,SMDPad,CuDef*%
G36*
G01*
X58416000Y-56571000D02*
X57916000Y-56571000D01*
G75*
G02*
X57691000Y-56346000I0J225000D01*
G01*
X57691000Y-55896000D01*
G75*
G02*
X57916000Y-55671000I225000J0D01*
G01*
X58416000Y-55671000D01*
G75*
G02*
X58641000Y-55896000I0J-225000D01*
G01*
X58641000Y-56346000D01*
G75*
G02*
X58416000Y-56571000I-225000J0D01*
G01*
G37*
%TD.AperFunction*%
%TO.P,C2,1*%
%TO.N,/RESET*%
%TA.AperFunction,SMDPad,CuDef*%
G36*
G01*
X58416000Y-58121000D02*
X57916000Y-58121000D01*
G75*
G02*
X57691000Y-57896000I0J225000D01*
G01*
X57691000Y-57446000D01*
G75*
G02*
X57916000Y-57221000I225000J0D01*
G01*
X58416000Y-57221000D01*
G75*
G02*
X58641000Y-57446000I0J-225000D01*
G01*
X58641000Y-57896000D01*
G75*
G02*
X58416000Y-58121000I-225000J0D01*
G01*
G37*
%TD.AperFunction*%
%TD*%
%TO.P,C1,2*%
%TO.N,Earth*%
%TA.AperFunction,SMDPad,CuDef*%
G36*
G01*
X66365000Y-86864000D02*
X66365000Y-86364000D01*
G75*
G02*
X66590000Y-86139000I225000J0D01*
G01*
X67040000Y-86139000D01*
G75*
G02*
X67265000Y-86364000I0J-225000D01*
G01*
X67265000Y-86864000D01*
G75*
G02*
X67040000Y-87089000I-225000J0D01*
G01*
X66590000Y-87089000D01*
G75*
G02*
X66365000Y-86864000I0J225000D01*
G01*
G37*
%TD.AperFunction*%
%TO.P,C1,1*%
%TO.N,+5V*%
%TA.AperFunction,SMDPad,CuDef*%
G36*
G01*
X64815000Y-86864000D02*
X64815000Y-86364000D01*
G75*
G02*
X65040000Y-86139000I225000J0D01*
G01*
X65490000Y-86139000D01*
G75*
G02*
X65715000Y-86364000I0J-225000D01*
G01*
X65715000Y-86864000D01*
G75*
G02*
X65490000Y-87089000I-225000J0D01*
G01*
X65040000Y-87089000D01*
G75*
G02*
X64815000Y-86864000I0J225000D01*
G01*
G37*
%TD.AperFunction*%
%TD*%
D17*
%TO.N,Earth*%
X77343000Y-65468500D03*
X65595500Y-92075000D03*
X61722000Y-77152500D03*
%TO.N,+5V*%
X60184000Y-86600000D03*
%TO.N,+3V3*%
X75882500Y-59753500D03*
X72009000Y-89344500D03*
X65532000Y-89141000D03*
X63817500Y-73152000D03*
X60642500Y-72771000D03*
X74204999Y-65124499D03*
X78422500Y-80872500D03*
X60007500Y-61976000D03*
X82232500Y-72644000D03*
X62865000Y-77152500D03*
%TO.N,+3.3VA*%
X62674500Y-72199500D03*
%TO.N,Net-(J1-Pad3)*%
X82296000Y-78422500D03*
%TO.N,/PA1*%
X68489946Y-66991239D03*
%TO.N,/PA0*%
X69798241Y-66947560D03*
%TO.N,/PC13*%
X73350002Y-65849500D03*
X74866500Y-88139010D03*
%TO.N,/SWCLK*%
X76200000Y-72325000D03*
%TO.N,/SWDIO*%
X75591500Y-73279000D03*
X75819000Y-53149500D03*
X74993500Y-54546500D03*
%TO.N,/BOOT0*%
X77318338Y-68375000D03*
%TD*%
D18*
%TO.N,Earth*%
X53340000Y-91440000D02*
X53340000Y-93980000D01*
X54089000Y-90691000D02*
X53340000Y-91440000D01*
X65532000Y-90691000D02*
X54089000Y-90691000D01*
X65822000Y-72100000D02*
X65846999Y-72075001D01*
X65612000Y-72100000D02*
X65822000Y-72100000D01*
X64229000Y-75578000D02*
X63754000Y-75578000D01*
X66868001Y-72938999D02*
X64229000Y-75578000D01*
X66868001Y-72075001D02*
X66868001Y-72938999D01*
X66584502Y-70100000D02*
X65612000Y-70100000D01*
X66674501Y-72072999D02*
X66674501Y-70189999D01*
X66674501Y-70189999D02*
X66584502Y-70100000D01*
X66672499Y-72075001D02*
X66674501Y-72072999D01*
X65846999Y-72075001D02*
X66672499Y-72075001D01*
X66672499Y-72075001D02*
X66868001Y-72075001D01*
X78168000Y-90932000D02*
X78168000Y-92456000D01*
X72100000Y-75592500D02*
X73914000Y-77406500D01*
X72100000Y-74088000D02*
X72100000Y-75592500D01*
X75057000Y-77406500D02*
X73914000Y-77406500D01*
X77216000Y-79565500D02*
X75057000Y-77406500D01*
X79756000Y-79565500D02*
X77216000Y-79565500D01*
X76962000Y-48260000D02*
X74676000Y-50546000D01*
X86360000Y-48260000D02*
X76962000Y-48260000D01*
X78512000Y-61442000D02*
X78486000Y-61468000D01*
X78512000Y-59944000D02*
X78512000Y-61442000D01*
X77343000Y-66154000D02*
X77483000Y-66294000D01*
X77343000Y-65468500D02*
X77343000Y-66154000D01*
X77343000Y-62611000D02*
X78486000Y-61468000D01*
X77343000Y-65468500D02*
X77343000Y-62611000D01*
X76177000Y-67600000D02*
X77483000Y-66294000D01*
X74088000Y-67600000D02*
X76177000Y-67600000D01*
X73535501Y-67624999D02*
X72837001Y-67624999D01*
X73560500Y-67600000D02*
X73535501Y-67624999D01*
X74088000Y-67600000D02*
X73560500Y-67600000D01*
X72100000Y-73115498D02*
X72100000Y-74088000D01*
X71923501Y-72938999D02*
X72100000Y-73115498D01*
X66868001Y-72938999D02*
X71923501Y-72938999D01*
X71923501Y-68538499D02*
X72837001Y-67624999D01*
X71923501Y-72938999D02*
X71923501Y-68538499D01*
X78512000Y-59944000D02*
X78512000Y-58192000D01*
X78486000Y-58166000D02*
X74168000Y-58166000D01*
X78512000Y-58192000D02*
X78486000Y-58166000D01*
X74168000Y-51054000D02*
X74676000Y-50546000D01*
X74168000Y-58166000D02*
X74168000Y-51054000D01*
X74168000Y-58166000D02*
X74168000Y-56959500D01*
X74168000Y-56959500D02*
X73088500Y-55880000D01*
X68821000Y-55880000D02*
X66535000Y-58166000D01*
X73088500Y-55880000D02*
X68821000Y-55880000D01*
X66535000Y-55447000D02*
X64734000Y-53646000D01*
X66535000Y-58166000D02*
X66535000Y-55447000D01*
X64734000Y-53646000D02*
X60234000Y-53646000D01*
X62725000Y-51155000D02*
X60234000Y-53646000D01*
X62725000Y-50292000D02*
X62725000Y-51155000D01*
X58166000Y-55714000D02*
X58166000Y-56121000D01*
X60234000Y-53646000D02*
X58166000Y-55714000D01*
X66815000Y-89408000D02*
X65532000Y-90691000D01*
X66815000Y-86614000D02*
X66815000Y-89408000D01*
X65595500Y-90754500D02*
X65532000Y-90691000D01*
X65595500Y-92075000D02*
X65595500Y-90754500D01*
X65595500Y-92075000D02*
X67691000Y-92075000D01*
X67691000Y-92075000D02*
X70040500Y-94424500D01*
X76199500Y-94424500D02*
X78168000Y-92456000D01*
X70040500Y-94424500D02*
X76199500Y-94424500D01*
X63754000Y-81026000D02*
X53340000Y-91440000D01*
X62801500Y-78232000D02*
X61722000Y-77152500D01*
X63754000Y-78232000D02*
X62801500Y-78232000D01*
X63754000Y-75578000D02*
X63754000Y-78232000D01*
X63754000Y-78232000D02*
X63754000Y-81026000D01*
%TO.N,+5V*%
X66065010Y-85813990D02*
X65265000Y-86614000D01*
X73070000Y-92456000D02*
X68262500Y-87648500D01*
X73507500Y-92456000D02*
X73070000Y-92456000D01*
X68262500Y-87648500D02*
X68262500Y-86296500D01*
X67779990Y-85813990D02*
X66065010Y-85813990D01*
X68262500Y-86296500D02*
X67779990Y-85813990D01*
X60198000Y-86614000D02*
X60184000Y-86600000D01*
X65265000Y-86614000D02*
X60198000Y-86614000D01*
%TO.N,/RESET*%
X69600000Y-65612000D02*
X69600000Y-64743999D01*
X64734000Y-61206660D02*
X64734000Y-60146000D01*
X66112341Y-62585001D02*
X64734000Y-61206660D01*
X67441002Y-62585001D02*
X66112341Y-62585001D01*
X69600000Y-64743999D02*
X67441002Y-62585001D01*
X63309000Y-61571000D02*
X64734000Y-60146000D01*
X63309000Y-62230000D02*
X63309000Y-61571000D01*
X64734000Y-60146000D02*
X60234000Y-60146000D01*
X58166000Y-58078000D02*
X60234000Y-60146000D01*
X58166000Y-57671000D02*
X58166000Y-58078000D01*
X57671000Y-57671000D02*
X53340000Y-53340000D01*
X58166000Y-57671000D02*
X57671000Y-57671000D01*
%TO.N,+3V3*%
X64529000Y-50546000D02*
X64275000Y-50292000D01*
X67056000Y-50546000D02*
X64529000Y-50546000D01*
X64275000Y-50292000D02*
X64275000Y-49543000D01*
X62992000Y-48260000D02*
X53340000Y-48260000D01*
X64275000Y-49543000D02*
X62992000Y-48260000D01*
X53340000Y-45720000D02*
X53340000Y-48260000D01*
X61468000Y-71120000D02*
X61468000Y-71374000D01*
X65182000Y-72600000D02*
X63754000Y-74028000D01*
X65612000Y-72600000D02*
X65182000Y-72600000D01*
X73533000Y-90906500D02*
X73507500Y-90932000D01*
X73533000Y-89408000D02*
X73533000Y-90906500D01*
X65773000Y-88900000D02*
X65532000Y-89141000D01*
X73914000Y-75856500D02*
X73253000Y-75856500D01*
X72600000Y-75203500D02*
X72600000Y-74088000D01*
X73253000Y-75856500D02*
X72600000Y-75203500D01*
X75285000Y-74485500D02*
X73914000Y-75856500D01*
X77216000Y-74485500D02*
X75285000Y-74485500D01*
X71882000Y-45720000D02*
X67056000Y-50546000D01*
X86360000Y-45720000D02*
X71882000Y-45720000D01*
X75267000Y-67100000D02*
X74088000Y-67100000D01*
X74763499Y-65124499D02*
X75933000Y-66294000D01*
X72600000Y-65526500D02*
X73002001Y-65124499D01*
X72600000Y-65612000D02*
X72600000Y-65526500D01*
X74763499Y-63640501D02*
X76936000Y-61468000D01*
X74763499Y-65124499D02*
X74763499Y-63640501D01*
X76936000Y-59970000D02*
X76962000Y-59944000D01*
X76936000Y-61468000D02*
X76936000Y-59970000D01*
X76073000Y-59944000D02*
X75882500Y-59753500D01*
X76962000Y-59944000D02*
X76073000Y-59944000D01*
X72072500Y-89408000D02*
X72009000Y-89344500D01*
X73533000Y-89408000D02*
X72072500Y-89408000D01*
X63754000Y-73215500D02*
X63817500Y-73152000D01*
X63754000Y-74028000D02*
X63754000Y-73215500D01*
X60642500Y-71945500D02*
X61468000Y-71120000D01*
X60642500Y-72771000D02*
X60642500Y-71945500D01*
X77216000Y-74485500D02*
X79756000Y-74485500D01*
X79756000Y-74485500D02*
X78551000Y-74485500D01*
X74204999Y-65124499D02*
X74763499Y-65124499D01*
X73002001Y-65124499D02*
X74204999Y-65124499D01*
X80188002Y-80872500D02*
X78422500Y-80872500D01*
X80931001Y-80129501D02*
X80188002Y-80872500D01*
X80931001Y-75660501D02*
X80931001Y-80129501D01*
X79756000Y-74485500D02*
X80931001Y-75660501D01*
X60261500Y-62230000D02*
X60007500Y-61976000D01*
X61659000Y-62230000D02*
X60261500Y-62230000D01*
X75933000Y-66434000D02*
X75267000Y-67100000D01*
X75933000Y-66294000D02*
X75933000Y-66434000D01*
X60007500Y-61976000D02*
X55562500Y-57531000D01*
X81597500Y-72644000D02*
X82232500Y-72644000D01*
X79756000Y-74485500D02*
X81597500Y-72644000D01*
X63754000Y-74325166D02*
X62865000Y-75214166D01*
X63754000Y-74028000D02*
X63754000Y-74325166D01*
X62865000Y-75214166D02*
X62865000Y-77152500D01*
%TO.N,Net-(C4-Pad1)*%
X71600000Y-65306000D02*
X71575001Y-65281001D01*
X71600000Y-65612000D02*
X71600000Y-65306000D01*
X71600000Y-64624500D02*
X71600000Y-65612000D01*
X71945001Y-64279499D02*
X71600000Y-64624500D01*
X71945001Y-63944999D02*
X71945001Y-64279499D01*
X72136000Y-63754000D02*
X71945001Y-63944999D01*
X73660000Y-63754000D02*
X72136000Y-63754000D01*
%TO.N,Net-(C5-Pad1)*%
X71100000Y-64128000D02*
X70866000Y-63894000D01*
X71100000Y-63774000D02*
X71120000Y-63754000D01*
X71100000Y-65612000D02*
X71100000Y-63774000D01*
%TO.N,Net-(C7-Pad1)*%
X70600000Y-65612000D02*
X70600000Y-64639498D01*
X72508000Y-61144998D02*
X72508000Y-60960000D01*
X70104000Y-63548998D02*
X72508000Y-61144998D01*
X70104000Y-63959002D02*
X70104000Y-63548998D01*
X70612000Y-64467002D02*
X70104000Y-63959002D01*
X70612000Y-64635996D02*
X70612000Y-64467002D01*
X70608498Y-64639498D02*
X70612000Y-64635996D01*
X70600000Y-64639498D02*
X70608498Y-64639498D01*
X72508000Y-58276000D02*
X72618000Y-58166000D01*
X72508000Y-60960000D02*
X72508000Y-58276000D01*
X72618000Y-58166000D02*
X71183000Y-58166000D01*
%TO.N,Net-(C9-Pad1)*%
X70100000Y-65612000D02*
X70100000Y-64775908D01*
X68208000Y-62699412D02*
X68208000Y-60960000D01*
X70100000Y-64591412D02*
X68208000Y-62699412D01*
X70100000Y-65612000D02*
X70100000Y-64591412D01*
X69533000Y-58166000D02*
X68085000Y-58166000D01*
X68208000Y-58289000D02*
X68085000Y-58166000D01*
X68208000Y-60960000D02*
X68208000Y-58289000D01*
%TO.N,+3.3VA*%
X65612000Y-71100000D02*
X65612000Y-70600000D01*
X63313000Y-71100000D02*
X63293000Y-71120000D01*
X65612000Y-71100000D02*
X63313000Y-71100000D01*
X62674500Y-71738500D02*
X63293000Y-71120000D01*
X62674500Y-72199500D02*
X62674500Y-71738500D01*
%TO.N,Net-(D1-Pad1)*%
X76518000Y-90932000D02*
X75082500Y-90932000D01*
%TO.N,Net-(D2-Pad1)*%
X76518000Y-92456000D02*
X75082500Y-92456000D01*
%TO.N,Net-(D3-Pad1)*%
X76581000Y-89408000D02*
X75108000Y-89408000D01*
%TO.N,Net-(J1-Pad3)*%
X82296000Y-78422500D02*
X82296000Y-77469000D01*
%TO.N,/PB10*%
X62953990Y-74206010D02*
X53340000Y-83820000D01*
X62953990Y-72984700D02*
X62953990Y-74206010D01*
X64338690Y-71600000D02*
X62953990Y-72984700D01*
X65612000Y-71600000D02*
X64338690Y-71600000D01*
%TO.N,/PB2*%
X65612000Y-69600000D02*
X60829000Y-69600000D01*
X60829000Y-69600000D02*
X56832500Y-73596500D01*
X56832500Y-77787500D02*
X53340000Y-81280000D01*
X56832500Y-73596500D02*
X56832500Y-77787500D01*
%TO.N,/PB1*%
X65612000Y-69100000D02*
X59932000Y-69100000D01*
X59932000Y-69100000D02*
X56197500Y-72834500D01*
X56197500Y-75882500D02*
X53340000Y-78740000D01*
X56197500Y-72834500D02*
X56197500Y-75882500D01*
%TO.N,/PB0*%
X55372000Y-72771000D02*
X55372000Y-74168000D01*
X59543000Y-68600000D02*
X55372000Y-72771000D01*
X55372000Y-74168000D02*
X53340000Y-76200000D01*
X65612000Y-68600000D02*
X59543000Y-68600000D01*
%TO.N,/PA7*%
X58900000Y-68100000D02*
X53340000Y-73660000D01*
X65612000Y-68100000D02*
X58900000Y-68100000D01*
%TO.N,/PA6*%
X56860000Y-67600000D02*
X53340000Y-71120000D01*
X65612000Y-67600000D02*
X56860000Y-67600000D01*
%TO.N,/PA5*%
X54820000Y-67100000D02*
X53340000Y-68580000D01*
X65612000Y-67100000D02*
X54820000Y-67100000D01*
%TO.N,/PA4*%
X67100000Y-65612000D02*
X67100000Y-64941000D01*
X67100000Y-64941000D02*
X66357500Y-64198500D01*
X55181500Y-64198500D02*
X53340000Y-66040000D01*
X66357500Y-64198500D02*
X55181500Y-64198500D01*
%TO.N,/PA3*%
X66460502Y-63500000D02*
X53340000Y-63500000D01*
X67600000Y-64639498D02*
X66460502Y-63500000D01*
X67600000Y-65612000D02*
X67600000Y-64639498D01*
%TO.N,/PA2*%
X55429990Y-63049990D02*
X53340000Y-60960000D01*
X66859990Y-63049990D02*
X55429990Y-63049990D01*
X68100000Y-64290000D02*
X66859990Y-63049990D01*
X68100000Y-65612000D02*
X68100000Y-64290000D01*
%TO.N,/PA1*%
X68600000Y-66881185D02*
X68489946Y-66991239D01*
X68600000Y-65612000D02*
X68600000Y-66881185D01*
%TO.N,/PA0*%
X69448060Y-66947560D02*
X69798241Y-66947560D01*
X69100000Y-66599500D02*
X69448060Y-66947560D01*
X69100000Y-65612000D02*
X69100000Y-66599500D01*
%TO.N,/PC13*%
X73010001Y-66674501D02*
X73350002Y-66334500D01*
X73350002Y-66334500D02*
X73350002Y-65849500D01*
X72175001Y-66674501D02*
X73010001Y-66674501D01*
X72100000Y-66599500D02*
X72175001Y-66674501D01*
X72100000Y-65612000D02*
X72100000Y-66599500D01*
X78231000Y-89408000D02*
X76897500Y-88074500D01*
X74931010Y-88074500D02*
X74866500Y-88139010D01*
X76897500Y-88074500D02*
X74931010Y-88074500D01*
%TO.N,/SWCLK*%
X75975000Y-72100000D02*
X76200000Y-72325000D01*
X74088000Y-72100000D02*
X75975000Y-72100000D01*
%TO.N,/SWDIO*%
X74912500Y-72600000D02*
X75591500Y-73279000D01*
X74088000Y-72600000D02*
X74912500Y-72600000D01*
X75819000Y-53721000D02*
X74993500Y-54546500D01*
X75819000Y-53149500D02*
X75819000Y-53721000D01*
%TO.N,/PB11*%
X67100000Y-84181500D02*
X67100000Y-74088000D01*
X70332510Y-87414010D02*
X67100000Y-84181500D01*
X79565500Y-92011500D02*
X79565500Y-88138000D01*
X81534000Y-93980000D02*
X79565500Y-92011500D01*
X86360000Y-93980000D02*
X81534000Y-93980000D01*
X79565500Y-88138000D02*
X78835250Y-87407750D01*
X78828990Y-87414010D02*
X76733490Y-87414010D01*
X78835250Y-87407750D02*
X78828990Y-87414010D01*
X76733490Y-87414010D02*
X70332510Y-87414010D01*
X76987490Y-87414010D02*
X76733490Y-87414010D01*
%TO.N,/PB12*%
X83503910Y-91440000D02*
X86360000Y-91440000D01*
X67600000Y-74088000D02*
X67600000Y-83856000D01*
X70833500Y-86964000D02*
X70708000Y-86964000D01*
X70708000Y-86964000D02*
X69532500Y-85788500D01*
X79021651Y-86957741D02*
X70839759Y-86957741D01*
X80200500Y-88136590D02*
X79021651Y-86957741D01*
X82296000Y-91440000D02*
X80200500Y-89344500D01*
X86360000Y-91440000D02*
X82296000Y-91440000D01*
X80200500Y-89344500D02*
X80200500Y-88136590D01*
X69532500Y-85788500D02*
X69723000Y-85979000D01*
X70839759Y-86957741D02*
X70833500Y-86964000D01*
X67600000Y-83856000D02*
X69532500Y-85788500D01*
%TO.N,/PB13*%
X86360000Y-88900000D02*
X84455000Y-88900000D01*
X84455000Y-88900000D02*
X84455000Y-88770180D01*
X68100000Y-74088000D02*
X68100000Y-83719590D01*
X68100000Y-83719590D02*
X70803910Y-86423500D01*
X81600320Y-88900000D02*
X86360000Y-88900000D01*
X79123820Y-86423500D02*
X81600320Y-88900000D01*
X70803910Y-86423500D02*
X79123820Y-86423500D01*
%TO.N,/PB14*%
X86360000Y-86360000D02*
X79819500Y-86360000D01*
X79819500Y-86360000D02*
X79432990Y-85973490D01*
X79432990Y-85973490D02*
X71368490Y-85973490D01*
X68600000Y-83205000D02*
X68600000Y-74088000D01*
X71368490Y-85973490D02*
X68600000Y-83205000D01*
%TO.N,/PB15*%
X69100000Y-74088000D02*
X69100000Y-83006500D01*
X71616980Y-85523480D02*
X79703520Y-85523480D01*
X69100000Y-83006500D02*
X71616980Y-85523480D01*
X84604040Y-85575960D02*
X86360000Y-83820000D01*
X79756000Y-85575960D02*
X84604040Y-85575960D01*
X79703520Y-85523480D02*
X79756000Y-85575960D01*
%TO.N,/PA8*%
X69600000Y-82617500D02*
X69600000Y-74088000D01*
X71945500Y-84963000D02*
X69600000Y-82617500D01*
X82677000Y-84963000D02*
X71945500Y-84963000D01*
X86360000Y-81280000D02*
X82677000Y-84963000D01*
%TO.N,/PA9*%
X70100000Y-74088000D02*
X70100000Y-82355500D01*
X70100000Y-82355500D02*
X72136000Y-84391500D01*
X80708500Y-84391500D02*
X86360000Y-78740000D01*
X72136000Y-84391500D02*
X80708500Y-84391500D01*
%TO.N,/PA10*%
X70600000Y-74088000D02*
X70600000Y-82087990D01*
X70600000Y-82087990D02*
X72268510Y-83756500D01*
X85184999Y-77375001D02*
X86360000Y-76200000D01*
X85184999Y-78390003D02*
X85184999Y-77375001D01*
X79818502Y-83756500D02*
X85184999Y-78390003D01*
X72268510Y-83756500D02*
X79818502Y-83756500D01*
%TO.N,/PA11*%
X71093990Y-79517532D02*
X71093990Y-81761990D01*
X71100000Y-79511522D02*
X71093990Y-79517532D01*
X71100000Y-74088000D02*
X71100000Y-79511522D01*
X72517000Y-83185000D02*
X79753592Y-83185000D01*
X71093990Y-81761990D02*
X72517000Y-83185000D01*
X79753592Y-83185000D02*
X79753592Y-83123908D01*
X79753592Y-83123908D02*
X84137500Y-78740000D01*
X84137500Y-75882500D02*
X86360000Y-73660000D01*
X84137500Y-78740000D02*
X84137500Y-75882500D01*
%TO.N,/PA12*%
X71600000Y-74088000D02*
X71600000Y-81125000D01*
X83687490Y-78438488D02*
X83687490Y-73792510D01*
X80528478Y-81597500D02*
X83687490Y-78438488D01*
X83687490Y-73792510D02*
X86360000Y-71120000D01*
X72072500Y-81597500D02*
X80528478Y-81597500D01*
X71600000Y-81125000D02*
X72072500Y-81597500D01*
%TO.N,/PA15*%
X83340000Y-71600000D02*
X86360000Y-68580000D01*
X74088000Y-71600000D02*
X83340000Y-71600000D01*
%TO.N,/PB3*%
X81253990Y-71146010D02*
X86360000Y-66040000D01*
X77866532Y-71146010D02*
X81253990Y-71146010D01*
X77820522Y-71100000D02*
X77866532Y-71146010D01*
X74088000Y-71100000D02*
X77820522Y-71100000D01*
%TO.N,/PB4*%
X86360000Y-63827978D02*
X86360000Y-63500000D01*
X79587978Y-70600000D02*
X86360000Y-63827978D01*
X74088000Y-70600000D02*
X79587978Y-70600000D01*
%TO.N,/PB5*%
X74088000Y-70100000D02*
X78490000Y-70100000D01*
X78490000Y-70100000D02*
X84518500Y-64071500D01*
X84518500Y-62801500D02*
X86360000Y-60960000D01*
X84518500Y-64071500D02*
X84518500Y-62801500D01*
%TO.N,/PB6*%
X74088000Y-69600000D02*
X78101000Y-69600000D01*
X78101000Y-69600000D02*
X83820000Y-63881000D01*
X83820000Y-60960000D02*
X86360000Y-58420000D01*
X83820000Y-63881000D02*
X83820000Y-60960000D01*
%TO.N,/PB7*%
X74088000Y-69100000D02*
X77839000Y-69100000D01*
X77839000Y-69100000D02*
X82740500Y-64198500D01*
X82740500Y-59499500D02*
X86360000Y-55880000D01*
X82740500Y-64198500D02*
X82740500Y-59499500D01*
%TO.N,/BOOT0*%
X82290490Y-57409510D02*
X86360000Y-53340000D01*
X82290490Y-63632510D02*
X82290490Y-57409510D01*
X77323000Y-68600000D02*
X82290490Y-63632510D01*
X77093338Y-68600000D02*
X77318338Y-68375000D01*
X74088000Y-68600000D02*
X76815000Y-68600000D01*
X76815000Y-68600000D02*
X77093338Y-68600000D01*
X76815000Y-68600000D02*
X77323000Y-68600000D01*
%TO.N,/PB9*%
X74088000Y-68100000D02*
X76426000Y-68100000D01*
X76426000Y-68100000D02*
X76876001Y-67649999D01*
X81840480Y-55319520D02*
X86360000Y-50800000D01*
X81840480Y-63189354D02*
X81840480Y-55319520D01*
X77379835Y-67649999D02*
X81840480Y-63189354D01*
X76876001Y-67649999D02*
X77379835Y-67649999D01*
%TD*%
D19*
%TO.N,Earth*%
X66311928Y-74825500D02*
X66324188Y-74949982D01*
X66340001Y-75002110D01*
X66340000Y-84144178D01*
X66336324Y-84181500D01*
X66340000Y-84218822D01*
X66340000Y-84218832D01*
X66350997Y-84330485D01*
X66379709Y-84425136D01*
X66394454Y-84473746D01*
X66465026Y-84605776D01*
X66504871Y-84654326D01*
X66559999Y-84721501D01*
X66589003Y-84745304D01*
X66897689Y-85053990D01*
X66102332Y-85053990D01*
X66065010Y-85050314D01*
X66027687Y-85053990D01*
X66027677Y-85053990D01*
X65916024Y-85064987D01*
X65803224Y-85099204D01*
X65772763Y-85108444D01*
X65640733Y-85179016D01*
X65577107Y-85231233D01*
X65525009Y-85273989D01*
X65501211Y-85302988D01*
X65303270Y-85500928D01*
X65040000Y-85500928D01*
X64871623Y-85517512D01*
X64709717Y-85566625D01*
X64560503Y-85646382D01*
X64429716Y-85753716D01*
X64347415Y-85854000D01*
X60901711Y-85854000D01*
X60843774Y-85796063D01*
X60674256Y-85682795D01*
X60485898Y-85604774D01*
X60285939Y-85565000D01*
X60082061Y-85565000D01*
X59882102Y-85604774D01*
X59693744Y-85682795D01*
X59524226Y-85796063D01*
X59380063Y-85940226D01*
X59266795Y-86109744D01*
X59188774Y-86298102D01*
X59149000Y-86498061D01*
X59149000Y-86701939D01*
X59188774Y-86901898D01*
X59266795Y-87090256D01*
X59380063Y-87259774D01*
X59524226Y-87403937D01*
X59693744Y-87517205D01*
X59882102Y-87595226D01*
X60082061Y-87635000D01*
X60285939Y-87635000D01*
X60485898Y-87595226D01*
X60674256Y-87517205D01*
X60843774Y-87403937D01*
X60873711Y-87374000D01*
X64347415Y-87374000D01*
X64429716Y-87474284D01*
X64560503Y-87581618D01*
X64709717Y-87661375D01*
X64871623Y-87710488D01*
X65040000Y-87727072D01*
X65490000Y-87727072D01*
X65658377Y-87710488D01*
X65820283Y-87661375D01*
X65966351Y-87583300D01*
X66010506Y-87619537D01*
X66120820Y-87678502D01*
X66240518Y-87714812D01*
X66365000Y-87727072D01*
X66529250Y-87724000D01*
X66688000Y-87565250D01*
X66688000Y-86741000D01*
X66668000Y-86741000D01*
X66668000Y-86573990D01*
X66962000Y-86573990D01*
X66962000Y-86741000D01*
X66942000Y-86741000D01*
X66942000Y-87565250D01*
X67100750Y-87724000D01*
X67265000Y-87727072D01*
X67389482Y-87714812D01*
X67501994Y-87680682D01*
X67502500Y-87685822D01*
X67502500Y-87685832D01*
X67513497Y-87797485D01*
X67550282Y-87918752D01*
X67556954Y-87940746D01*
X67627526Y-88072776D01*
X67649259Y-88099257D01*
X67722499Y-88188501D01*
X67751503Y-88212304D01*
X72461362Y-92922164D01*
X72497150Y-93040142D01*
X72576329Y-93188275D01*
X72682885Y-93318115D01*
X72812725Y-93424671D01*
X72960858Y-93503850D01*
X73121592Y-93552608D01*
X73288750Y-93569072D01*
X73726250Y-93569072D01*
X73893408Y-93552608D01*
X74054142Y-93503850D01*
X74202275Y-93424671D01*
X74295000Y-93348574D01*
X74387725Y-93424671D01*
X74535858Y-93503850D01*
X74696592Y-93552608D01*
X74863750Y-93569072D01*
X75301250Y-93569072D01*
X75468408Y-93552608D01*
X75629142Y-93503850D01*
X75777275Y-93424671D01*
X75812909Y-93395428D01*
X75852392Y-93427831D01*
X75997284Y-93505278D01*
X76154500Y-93552969D01*
X76318000Y-93569072D01*
X76718000Y-93569072D01*
X76881500Y-93552969D01*
X77038716Y-93505278D01*
X77183608Y-93427831D01*
X77285590Y-93344137D01*
X77316815Y-93382185D01*
X77413506Y-93461537D01*
X77523820Y-93520502D01*
X77643518Y-93556812D01*
X77768000Y-93569072D01*
X77882250Y-93566000D01*
X78041000Y-93407250D01*
X78041000Y-92583000D01*
X78021000Y-92583000D01*
X78021000Y-92329000D01*
X78041000Y-92329000D01*
X78041000Y-91059000D01*
X78021000Y-91059000D01*
X78021000Y-90805000D01*
X78041000Y-90805000D01*
X78041000Y-90785000D01*
X78295000Y-90785000D01*
X78295000Y-90805000D01*
X78315000Y-90805000D01*
X78315000Y-91059000D01*
X78295000Y-91059000D01*
X78295000Y-92329000D01*
X78315000Y-92329000D01*
X78315000Y-92583000D01*
X78295000Y-92583000D01*
X78295000Y-93407250D01*
X78453750Y-93566000D01*
X78568000Y-93569072D01*
X78692482Y-93556812D01*
X78812180Y-93520502D01*
X78922494Y-93461537D01*
X79019185Y-93382185D01*
X79098537Y-93285494D01*
X79157502Y-93175180D01*
X79193812Y-93055482D01*
X79206072Y-92931000D01*
X79203000Y-92741750D01*
X79044252Y-92583002D01*
X79062200Y-92583002D01*
X80970205Y-94491008D01*
X80993999Y-94520001D01*
X81022992Y-94543795D01*
X81022996Y-94543799D01*
X81079293Y-94590000D01*
X54686383Y-94590000D01*
X54736825Y-94484099D01*
X54781476Y-94336890D01*
X54660155Y-94107000D01*
X53467000Y-94107000D01*
X53467000Y-94127000D01*
X53213000Y-94127000D01*
X53213000Y-94107000D01*
X53193000Y-94107000D01*
X53193000Y-93853000D01*
X53213000Y-93853000D01*
X53213000Y-91567000D01*
X53467000Y-91567000D01*
X53467000Y-93853000D01*
X54660155Y-93853000D01*
X54781476Y-93623110D01*
X54736825Y-93475901D01*
X54611641Y-93213080D01*
X54437588Y-92979731D01*
X54221355Y-92784822D01*
X54095745Y-92710000D01*
X54221355Y-92635178D01*
X54437588Y-92440269D01*
X54611641Y-92206920D01*
X54736825Y-91944099D01*
X54781476Y-91796890D01*
X54660155Y-91567000D01*
X53467000Y-91567000D01*
X53213000Y-91567000D01*
X53193000Y-91567000D01*
X53193000Y-91313000D01*
X53213000Y-91313000D01*
X53213000Y-91293000D01*
X53467000Y-91293000D01*
X53467000Y-91313000D01*
X54660155Y-91313000D01*
X54750925Y-91141000D01*
X64418928Y-91141000D01*
X64431188Y-91265482D01*
X64467498Y-91385180D01*
X64526463Y-91495494D01*
X64605815Y-91592185D01*
X64702506Y-91671537D01*
X64812820Y-91730502D01*
X64932518Y-91766812D01*
X65057000Y-91779072D01*
X65246250Y-91776000D01*
X65405000Y-91617250D01*
X65405000Y-90818000D01*
X65659000Y-90818000D01*
X65659000Y-91617250D01*
X65817750Y-91776000D01*
X66007000Y-91779072D01*
X66131482Y-91766812D01*
X66251180Y-91730502D01*
X66361494Y-91671537D01*
X66458185Y-91592185D01*
X66537537Y-91495494D01*
X66596502Y-91385180D01*
X66632812Y-91265482D01*
X66645072Y-91141000D01*
X66642000Y-90976750D01*
X66483250Y-90818000D01*
X65659000Y-90818000D01*
X65405000Y-90818000D01*
X64580750Y-90818000D01*
X64422000Y-90976750D01*
X64418928Y-91141000D01*
X54750925Y-91141000D01*
X54781476Y-91083110D01*
X54736825Y-90935901D01*
X54611641Y-90673080D01*
X54437588Y-90439731D01*
X54221355Y-90244822D01*
X54104466Y-90175195D01*
X54286632Y-90053475D01*
X54493475Y-89846632D01*
X54655990Y-89603411D01*
X54767932Y-89333158D01*
X54825000Y-89046260D01*
X54825000Y-88916000D01*
X64418928Y-88916000D01*
X64418928Y-89366000D01*
X64435512Y-89534377D01*
X64484625Y-89696283D01*
X64562700Y-89842351D01*
X64526463Y-89886506D01*
X64467498Y-89996820D01*
X64431188Y-90116518D01*
X64418928Y-90241000D01*
X64422000Y-90405250D01*
X64580750Y-90564000D01*
X65405000Y-90564000D01*
X65405000Y-90544000D01*
X65659000Y-90544000D01*
X65659000Y-90564000D01*
X66483250Y-90564000D01*
X66642000Y-90405250D01*
X66645072Y-90241000D01*
X66632812Y-90116518D01*
X66596502Y-89996820D01*
X66537537Y-89886506D01*
X66501300Y-89842351D01*
X66579375Y-89696283D01*
X66628488Y-89534377D01*
X66645072Y-89366000D01*
X66645072Y-88916000D01*
X66628488Y-88747623D01*
X66579375Y-88585717D01*
X66499618Y-88436503D01*
X66392284Y-88305716D01*
X66261497Y-88198382D01*
X66112283Y-88118625D01*
X65950377Y-88069512D01*
X65782000Y-88052928D01*
X65282000Y-88052928D01*
X65113623Y-88069512D01*
X64951717Y-88118625D01*
X64802503Y-88198382D01*
X64671716Y-88305716D01*
X64564382Y-88436503D01*
X64484625Y-88585717D01*
X64435512Y-88747623D01*
X64418928Y-88916000D01*
X54825000Y-88916000D01*
X54825000Y-88753740D01*
X54767932Y-88466842D01*
X54655990Y-88196589D01*
X54493475Y-87953368D01*
X54286632Y-87746525D01*
X54112240Y-87630000D01*
X54286632Y-87513475D01*
X54493475Y-87306632D01*
X54655990Y-87063411D01*
X54767932Y-86793158D01*
X54825000Y-86506260D01*
X54825000Y-86213740D01*
X54767932Y-85926842D01*
X54655990Y-85656589D01*
X54493475Y-85413368D01*
X54286632Y-85206525D01*
X54112240Y-85090000D01*
X54286632Y-84973475D01*
X54493475Y-84766632D01*
X54655990Y-84523411D01*
X54767932Y-84253158D01*
X54825000Y-83966260D01*
X54825000Y-83673740D01*
X54781209Y-83453592D01*
X62105000Y-76129801D01*
X62105001Y-76448788D01*
X62061063Y-76492726D01*
X61947795Y-76662244D01*
X61869774Y-76850602D01*
X61830000Y-77050561D01*
X61830000Y-77254439D01*
X61869774Y-77454398D01*
X61947795Y-77642756D01*
X62061063Y-77812274D01*
X62205226Y-77956437D01*
X62374744Y-78069705D01*
X62563102Y-78147726D01*
X62763061Y-78187500D01*
X62966939Y-78187500D01*
X63166898Y-78147726D01*
X63355256Y-78069705D01*
X63524774Y-77956437D01*
X63668937Y-77812274D01*
X63782205Y-77642756D01*
X63860226Y-77454398D01*
X63900000Y-77254439D01*
X63900000Y-77050561D01*
X63860226Y-76850602D01*
X63782518Y-76663000D01*
X63881002Y-76663000D01*
X63881002Y-76504252D01*
X64039750Y-76663000D01*
X64229000Y-76666072D01*
X64353482Y-76653812D01*
X64473180Y-76617502D01*
X64583494Y-76558537D01*
X64680185Y-76479185D01*
X64759537Y-76382494D01*
X64818502Y-76272180D01*
X64854812Y-76152482D01*
X64867072Y-76028000D01*
X64864000Y-75863750D01*
X64705250Y-75705000D01*
X63881000Y-75705000D01*
X63881000Y-75725000D01*
X63627000Y-75725000D01*
X63627000Y-75705000D01*
X63625000Y-75705000D01*
X63625000Y-75528967D01*
X63722967Y-75431000D01*
X63881000Y-75431000D01*
X63881000Y-75451000D01*
X64705250Y-75451000D01*
X64864000Y-75292250D01*
X64867072Y-75128000D01*
X64854812Y-75003518D01*
X64818502Y-74883820D01*
X64759537Y-74773506D01*
X64723300Y-74729351D01*
X64801375Y-74583283D01*
X64850488Y-74421377D01*
X64867072Y-74253000D01*
X64867072Y-73989729D01*
X65468730Y-73388072D01*
X66311928Y-73388072D01*
X66311928Y-74825500D01*
%TA.AperFunction,Conductor*%
D20*
G36*
X66311928Y-74825500D02*
G01*
X66324188Y-74949982D01*
X66340001Y-75002110D01*
X66340000Y-84144178D01*
X66336324Y-84181500D01*
X66340000Y-84218822D01*
X66340000Y-84218832D01*
X66350997Y-84330485D01*
X66379709Y-84425136D01*
X66394454Y-84473746D01*
X66465026Y-84605776D01*
X66504871Y-84654326D01*
X66559999Y-84721501D01*
X66589003Y-84745304D01*
X66897689Y-85053990D01*
X66102332Y-85053990D01*
X66065010Y-85050314D01*
X66027687Y-85053990D01*
X66027677Y-85053990D01*
X65916024Y-85064987D01*
X65803224Y-85099204D01*
X65772763Y-85108444D01*
X65640733Y-85179016D01*
X65577107Y-85231233D01*
X65525009Y-85273989D01*
X65501211Y-85302988D01*
X65303270Y-85500928D01*
X65040000Y-85500928D01*
X64871623Y-85517512D01*
X64709717Y-85566625D01*
X64560503Y-85646382D01*
X64429716Y-85753716D01*
X64347415Y-85854000D01*
X60901711Y-85854000D01*
X60843774Y-85796063D01*
X60674256Y-85682795D01*
X60485898Y-85604774D01*
X60285939Y-85565000D01*
X60082061Y-85565000D01*
X59882102Y-85604774D01*
X59693744Y-85682795D01*
X59524226Y-85796063D01*
X59380063Y-85940226D01*
X59266795Y-86109744D01*
X59188774Y-86298102D01*
X59149000Y-86498061D01*
X59149000Y-86701939D01*
X59188774Y-86901898D01*
X59266795Y-87090256D01*
X59380063Y-87259774D01*
X59524226Y-87403937D01*
X59693744Y-87517205D01*
X59882102Y-87595226D01*
X60082061Y-87635000D01*
X60285939Y-87635000D01*
X60485898Y-87595226D01*
X60674256Y-87517205D01*
X60843774Y-87403937D01*
X60873711Y-87374000D01*
X64347415Y-87374000D01*
X64429716Y-87474284D01*
X64560503Y-87581618D01*
X64709717Y-87661375D01*
X64871623Y-87710488D01*
X65040000Y-87727072D01*
X65490000Y-87727072D01*
X65658377Y-87710488D01*
X65820283Y-87661375D01*
X65966351Y-87583300D01*
X66010506Y-87619537D01*
X66120820Y-87678502D01*
X66240518Y-87714812D01*
X66365000Y-87727072D01*
X66529250Y-87724000D01*
X66688000Y-87565250D01*
X66688000Y-86741000D01*
X66668000Y-86741000D01*
X66668000Y-86573990D01*
X66962000Y-86573990D01*
X66962000Y-86741000D01*
X66942000Y-86741000D01*
X66942000Y-87565250D01*
X67100750Y-87724000D01*
X67265000Y-87727072D01*
X67389482Y-87714812D01*
X67501994Y-87680682D01*
X67502500Y-87685822D01*
X67502500Y-87685832D01*
X67513497Y-87797485D01*
X67550282Y-87918752D01*
X67556954Y-87940746D01*
X67627526Y-88072776D01*
X67649259Y-88099257D01*
X67722499Y-88188501D01*
X67751503Y-88212304D01*
X72461362Y-92922164D01*
X72497150Y-93040142D01*
X72576329Y-93188275D01*
X72682885Y-93318115D01*
X72812725Y-93424671D01*
X72960858Y-93503850D01*
X73121592Y-93552608D01*
X73288750Y-93569072D01*
X73726250Y-93569072D01*
X73893408Y-93552608D01*
X74054142Y-93503850D01*
X74202275Y-93424671D01*
X74295000Y-93348574D01*
X74387725Y-93424671D01*
X74535858Y-93503850D01*
X74696592Y-93552608D01*
X74863750Y-93569072D01*
X75301250Y-93569072D01*
X75468408Y-93552608D01*
X75629142Y-93503850D01*
X75777275Y-93424671D01*
X75812909Y-93395428D01*
X75852392Y-93427831D01*
X75997284Y-93505278D01*
X76154500Y-93552969D01*
X76318000Y-93569072D01*
X76718000Y-93569072D01*
X76881500Y-93552969D01*
X77038716Y-93505278D01*
X77183608Y-93427831D01*
X77285590Y-93344137D01*
X77316815Y-93382185D01*
X77413506Y-93461537D01*
X77523820Y-93520502D01*
X77643518Y-93556812D01*
X77768000Y-93569072D01*
X77882250Y-93566000D01*
X78041000Y-93407250D01*
X78041000Y-92583000D01*
X78021000Y-92583000D01*
X78021000Y-92329000D01*
X78041000Y-92329000D01*
X78041000Y-91059000D01*
X78021000Y-91059000D01*
X78021000Y-90805000D01*
X78041000Y-90805000D01*
X78041000Y-90785000D01*
X78295000Y-90785000D01*
X78295000Y-90805000D01*
X78315000Y-90805000D01*
X78315000Y-91059000D01*
X78295000Y-91059000D01*
X78295000Y-92329000D01*
X78315000Y-92329000D01*
X78315000Y-92583000D01*
X78295000Y-92583000D01*
X78295000Y-93407250D01*
X78453750Y-93566000D01*
X78568000Y-93569072D01*
X78692482Y-93556812D01*
X78812180Y-93520502D01*
X78922494Y-93461537D01*
X79019185Y-93382185D01*
X79098537Y-93285494D01*
X79157502Y-93175180D01*
X79193812Y-93055482D01*
X79206072Y-92931000D01*
X79203000Y-92741750D01*
X79044252Y-92583002D01*
X79062200Y-92583002D01*
X80970205Y-94491008D01*
X80993999Y-94520001D01*
X81022992Y-94543795D01*
X81022996Y-94543799D01*
X81079293Y-94590000D01*
X54686383Y-94590000D01*
X54736825Y-94484099D01*
X54781476Y-94336890D01*
X54660155Y-94107000D01*
X53467000Y-94107000D01*
X53467000Y-94127000D01*
X53213000Y-94127000D01*
X53213000Y-94107000D01*
X53193000Y-94107000D01*
X53193000Y-93853000D01*
X53213000Y-93853000D01*
X53213000Y-91567000D01*
X53467000Y-91567000D01*
X53467000Y-93853000D01*
X54660155Y-93853000D01*
X54781476Y-93623110D01*
X54736825Y-93475901D01*
X54611641Y-93213080D01*
X54437588Y-92979731D01*
X54221355Y-92784822D01*
X54095745Y-92710000D01*
X54221355Y-92635178D01*
X54437588Y-92440269D01*
X54611641Y-92206920D01*
X54736825Y-91944099D01*
X54781476Y-91796890D01*
X54660155Y-91567000D01*
X53467000Y-91567000D01*
X53213000Y-91567000D01*
X53193000Y-91567000D01*
X53193000Y-91313000D01*
X53213000Y-91313000D01*
X53213000Y-91293000D01*
X53467000Y-91293000D01*
X53467000Y-91313000D01*
X54660155Y-91313000D01*
X54750925Y-91141000D01*
X64418928Y-91141000D01*
X64431188Y-91265482D01*
X64467498Y-91385180D01*
X64526463Y-91495494D01*
X64605815Y-91592185D01*
X64702506Y-91671537D01*
X64812820Y-91730502D01*
X64932518Y-91766812D01*
X65057000Y-91779072D01*
X65246250Y-91776000D01*
X65405000Y-91617250D01*
X65405000Y-90818000D01*
X65659000Y-90818000D01*
X65659000Y-91617250D01*
X65817750Y-91776000D01*
X66007000Y-91779072D01*
X66131482Y-91766812D01*
X66251180Y-91730502D01*
X66361494Y-91671537D01*
X66458185Y-91592185D01*
X66537537Y-91495494D01*
X66596502Y-91385180D01*
X66632812Y-91265482D01*
X66645072Y-91141000D01*
X66642000Y-90976750D01*
X66483250Y-90818000D01*
X65659000Y-90818000D01*
X65405000Y-90818000D01*
X64580750Y-90818000D01*
X64422000Y-90976750D01*
X64418928Y-91141000D01*
X54750925Y-91141000D01*
X54781476Y-91083110D01*
X54736825Y-90935901D01*
X54611641Y-90673080D01*
X54437588Y-90439731D01*
X54221355Y-90244822D01*
X54104466Y-90175195D01*
X54286632Y-90053475D01*
X54493475Y-89846632D01*
X54655990Y-89603411D01*
X54767932Y-89333158D01*
X54825000Y-89046260D01*
X54825000Y-88916000D01*
X64418928Y-88916000D01*
X64418928Y-89366000D01*
X64435512Y-89534377D01*
X64484625Y-89696283D01*
X64562700Y-89842351D01*
X64526463Y-89886506D01*
X64467498Y-89996820D01*
X64431188Y-90116518D01*
X64418928Y-90241000D01*
X64422000Y-90405250D01*
X64580750Y-90564000D01*
X65405000Y-90564000D01*
X65405000Y-90544000D01*
X65659000Y-90544000D01*
X65659000Y-90564000D01*
X66483250Y-90564000D01*
X66642000Y-90405250D01*
X66645072Y-90241000D01*
X66632812Y-90116518D01*
X66596502Y-89996820D01*
X66537537Y-89886506D01*
X66501300Y-89842351D01*
X66579375Y-89696283D01*
X66628488Y-89534377D01*
X66645072Y-89366000D01*
X66645072Y-88916000D01*
X66628488Y-88747623D01*
X66579375Y-88585717D01*
X66499618Y-88436503D01*
X66392284Y-88305716D01*
X66261497Y-88198382D01*
X66112283Y-88118625D01*
X65950377Y-88069512D01*
X65782000Y-88052928D01*
X65282000Y-88052928D01*
X65113623Y-88069512D01*
X64951717Y-88118625D01*
X64802503Y-88198382D01*
X64671716Y-88305716D01*
X64564382Y-88436503D01*
X64484625Y-88585717D01*
X64435512Y-88747623D01*
X64418928Y-88916000D01*
X54825000Y-88916000D01*
X54825000Y-88753740D01*
X54767932Y-88466842D01*
X54655990Y-88196589D01*
X54493475Y-87953368D01*
X54286632Y-87746525D01*
X54112240Y-87630000D01*
X54286632Y-87513475D01*
X54493475Y-87306632D01*
X54655990Y-87063411D01*
X54767932Y-86793158D01*
X54825000Y-86506260D01*
X54825000Y-86213740D01*
X54767932Y-85926842D01*
X54655990Y-85656589D01*
X54493475Y-85413368D01*
X54286632Y-85206525D01*
X54112240Y-85090000D01*
X54286632Y-84973475D01*
X54493475Y-84766632D01*
X54655990Y-84523411D01*
X54767932Y-84253158D01*
X54825000Y-83966260D01*
X54825000Y-83673740D01*
X54781209Y-83453592D01*
X62105000Y-76129801D01*
X62105001Y-76448788D01*
X62061063Y-76492726D01*
X61947795Y-76662244D01*
X61869774Y-76850602D01*
X61830000Y-77050561D01*
X61830000Y-77254439D01*
X61869774Y-77454398D01*
X61947795Y-77642756D01*
X62061063Y-77812274D01*
X62205226Y-77956437D01*
X62374744Y-78069705D01*
X62563102Y-78147726D01*
X62763061Y-78187500D01*
X62966939Y-78187500D01*
X63166898Y-78147726D01*
X63355256Y-78069705D01*
X63524774Y-77956437D01*
X63668937Y-77812274D01*
X63782205Y-77642756D01*
X63860226Y-77454398D01*
X63900000Y-77254439D01*
X63900000Y-77050561D01*
X63860226Y-76850602D01*
X63782518Y-76663000D01*
X63881002Y-76663000D01*
X63881002Y-76504252D01*
X64039750Y-76663000D01*
X64229000Y-76666072D01*
X64353482Y-76653812D01*
X64473180Y-76617502D01*
X64583494Y-76558537D01*
X64680185Y-76479185D01*
X64759537Y-76382494D01*
X64818502Y-76272180D01*
X64854812Y-76152482D01*
X64867072Y-76028000D01*
X64864000Y-75863750D01*
X64705250Y-75705000D01*
X63881000Y-75705000D01*
X63881000Y-75725000D01*
X63627000Y-75725000D01*
X63627000Y-75705000D01*
X63625000Y-75705000D01*
X63625000Y-75528967D01*
X63722967Y-75431000D01*
X63881000Y-75431000D01*
X63881000Y-75451000D01*
X64705250Y-75451000D01*
X64864000Y-75292250D01*
X64867072Y-75128000D01*
X64854812Y-75003518D01*
X64818502Y-74883820D01*
X64759537Y-74773506D01*
X64723300Y-74729351D01*
X64801375Y-74583283D01*
X64850488Y-74421377D01*
X64867072Y-74253000D01*
X64867072Y-73989729D01*
X65468730Y-73388072D01*
X66311928Y-73388072D01*
X66311928Y-74825500D01*
G37*
%TD.AperFunction*%
D19*
X75727928Y-75335500D02*
X75740188Y-75459982D01*
X75776498Y-75579680D01*
X75835463Y-75689994D01*
X75914815Y-75786685D01*
X76011506Y-75866037D01*
X76121820Y-75925002D01*
X76194380Y-75947013D01*
X76062525Y-76078868D01*
X75900010Y-76322089D01*
X75788068Y-76592342D01*
X75731000Y-76879240D01*
X75731000Y-77171760D01*
X75788068Y-77458658D01*
X75900010Y-77728911D01*
X76062525Y-77972132D01*
X76269368Y-78178975D01*
X76451534Y-78300695D01*
X76334645Y-78370322D01*
X76118412Y-78565231D01*
X75944359Y-78798580D01*
X75819175Y-79061401D01*
X75774524Y-79208610D01*
X75895845Y-79438500D01*
X77089000Y-79438500D01*
X77089000Y-79418500D01*
X77343000Y-79418500D01*
X77343000Y-79438500D01*
X79629000Y-79438500D01*
X79629000Y-79418500D01*
X79883000Y-79418500D01*
X79883000Y-79438500D01*
X79903000Y-79438500D01*
X79903000Y-79692500D01*
X79883000Y-79692500D01*
X79883000Y-79712500D01*
X79629000Y-79712500D01*
X79629000Y-79692500D01*
X77343000Y-79692500D01*
X77343000Y-79712500D01*
X77089000Y-79712500D01*
X77089000Y-79692500D01*
X75895845Y-79692500D01*
X75774524Y-79922390D01*
X75819175Y-80069599D01*
X75944359Y-80332420D01*
X76118412Y-80565769D01*
X76334645Y-80760678D01*
X76463612Y-80837500D01*
X72387301Y-80837500D01*
X72360000Y-80810199D01*
X72360000Y-77856500D01*
X72800928Y-77856500D01*
X72813188Y-77980982D01*
X72849498Y-78100680D01*
X72908463Y-78210994D01*
X72987815Y-78307685D01*
X73084506Y-78387037D01*
X73194820Y-78446002D01*
X73314518Y-78482312D01*
X73439000Y-78494572D01*
X73628250Y-78491500D01*
X73787000Y-78332750D01*
X73787000Y-77533500D01*
X74041000Y-77533500D01*
X74041000Y-78332750D01*
X74199750Y-78491500D01*
X74389000Y-78494572D01*
X74513482Y-78482312D01*
X74633180Y-78446002D01*
X74743494Y-78387037D01*
X74840185Y-78307685D01*
X74919537Y-78210994D01*
X74978502Y-78100680D01*
X75014812Y-77980982D01*
X75027072Y-77856500D01*
X75024000Y-77692250D01*
X74865250Y-77533500D01*
X74041000Y-77533500D01*
X73787000Y-77533500D01*
X72962750Y-77533500D01*
X72804000Y-77692250D01*
X72800928Y-77856500D01*
X72360000Y-77856500D01*
X72360000Y-76038302D01*
X72689205Y-76367508D01*
X72712999Y-76396501D01*
X72741992Y-76420295D01*
X72741996Y-76420299D01*
X72812685Y-76478311D01*
X72828724Y-76491474D01*
X72941419Y-76551711D01*
X72944700Y-76557851D01*
X72908463Y-76602006D01*
X72849498Y-76712320D01*
X72813188Y-76832018D01*
X72800928Y-76956500D01*
X72804000Y-77120750D01*
X72962750Y-77279500D01*
X73787000Y-77279500D01*
X73787000Y-77259500D01*
X74041000Y-77259500D01*
X74041000Y-77279500D01*
X74865250Y-77279500D01*
X75024000Y-77120750D01*
X75027072Y-76956500D01*
X75014812Y-76832018D01*
X74978502Y-76712320D01*
X74919537Y-76602006D01*
X74883300Y-76557851D01*
X74961375Y-76411783D01*
X75010488Y-76249877D01*
X75027072Y-76081500D01*
X75027072Y-75818229D01*
X75599802Y-75245500D01*
X75727928Y-75245500D01*
X75727928Y-75335500D01*
%TA.AperFunction,Conductor*%
D20*
G36*
X75727928Y-75335500D02*
G01*
X75740188Y-75459982D01*
X75776498Y-75579680D01*
X75835463Y-75689994D01*
X75914815Y-75786685D01*
X76011506Y-75866037D01*
X76121820Y-75925002D01*
X76194380Y-75947013D01*
X76062525Y-76078868D01*
X75900010Y-76322089D01*
X75788068Y-76592342D01*
X75731000Y-76879240D01*
X75731000Y-77171760D01*
X75788068Y-77458658D01*
X75900010Y-77728911D01*
X76062525Y-77972132D01*
X76269368Y-78178975D01*
X76451534Y-78300695D01*
X76334645Y-78370322D01*
X76118412Y-78565231D01*
X75944359Y-78798580D01*
X75819175Y-79061401D01*
X75774524Y-79208610D01*
X75895845Y-79438500D01*
X77089000Y-79438500D01*
X77089000Y-79418500D01*
X77343000Y-79418500D01*
X77343000Y-79438500D01*
X79629000Y-79438500D01*
X79629000Y-79418500D01*
X79883000Y-79418500D01*
X79883000Y-79438500D01*
X79903000Y-79438500D01*
X79903000Y-79692500D01*
X79883000Y-79692500D01*
X79883000Y-79712500D01*
X79629000Y-79712500D01*
X79629000Y-79692500D01*
X77343000Y-79692500D01*
X77343000Y-79712500D01*
X77089000Y-79712500D01*
X77089000Y-79692500D01*
X75895845Y-79692500D01*
X75774524Y-79922390D01*
X75819175Y-80069599D01*
X75944359Y-80332420D01*
X76118412Y-80565769D01*
X76334645Y-80760678D01*
X76463612Y-80837500D01*
X72387301Y-80837500D01*
X72360000Y-80810199D01*
X72360000Y-77856500D01*
X72800928Y-77856500D01*
X72813188Y-77980982D01*
X72849498Y-78100680D01*
X72908463Y-78210994D01*
X72987815Y-78307685D01*
X73084506Y-78387037D01*
X73194820Y-78446002D01*
X73314518Y-78482312D01*
X73439000Y-78494572D01*
X73628250Y-78491500D01*
X73787000Y-78332750D01*
X73787000Y-77533500D01*
X74041000Y-77533500D01*
X74041000Y-78332750D01*
X74199750Y-78491500D01*
X74389000Y-78494572D01*
X74513482Y-78482312D01*
X74633180Y-78446002D01*
X74743494Y-78387037D01*
X74840185Y-78307685D01*
X74919537Y-78210994D01*
X74978502Y-78100680D01*
X75014812Y-77980982D01*
X75027072Y-77856500D01*
X75024000Y-77692250D01*
X74865250Y-77533500D01*
X74041000Y-77533500D01*
X73787000Y-77533500D01*
X72962750Y-77533500D01*
X72804000Y-77692250D01*
X72800928Y-77856500D01*
X72360000Y-77856500D01*
X72360000Y-76038302D01*
X72689205Y-76367508D01*
X72712999Y-76396501D01*
X72741992Y-76420295D01*
X72741996Y-76420299D01*
X72812685Y-76478311D01*
X72828724Y-76491474D01*
X72941419Y-76551711D01*
X72944700Y-76557851D01*
X72908463Y-76602006D01*
X72849498Y-76712320D01*
X72813188Y-76832018D01*
X72800928Y-76956500D01*
X72804000Y-77120750D01*
X72962750Y-77279500D01*
X73787000Y-77279500D01*
X73787000Y-77259500D01*
X74041000Y-77259500D01*
X74041000Y-77279500D01*
X74865250Y-77279500D01*
X75024000Y-77120750D01*
X75027072Y-76956500D01*
X75014812Y-76832018D01*
X74978502Y-76712320D01*
X74919537Y-76602006D01*
X74883300Y-76557851D01*
X74961375Y-76411783D01*
X75010488Y-76249877D01*
X75027072Y-76081500D01*
X75027072Y-75818229D01*
X75599802Y-75245500D01*
X75727928Y-75245500D01*
X75727928Y-75335500D01*
G37*
%TD.AperFunction*%
D19*
X71445434Y-66987122D02*
X71465026Y-67023776D01*
X71536201Y-67110502D01*
X71560000Y-67139501D01*
X71588996Y-67163297D01*
X71611200Y-67185502D01*
X71635000Y-67214502D01*
X71750725Y-67309475D01*
X71882754Y-67380047D01*
X72026015Y-67423504D01*
X72137668Y-67434501D01*
X72137678Y-67434501D01*
X72175000Y-67438177D01*
X72212323Y-67434501D01*
X72731751Y-67434501D01*
X72747747Y-67450497D01*
X72760998Y-67494180D01*
X72817561Y-67600000D01*
X72760998Y-67705820D01*
X72747747Y-67749503D01*
X72715500Y-67781750D01*
X72722591Y-67846809D01*
X72712428Y-67950000D01*
X72712428Y-68250000D01*
X72722277Y-68350000D01*
X72712428Y-68450000D01*
X72712428Y-68750000D01*
X72722277Y-68850000D01*
X72712428Y-68950000D01*
X72712428Y-69250000D01*
X72722277Y-69350000D01*
X72712428Y-69450000D01*
X72712428Y-69750000D01*
X72722277Y-69850000D01*
X72712428Y-69950000D01*
X72712428Y-70250000D01*
X72722277Y-70350000D01*
X72712428Y-70450000D01*
X72712428Y-70750000D01*
X72722277Y-70850000D01*
X72712428Y-70950000D01*
X72712428Y-71250000D01*
X72722277Y-71350000D01*
X72712428Y-71450000D01*
X72712428Y-71750000D01*
X72722277Y-71850000D01*
X72712428Y-71950000D01*
X72712428Y-72250000D01*
X72722277Y-72350000D01*
X72712428Y-72450000D01*
X72712428Y-72712428D01*
X72450000Y-72712428D01*
X72346809Y-72722591D01*
X72281750Y-72715500D01*
X72249503Y-72747747D01*
X72205820Y-72760998D01*
X72100000Y-72817561D01*
X71994180Y-72760998D01*
X71950497Y-72747747D01*
X71918250Y-72715500D01*
X71853191Y-72722591D01*
X71750000Y-72712428D01*
X71450000Y-72712428D01*
X71350000Y-72722277D01*
X71250000Y-72712428D01*
X70950000Y-72712428D01*
X70850000Y-72722277D01*
X70750000Y-72712428D01*
X70450000Y-72712428D01*
X70350000Y-72722277D01*
X70250000Y-72712428D01*
X69950000Y-72712428D01*
X69850000Y-72722277D01*
X69750000Y-72712428D01*
X69450000Y-72712428D01*
X69350000Y-72722277D01*
X69250000Y-72712428D01*
X68950000Y-72712428D01*
X68850000Y-72722277D01*
X68750000Y-72712428D01*
X68450000Y-72712428D01*
X68350000Y-72722277D01*
X68250000Y-72712428D01*
X67950000Y-72712428D01*
X67850000Y-72722277D01*
X67750000Y-72712428D01*
X67450000Y-72712428D01*
X67350000Y-72722277D01*
X67250000Y-72712428D01*
X66987572Y-72712428D01*
X66987572Y-72450000D01*
X66977409Y-72346809D01*
X66984500Y-72281750D01*
X66952253Y-72249503D01*
X66939002Y-72205820D01*
X66882439Y-72100000D01*
X66939002Y-71994180D01*
X66952253Y-71950497D01*
X66984500Y-71918250D01*
X66977409Y-71853191D01*
X66987572Y-71750000D01*
X66987572Y-71450000D01*
X66977723Y-71350000D01*
X66987572Y-71250000D01*
X66987572Y-70950000D01*
X66977723Y-70850000D01*
X66987572Y-70750000D01*
X66987572Y-70450000D01*
X66977409Y-70346809D01*
X66984500Y-70281750D01*
X66952253Y-70249503D01*
X66939002Y-70205820D01*
X66882439Y-70100000D01*
X66939002Y-69994180D01*
X66952253Y-69950497D01*
X66984500Y-69918250D01*
X66977409Y-69853191D01*
X66987572Y-69750000D01*
X66987572Y-69450000D01*
X66977723Y-69350000D01*
X66987572Y-69250000D01*
X66987572Y-68950000D01*
X66977723Y-68850000D01*
X66987572Y-68750000D01*
X66987572Y-68450000D01*
X66977723Y-68350000D01*
X66987572Y-68250000D01*
X66987572Y-67950000D01*
X66977723Y-67850000D01*
X66987572Y-67750000D01*
X66987572Y-67450000D01*
X66977723Y-67350000D01*
X66987572Y-67250000D01*
X66987572Y-66987572D01*
X67250000Y-66987572D01*
X67350000Y-66977723D01*
X67450000Y-66987572D01*
X67454946Y-66987572D01*
X67454946Y-67093178D01*
X67494720Y-67293137D01*
X67572741Y-67481495D01*
X67686009Y-67651013D01*
X67830172Y-67795176D01*
X67999690Y-67908444D01*
X68188048Y-67986465D01*
X68388007Y-68026239D01*
X68591885Y-68026239D01*
X68791844Y-67986465D01*
X68980202Y-67908444D01*
X69149720Y-67795176D01*
X69171396Y-67773500D01*
X69307985Y-67864765D01*
X69496343Y-67942786D01*
X69696302Y-67982560D01*
X69900180Y-67982560D01*
X70100139Y-67942786D01*
X70288497Y-67864765D01*
X70458015Y-67751497D01*
X70602178Y-67607334D01*
X70715446Y-67437816D01*
X70793467Y-67249458D01*
X70833241Y-67049499D01*
X70833241Y-66979374D01*
X70850000Y-66977723D01*
X70950000Y-66987572D01*
X71250000Y-66987572D01*
X71350000Y-66977723D01*
X71445434Y-66987122D01*
%TA.AperFunction,Conductor*%
D20*
G36*
X71445434Y-66987122D02*
G01*
X71465026Y-67023776D01*
X71536201Y-67110502D01*
X71560000Y-67139501D01*
X71588996Y-67163297D01*
X71611200Y-67185502D01*
X71635000Y-67214502D01*
X71750725Y-67309475D01*
X71882754Y-67380047D01*
X72026015Y-67423504D01*
X72137668Y-67434501D01*
X72137678Y-67434501D01*
X72175000Y-67438177D01*
X72212323Y-67434501D01*
X72731751Y-67434501D01*
X72747747Y-67450497D01*
X72760998Y-67494180D01*
X72817561Y-67600000D01*
X72760998Y-67705820D01*
X72747747Y-67749503D01*
X72715500Y-67781750D01*
X72722591Y-67846809D01*
X72712428Y-67950000D01*
X72712428Y-68250000D01*
X72722277Y-68350000D01*
X72712428Y-68450000D01*
X72712428Y-68750000D01*
X72722277Y-68850000D01*
X72712428Y-68950000D01*
X72712428Y-69250000D01*
X72722277Y-69350000D01*
X72712428Y-69450000D01*
X72712428Y-69750000D01*
X72722277Y-69850000D01*
X72712428Y-69950000D01*
X72712428Y-70250000D01*
X72722277Y-70350000D01*
X72712428Y-70450000D01*
X72712428Y-70750000D01*
X72722277Y-70850000D01*
X72712428Y-70950000D01*
X72712428Y-71250000D01*
X72722277Y-71350000D01*
X72712428Y-71450000D01*
X72712428Y-71750000D01*
X72722277Y-71850000D01*
X72712428Y-71950000D01*
X72712428Y-72250000D01*
X72722277Y-72350000D01*
X72712428Y-72450000D01*
X72712428Y-72712428D01*
X72450000Y-72712428D01*
X72346809Y-72722591D01*
X72281750Y-72715500D01*
X72249503Y-72747747D01*
X72205820Y-72760998D01*
X72100000Y-72817561D01*
X71994180Y-72760998D01*
X71950497Y-72747747D01*
X71918250Y-72715500D01*
X71853191Y-72722591D01*
X71750000Y-72712428D01*
X71450000Y-72712428D01*
X71350000Y-72722277D01*
X71250000Y-72712428D01*
X70950000Y-72712428D01*
X70850000Y-72722277D01*
X70750000Y-72712428D01*
X70450000Y-72712428D01*
X70350000Y-72722277D01*
X70250000Y-72712428D01*
X69950000Y-72712428D01*
X69850000Y-72722277D01*
X69750000Y-72712428D01*
X69450000Y-72712428D01*
X69350000Y-72722277D01*
X69250000Y-72712428D01*
X68950000Y-72712428D01*
X68850000Y-72722277D01*
X68750000Y-72712428D01*
X68450000Y-72712428D01*
X68350000Y-72722277D01*
X68250000Y-72712428D01*
X67950000Y-72712428D01*
X67850000Y-72722277D01*
X67750000Y-72712428D01*
X67450000Y-72712428D01*
X67350000Y-72722277D01*
X67250000Y-72712428D01*
X66987572Y-72712428D01*
X66987572Y-72450000D01*
X66977409Y-72346809D01*
X66984500Y-72281750D01*
X66952253Y-72249503D01*
X66939002Y-72205820D01*
X66882439Y-72100000D01*
X66939002Y-71994180D01*
X66952253Y-71950497D01*
X66984500Y-71918250D01*
X66977409Y-71853191D01*
X66987572Y-71750000D01*
X66987572Y-71450000D01*
X66977723Y-71350000D01*
X66987572Y-71250000D01*
X66987572Y-70950000D01*
X66977723Y-70850000D01*
X66987572Y-70750000D01*
X66987572Y-70450000D01*
X66977409Y-70346809D01*
X66984500Y-70281750D01*
X66952253Y-70249503D01*
X66939002Y-70205820D01*
X66882439Y-70100000D01*
X66939002Y-69994180D01*
X66952253Y-69950497D01*
X66984500Y-69918250D01*
X66977409Y-69853191D01*
X66987572Y-69750000D01*
X66987572Y-69450000D01*
X66977723Y-69350000D01*
X66987572Y-69250000D01*
X66987572Y-68950000D01*
X66977723Y-68850000D01*
X66987572Y-68750000D01*
X66987572Y-68450000D01*
X66977723Y-68350000D01*
X66987572Y-68250000D01*
X66987572Y-67950000D01*
X66977723Y-67850000D01*
X66987572Y-67750000D01*
X66987572Y-67450000D01*
X66977723Y-67350000D01*
X66987572Y-67250000D01*
X66987572Y-66987572D01*
X67250000Y-66987572D01*
X67350000Y-66977723D01*
X67450000Y-66987572D01*
X67454946Y-66987572D01*
X67454946Y-67093178D01*
X67494720Y-67293137D01*
X67572741Y-67481495D01*
X67686009Y-67651013D01*
X67830172Y-67795176D01*
X67999690Y-67908444D01*
X68188048Y-67986465D01*
X68388007Y-68026239D01*
X68591885Y-68026239D01*
X68791844Y-67986465D01*
X68980202Y-67908444D01*
X69149720Y-67795176D01*
X69171396Y-67773500D01*
X69307985Y-67864765D01*
X69496343Y-67942786D01*
X69696302Y-67982560D01*
X69900180Y-67982560D01*
X70100139Y-67942786D01*
X70288497Y-67864765D01*
X70458015Y-67751497D01*
X70602178Y-67607334D01*
X70715446Y-67437816D01*
X70793467Y-67249458D01*
X70833241Y-67049499D01*
X70833241Y-66979374D01*
X70850000Y-66977723D01*
X70950000Y-66987572D01*
X71250000Y-66987572D01*
X71350000Y-66977723D01*
X71445434Y-66987122D01*
G37*
%TD.AperFunction*%
D19*
X84871928Y-46570000D02*
X84884188Y-46694482D01*
X84920498Y-46814180D01*
X84979463Y-46924494D01*
X85058815Y-47021185D01*
X85155506Y-47100537D01*
X85265820Y-47159502D01*
X85346466Y-47183966D01*
X85262412Y-47259731D01*
X85088359Y-47493080D01*
X84963175Y-47755901D01*
X84918524Y-47903110D01*
X85039845Y-48133000D01*
X86233000Y-48133000D01*
X86233000Y-48113000D01*
X86487000Y-48113000D01*
X86487000Y-48133000D01*
X86507000Y-48133000D01*
X86507000Y-48387000D01*
X86487000Y-48387000D01*
X86487000Y-48407000D01*
X86233000Y-48407000D01*
X86233000Y-48387000D01*
X85039845Y-48387000D01*
X84918524Y-48616890D01*
X84963175Y-48764099D01*
X85088359Y-49026920D01*
X85262412Y-49260269D01*
X85478645Y-49455178D01*
X85595534Y-49524805D01*
X85413368Y-49646525D01*
X85206525Y-49853368D01*
X85044010Y-50096589D01*
X84932068Y-50366842D01*
X84875000Y-50653740D01*
X84875000Y-50946260D01*
X84918790Y-51166407D01*
X81329478Y-54755721D01*
X81300480Y-54779519D01*
X81276682Y-54808517D01*
X81276681Y-54808518D01*
X81205506Y-54895244D01*
X81134934Y-55027274D01*
X81109750Y-55110299D01*
X81091478Y-55170534D01*
X81089093Y-55194750D01*
X81076804Y-55319520D01*
X81080481Y-55356852D01*
X81080480Y-62874552D01*
X78472938Y-65482094D01*
X78463537Y-65464506D01*
X78384185Y-65367815D01*
X78287494Y-65288463D01*
X78177180Y-65229498D01*
X78057482Y-65193188D01*
X77933000Y-65180928D01*
X77768750Y-65184000D01*
X77610000Y-65342750D01*
X77610000Y-66167000D01*
X77630000Y-66167000D01*
X77630000Y-66325033D01*
X77514033Y-66441000D01*
X77356000Y-66441000D01*
X77356000Y-66421000D01*
X77336000Y-66421000D01*
X77336000Y-66167000D01*
X77356000Y-66167000D01*
X77356000Y-65342750D01*
X77197250Y-65184000D01*
X77033000Y-65180928D01*
X76908518Y-65193188D01*
X76788820Y-65229498D01*
X76678506Y-65288463D01*
X76634351Y-65324700D01*
X76488283Y-65246625D01*
X76326377Y-65197512D01*
X76158000Y-65180928D01*
X75894730Y-65180928D01*
X75523499Y-64809698D01*
X75523499Y-63955302D01*
X76897730Y-62581072D01*
X77161000Y-62581072D01*
X77329377Y-62564488D01*
X77491283Y-62515375D01*
X77637351Y-62437300D01*
X77681506Y-62473537D01*
X77791820Y-62532502D01*
X77911518Y-62568812D01*
X78036000Y-62581072D01*
X78200250Y-62578000D01*
X78359000Y-62419250D01*
X78359000Y-61595000D01*
X78613000Y-61595000D01*
X78613000Y-62419250D01*
X78771750Y-62578000D01*
X78936000Y-62581072D01*
X79060482Y-62568812D01*
X79180180Y-62532502D01*
X79290494Y-62473537D01*
X79387185Y-62394185D01*
X79466537Y-62297494D01*
X79525502Y-62187180D01*
X79561812Y-62067482D01*
X79574072Y-61943000D01*
X79571000Y-61753750D01*
X79412250Y-61595000D01*
X78613000Y-61595000D01*
X78359000Y-61595000D01*
X78339000Y-61595000D01*
X78339000Y-61341000D01*
X78359000Y-61341000D01*
X78359000Y-60921250D01*
X78385000Y-60895250D01*
X78385000Y-60516750D01*
X78613000Y-60516750D01*
X78613000Y-61341000D01*
X79412250Y-61341000D01*
X79571000Y-61182250D01*
X79574072Y-60993000D01*
X79561812Y-60868518D01*
X79525502Y-60748820D01*
X79515614Y-60730321D01*
X79551502Y-60663180D01*
X79587812Y-60543482D01*
X79600072Y-60419000D01*
X79597000Y-60229750D01*
X79438250Y-60071000D01*
X78639000Y-60071000D01*
X78639000Y-60490750D01*
X78613000Y-60516750D01*
X78385000Y-60516750D01*
X78385000Y-60071000D01*
X78365000Y-60071000D01*
X78365000Y-59817000D01*
X78385000Y-59817000D01*
X78385000Y-58992750D01*
X78639000Y-58992750D01*
X78639000Y-59817000D01*
X79438250Y-59817000D01*
X79597000Y-59658250D01*
X79600072Y-59469000D01*
X79587812Y-59344518D01*
X79551502Y-59224820D01*
X79492537Y-59114506D01*
X79413185Y-59017815D01*
X79316494Y-58938463D01*
X79206180Y-58879498D01*
X79086482Y-58843188D01*
X78962000Y-58830928D01*
X78797750Y-58834000D01*
X78639000Y-58992750D01*
X78385000Y-58992750D01*
X78226250Y-58834000D01*
X78062000Y-58830928D01*
X77937518Y-58843188D01*
X77817820Y-58879498D01*
X77707506Y-58938463D01*
X77663351Y-58974700D01*
X77517283Y-58896625D01*
X77355377Y-58847512D01*
X77187000Y-58830928D01*
X76737000Y-58830928D01*
X76568623Y-58847512D01*
X76445458Y-58884873D01*
X76372756Y-58836295D01*
X76184398Y-58758274D01*
X75984439Y-58718500D01*
X75780561Y-58718500D01*
X75580602Y-58758274D01*
X75392244Y-58836295D01*
X75222726Y-58949563D01*
X75078563Y-59093726D01*
X74965295Y-59263244D01*
X74887274Y-59451602D01*
X74847500Y-59651561D01*
X74847500Y-59855439D01*
X74887274Y-60055398D01*
X74965295Y-60243756D01*
X75078563Y-60413274D01*
X75222726Y-60557437D01*
X75392244Y-60670705D01*
X75580602Y-60748726D01*
X75780561Y-60788500D01*
X75966658Y-60788500D01*
X75913625Y-60887717D01*
X75864512Y-61049623D01*
X75847928Y-61218000D01*
X75847928Y-61481270D01*
X74420165Y-62909033D01*
X74383520Y-62872388D01*
X74197624Y-62748176D01*
X73991067Y-62662617D01*
X73954941Y-62655431D01*
X73988537Y-62614494D01*
X74047502Y-62504180D01*
X74083812Y-62384482D01*
X74096072Y-62260000D01*
X74096072Y-59660000D01*
X74083812Y-59535518D01*
X74047502Y-59415820D01*
X73988537Y-59305506D01*
X73927328Y-59230922D01*
X74041000Y-59117250D01*
X74041000Y-58293000D01*
X74295000Y-58293000D01*
X74295000Y-59117250D01*
X74453750Y-59276000D01*
X74618000Y-59279072D01*
X74742482Y-59266812D01*
X74862180Y-59230502D01*
X74972494Y-59171537D01*
X75069185Y-59092185D01*
X75148537Y-58995494D01*
X75207502Y-58885180D01*
X75243812Y-58765482D01*
X75256072Y-58641000D01*
X75253000Y-58451750D01*
X75094250Y-58293000D01*
X74295000Y-58293000D01*
X74041000Y-58293000D01*
X74021000Y-58293000D01*
X74021000Y-58039000D01*
X74041000Y-58039000D01*
X74041000Y-57214750D01*
X74295000Y-57214750D01*
X74295000Y-58039000D01*
X75094250Y-58039000D01*
X75253000Y-57880250D01*
X75256072Y-57691000D01*
X75243812Y-57566518D01*
X75207502Y-57446820D01*
X75148537Y-57336506D01*
X75069185Y-57239815D01*
X74972494Y-57160463D01*
X74862180Y-57101498D01*
X74742482Y-57065188D01*
X74618000Y-57052928D01*
X74453750Y-57056000D01*
X74295000Y-57214750D01*
X74041000Y-57214750D01*
X73882250Y-57056000D01*
X73718000Y-57052928D01*
X73593518Y-57065188D01*
X73473820Y-57101498D01*
X73363506Y-57160463D01*
X73319351Y-57196700D01*
X73173283Y-57118625D01*
X73011377Y-57069512D01*
X72843000Y-57052928D01*
X72393000Y-57052928D01*
X72224623Y-57069512D01*
X72062717Y-57118625D01*
X71913503Y-57198382D01*
X71883622Y-57222905D01*
X71848608Y-57194169D01*
X71703716Y-57116722D01*
X71546500Y-57069031D01*
X71383000Y-57052928D01*
X70983000Y-57052928D01*
X70819500Y-57069031D01*
X70662284Y-57116722D01*
X70517392Y-57194169D01*
X70390394Y-57298394D01*
X70358000Y-57337866D01*
X70325606Y-57298394D01*
X70198608Y-57194169D01*
X70053716Y-57116722D01*
X69896500Y-57069031D01*
X69733000Y-57052928D01*
X69333000Y-57052928D01*
X69169500Y-57069031D01*
X69012284Y-57116722D01*
X68867392Y-57194169D01*
X68825878Y-57228239D01*
X68789497Y-57198382D01*
X68640283Y-57118625D01*
X68478377Y-57069512D01*
X68310000Y-57052928D01*
X67860000Y-57052928D01*
X67691623Y-57069512D01*
X67529717Y-57118625D01*
X67383649Y-57196700D01*
X67339494Y-57160463D01*
X67229180Y-57101498D01*
X67109482Y-57065188D01*
X66985000Y-57052928D01*
X66820750Y-57056000D01*
X66662000Y-57214750D01*
X66662000Y-58039000D01*
X66682000Y-58039000D01*
X66682000Y-58293000D01*
X66662000Y-58293000D01*
X66662000Y-59117250D01*
X66782812Y-59238062D01*
X66727463Y-59305506D01*
X66668498Y-59415820D01*
X66632188Y-59535518D01*
X66619928Y-59660000D01*
X66619928Y-61825001D01*
X66427143Y-61825001D01*
X65720413Y-61118272D01*
X65809799Y-61028886D01*
X65961371Y-60802043D01*
X66065775Y-60549989D01*
X66119000Y-60282411D01*
X66119000Y-60009589D01*
X66065775Y-59742011D01*
X65961371Y-59489957D01*
X65809799Y-59263114D01*
X65662004Y-59115319D01*
X65730506Y-59171537D01*
X65840820Y-59230502D01*
X65960518Y-59266812D01*
X66085000Y-59279072D01*
X66249250Y-59276000D01*
X66408000Y-59117250D01*
X66408000Y-58293000D01*
X65608750Y-58293000D01*
X65450000Y-58451750D01*
X65446928Y-58641000D01*
X65459188Y-58765482D01*
X65495498Y-58885180D01*
X65554463Y-58995494D01*
X65614422Y-59068555D01*
X65390043Y-58918629D01*
X65137989Y-58814225D01*
X64870411Y-58761000D01*
X64597589Y-58761000D01*
X64330011Y-58814225D01*
X64077957Y-58918629D01*
X63851114Y-59070201D01*
X63658201Y-59263114D01*
X63576091Y-59386000D01*
X61391909Y-59386000D01*
X61309799Y-59263114D01*
X61116886Y-59070201D01*
X60890043Y-58918629D01*
X60637989Y-58814225D01*
X60370411Y-58761000D01*
X60097589Y-58761000D01*
X59952635Y-58789833D01*
X59254270Y-58091469D01*
X59262488Y-58064377D01*
X59279072Y-57896000D01*
X59279072Y-57691000D01*
X65446928Y-57691000D01*
X65450000Y-57880250D01*
X65608750Y-58039000D01*
X66408000Y-58039000D01*
X66408000Y-57214750D01*
X66249250Y-57056000D01*
X66085000Y-57052928D01*
X65960518Y-57065188D01*
X65840820Y-57101498D01*
X65730506Y-57160463D01*
X65633815Y-57239815D01*
X65554463Y-57336506D01*
X65495498Y-57446820D01*
X65459188Y-57566518D01*
X65446928Y-57691000D01*
X59279072Y-57691000D01*
X59279072Y-57446000D01*
X59262488Y-57277623D01*
X59213375Y-57115717D01*
X59135300Y-56969649D01*
X59171537Y-56925494D01*
X59230502Y-56815180D01*
X59266812Y-56695482D01*
X59279072Y-56571000D01*
X59276000Y-56406750D01*
X59117250Y-56248000D01*
X58293000Y-56248000D01*
X58293000Y-56268000D01*
X58039000Y-56268000D01*
X58039000Y-56248000D01*
X58019000Y-56248000D01*
X58019000Y-55994000D01*
X58039000Y-55994000D01*
X58039000Y-55194750D01*
X58293000Y-55194750D01*
X58293000Y-55994000D01*
X59117250Y-55994000D01*
X59276000Y-55835250D01*
X59279072Y-55671000D01*
X59266812Y-55546518D01*
X59230502Y-55426820D01*
X59171537Y-55316506D01*
X59092185Y-55219815D01*
X58995494Y-55140463D01*
X58885180Y-55081498D01*
X58765482Y-55045188D01*
X58641000Y-55032928D01*
X58451750Y-55036000D01*
X58293000Y-55194750D01*
X58039000Y-55194750D01*
X57880250Y-55036000D01*
X57691000Y-55032928D01*
X57566518Y-55045188D01*
X57446820Y-55081498D01*
X57336506Y-55140463D01*
X57239815Y-55219815D01*
X57160463Y-55316506D01*
X57101498Y-55426820D01*
X57065188Y-55546518D01*
X57052928Y-55671000D01*
X57056000Y-55835250D01*
X57214748Y-55993998D01*
X57068800Y-55993998D01*
X55677795Y-54602993D01*
X59456612Y-54602993D01*
X59522137Y-54841860D01*
X59769116Y-54957760D01*
X60033960Y-55023250D01*
X60306492Y-55035812D01*
X60576238Y-54994965D01*
X60832832Y-54902277D01*
X60945863Y-54841860D01*
X61011388Y-54602993D01*
X63956612Y-54602993D01*
X64022137Y-54841860D01*
X64269116Y-54957760D01*
X64533960Y-55023250D01*
X64806492Y-55035812D01*
X65076238Y-54994965D01*
X65332832Y-54902277D01*
X65445863Y-54841860D01*
X65511388Y-54602993D01*
X65352956Y-54444561D01*
X73958500Y-54444561D01*
X73958500Y-54648439D01*
X73998274Y-54848398D01*
X74076295Y-55036756D01*
X74189563Y-55206274D01*
X74333726Y-55350437D01*
X74503244Y-55463705D01*
X74691602Y-55541726D01*
X74891561Y-55581500D01*
X75095439Y-55581500D01*
X75295398Y-55541726D01*
X75483756Y-55463705D01*
X75653274Y-55350437D01*
X75797437Y-55206274D01*
X75910705Y-55036756D01*
X75988726Y-54848398D01*
X76028500Y-54648439D01*
X76028500Y-54586302D01*
X76330002Y-54284799D01*
X76359001Y-54261001D01*
X76453974Y-54145276D01*
X76524546Y-54013247D01*
X76568003Y-53869986D01*
X76568634Y-53863577D01*
X76622937Y-53809274D01*
X76736205Y-53639756D01*
X76814226Y-53451398D01*
X76854000Y-53251439D01*
X76854000Y-53047561D01*
X76814226Y-52847602D01*
X76736205Y-52659244D01*
X76622937Y-52489726D01*
X76478774Y-52345563D01*
X76309256Y-52232295D01*
X76120898Y-52154274D01*
X75920939Y-52114500D01*
X75717061Y-52114500D01*
X75517102Y-52154274D01*
X75328744Y-52232295D01*
X75159226Y-52345563D01*
X75015063Y-52489726D01*
X74901795Y-52659244D01*
X74823774Y-52847602D01*
X74784000Y-53047561D01*
X74784000Y-53251439D01*
X74823774Y-53451398D01*
X74851934Y-53519382D01*
X74691602Y-53551274D01*
X74503244Y-53629295D01*
X74333726Y-53742563D01*
X74189563Y-53886726D01*
X74076295Y-54056244D01*
X73998274Y-54244602D01*
X73958500Y-54444561D01*
X65352956Y-54444561D01*
X64734000Y-53825605D01*
X63956612Y-54602993D01*
X61011388Y-54602993D01*
X60234000Y-53825605D01*
X59456612Y-54602993D01*
X55677795Y-54602993D01*
X54793294Y-53718492D01*
X58844188Y-53718492D01*
X58885035Y-53988238D01*
X58977723Y-54244832D01*
X59038140Y-54357863D01*
X59277007Y-54423388D01*
X60054395Y-53646000D01*
X60413605Y-53646000D01*
X61190993Y-54423388D01*
X61429860Y-54357863D01*
X61545760Y-54110884D01*
X61611250Y-53846040D01*
X61617129Y-53718492D01*
X63344188Y-53718492D01*
X63385035Y-53988238D01*
X63477723Y-54244832D01*
X63538140Y-54357863D01*
X63777007Y-54423388D01*
X64554395Y-53646000D01*
X64913605Y-53646000D01*
X65690993Y-54423388D01*
X65929860Y-54357863D01*
X66045760Y-54110884D01*
X66111250Y-53846040D01*
X66123812Y-53573508D01*
X66082965Y-53303762D01*
X65990277Y-53047168D01*
X65929860Y-52934137D01*
X65690993Y-52868612D01*
X64913605Y-53646000D01*
X64554395Y-53646000D01*
X63777007Y-52868612D01*
X63538140Y-52934137D01*
X63422240Y-53181116D01*
X63356750Y-53445960D01*
X63344188Y-53718492D01*
X61617129Y-53718492D01*
X61623812Y-53573508D01*
X61582965Y-53303762D01*
X61490277Y-53047168D01*
X61429860Y-52934137D01*
X61190993Y-52868612D01*
X60413605Y-53646000D01*
X60054395Y-53646000D01*
X59277007Y-52868612D01*
X59038140Y-52934137D01*
X58922240Y-53181116D01*
X58856750Y-53445960D01*
X58844188Y-53718492D01*
X54793294Y-53718492D01*
X54781209Y-53706408D01*
X54825000Y-53486260D01*
X54825000Y-53193740D01*
X54767932Y-52906842D01*
X54677703Y-52689007D01*
X59456612Y-52689007D01*
X60234000Y-53466395D01*
X61011388Y-52689007D01*
X63956612Y-52689007D01*
X64734000Y-53466395D01*
X65511388Y-52689007D01*
X65445863Y-52450140D01*
X65198884Y-52334240D01*
X64934040Y-52268750D01*
X64661508Y-52256188D01*
X64391762Y-52297035D01*
X64135168Y-52389723D01*
X64022137Y-52450140D01*
X63956612Y-52689007D01*
X61011388Y-52689007D01*
X60945863Y-52450140D01*
X60698884Y-52334240D01*
X60434040Y-52268750D01*
X60161508Y-52256188D01*
X59891762Y-52297035D01*
X59635168Y-52389723D01*
X59522137Y-52450140D01*
X59456612Y-52689007D01*
X54677703Y-52689007D01*
X54655990Y-52636589D01*
X54493475Y-52393368D01*
X54286632Y-52186525D01*
X54112240Y-52070000D01*
X54286632Y-51953475D01*
X54493475Y-51746632D01*
X54655990Y-51503411D01*
X54767932Y-51233158D01*
X54825000Y-50946260D01*
X54825000Y-50767000D01*
X61636928Y-50767000D01*
X61649188Y-50891482D01*
X61685498Y-51011180D01*
X61744463Y-51121494D01*
X61823815Y-51218185D01*
X61920506Y-51297537D01*
X62030820Y-51356502D01*
X62150518Y-51392812D01*
X62275000Y-51405072D01*
X62439250Y-51402000D01*
X62598000Y-51243250D01*
X62598000Y-50419000D01*
X61798750Y-50419000D01*
X61640000Y-50577750D01*
X61636928Y-50767000D01*
X54825000Y-50767000D01*
X54825000Y-50653740D01*
X54767932Y-50366842D01*
X54655990Y-50096589D01*
X54493475Y-49853368D01*
X54457107Y-49817000D01*
X61636928Y-49817000D01*
X61640000Y-50006250D01*
X61798750Y-50165000D01*
X62598000Y-50165000D01*
X62598000Y-49340750D01*
X62439250Y-49182000D01*
X62275000Y-49178928D01*
X62150518Y-49191188D01*
X62030820Y-49227498D01*
X61920506Y-49286463D01*
X61823815Y-49365815D01*
X61744463Y-49462506D01*
X61685498Y-49572820D01*
X61649188Y-49692518D01*
X61636928Y-49817000D01*
X54457107Y-49817000D01*
X54286632Y-49646525D01*
X54112240Y-49530000D01*
X54286632Y-49413475D01*
X54493475Y-49206632D01*
X54618178Y-49020000D01*
X62677199Y-49020000D01*
X62924974Y-49267776D01*
X62852000Y-49340750D01*
X62852000Y-50165000D01*
X62872000Y-50165000D01*
X62872000Y-50419000D01*
X62852000Y-50419000D01*
X62852000Y-51243250D01*
X63010750Y-51402000D01*
X63175000Y-51405072D01*
X63299482Y-51392812D01*
X63419180Y-51356502D01*
X63529494Y-51297537D01*
X63573649Y-51261300D01*
X63719717Y-51339375D01*
X63881623Y-51388488D01*
X64050000Y-51405072D01*
X64500000Y-51405072D01*
X64668377Y-51388488D01*
X64830283Y-51339375D01*
X64892723Y-51306000D01*
X65567928Y-51306000D01*
X65567928Y-51396000D01*
X65580188Y-51520482D01*
X65616498Y-51640180D01*
X65675463Y-51750494D01*
X65754815Y-51847185D01*
X65851506Y-51926537D01*
X65961820Y-51985502D01*
X66081518Y-52021812D01*
X66206000Y-52034072D01*
X67906000Y-52034072D01*
X68030482Y-52021812D01*
X68150180Y-51985502D01*
X68260494Y-51926537D01*
X68357185Y-51847185D01*
X68436537Y-51750494D01*
X68495502Y-51640180D01*
X68517513Y-51567620D01*
X68649368Y-51699475D01*
X68892589Y-51861990D01*
X69162842Y-51973932D01*
X69449740Y-52031000D01*
X69742260Y-52031000D01*
X70029158Y-51973932D01*
X70299411Y-51861990D01*
X70542632Y-51699475D01*
X70749475Y-51492632D01*
X70866000Y-51318240D01*
X70982525Y-51492632D01*
X71189368Y-51699475D01*
X71432589Y-51861990D01*
X71702842Y-51973932D01*
X71989740Y-52031000D01*
X72282260Y-52031000D01*
X72569158Y-51973932D01*
X72839411Y-51861990D01*
X73082632Y-51699475D01*
X73289475Y-51492632D01*
X73411195Y-51310466D01*
X73480822Y-51427355D01*
X73675731Y-51643588D01*
X73909080Y-51817641D01*
X74171901Y-51942825D01*
X74319110Y-51987476D01*
X74549000Y-51866155D01*
X74549000Y-50673000D01*
X74803000Y-50673000D01*
X74803000Y-51866155D01*
X75032890Y-51987476D01*
X75180099Y-51942825D01*
X75442920Y-51817641D01*
X75676269Y-51643588D01*
X75871178Y-51427355D01*
X76020157Y-51177252D01*
X76117481Y-50902891D01*
X75996814Y-50673000D01*
X74803000Y-50673000D01*
X74549000Y-50673000D01*
X74529000Y-50673000D01*
X74529000Y-50419000D01*
X74549000Y-50419000D01*
X74549000Y-49225845D01*
X74803000Y-49225845D01*
X74803000Y-50419000D01*
X75996814Y-50419000D01*
X76117481Y-50189109D01*
X76020157Y-49914748D01*
X75871178Y-49664645D01*
X75676269Y-49448412D01*
X75442920Y-49274359D01*
X75180099Y-49149175D01*
X75032890Y-49104524D01*
X74803000Y-49225845D01*
X74549000Y-49225845D01*
X74319110Y-49104524D01*
X74171901Y-49149175D01*
X73909080Y-49274359D01*
X73675731Y-49448412D01*
X73480822Y-49664645D01*
X73411195Y-49781534D01*
X73289475Y-49599368D01*
X73082632Y-49392525D01*
X72839411Y-49230010D01*
X72569158Y-49118068D01*
X72282260Y-49061000D01*
X71989740Y-49061000D01*
X71702842Y-49118068D01*
X71432589Y-49230010D01*
X71189368Y-49392525D01*
X70982525Y-49599368D01*
X70866000Y-49773760D01*
X70749475Y-49599368D01*
X70542632Y-49392525D01*
X70299411Y-49230010D01*
X70029158Y-49118068D01*
X69742260Y-49061000D01*
X69615801Y-49061000D01*
X72196802Y-46480000D01*
X84871928Y-46480000D01*
X84871928Y-46570000D01*
%TA.AperFunction,Conductor*%
D20*
G36*
X84871928Y-46570000D02*
G01*
X84884188Y-46694482D01*
X84920498Y-46814180D01*
X84979463Y-46924494D01*
X85058815Y-47021185D01*
X85155506Y-47100537D01*
X85265820Y-47159502D01*
X85346466Y-47183966D01*
X85262412Y-47259731D01*
X85088359Y-47493080D01*
X84963175Y-47755901D01*
X84918524Y-47903110D01*
X85039845Y-48133000D01*
X86233000Y-48133000D01*
X86233000Y-48113000D01*
X86487000Y-48113000D01*
X86487000Y-48133000D01*
X86507000Y-48133000D01*
X86507000Y-48387000D01*
X86487000Y-48387000D01*
X86487000Y-48407000D01*
X86233000Y-48407000D01*
X86233000Y-48387000D01*
X85039845Y-48387000D01*
X84918524Y-48616890D01*
X84963175Y-48764099D01*
X85088359Y-49026920D01*
X85262412Y-49260269D01*
X85478645Y-49455178D01*
X85595534Y-49524805D01*
X85413368Y-49646525D01*
X85206525Y-49853368D01*
X85044010Y-50096589D01*
X84932068Y-50366842D01*
X84875000Y-50653740D01*
X84875000Y-50946260D01*
X84918790Y-51166407D01*
X81329478Y-54755721D01*
X81300480Y-54779519D01*
X81276682Y-54808517D01*
X81276681Y-54808518D01*
X81205506Y-54895244D01*
X81134934Y-55027274D01*
X81109750Y-55110299D01*
X81091478Y-55170534D01*
X81089093Y-55194750D01*
X81076804Y-55319520D01*
X81080481Y-55356852D01*
X81080480Y-62874552D01*
X78472938Y-65482094D01*
X78463537Y-65464506D01*
X78384185Y-65367815D01*
X78287494Y-65288463D01*
X78177180Y-65229498D01*
X78057482Y-65193188D01*
X77933000Y-65180928D01*
X77768750Y-65184000D01*
X77610000Y-65342750D01*
X77610000Y-66167000D01*
X77630000Y-66167000D01*
X77630000Y-66325033D01*
X77514033Y-66441000D01*
X77356000Y-66441000D01*
X77356000Y-66421000D01*
X77336000Y-66421000D01*
X77336000Y-66167000D01*
X77356000Y-66167000D01*
X77356000Y-65342750D01*
X77197250Y-65184000D01*
X77033000Y-65180928D01*
X76908518Y-65193188D01*
X76788820Y-65229498D01*
X76678506Y-65288463D01*
X76634351Y-65324700D01*
X76488283Y-65246625D01*
X76326377Y-65197512D01*
X76158000Y-65180928D01*
X75894730Y-65180928D01*
X75523499Y-64809698D01*
X75523499Y-63955302D01*
X76897730Y-62581072D01*
X77161000Y-62581072D01*
X77329377Y-62564488D01*
X77491283Y-62515375D01*
X77637351Y-62437300D01*
X77681506Y-62473537D01*
X77791820Y-62532502D01*
X77911518Y-62568812D01*
X78036000Y-62581072D01*
X78200250Y-62578000D01*
X78359000Y-62419250D01*
X78359000Y-61595000D01*
X78613000Y-61595000D01*
X78613000Y-62419250D01*
X78771750Y-62578000D01*
X78936000Y-62581072D01*
X79060482Y-62568812D01*
X79180180Y-62532502D01*
X79290494Y-62473537D01*
X79387185Y-62394185D01*
X79466537Y-62297494D01*
X79525502Y-62187180D01*
X79561812Y-62067482D01*
X79574072Y-61943000D01*
X79571000Y-61753750D01*
X79412250Y-61595000D01*
X78613000Y-61595000D01*
X78359000Y-61595000D01*
X78339000Y-61595000D01*
X78339000Y-61341000D01*
X78359000Y-61341000D01*
X78359000Y-60921250D01*
X78385000Y-60895250D01*
X78385000Y-60516750D01*
X78613000Y-60516750D01*
X78613000Y-61341000D01*
X79412250Y-61341000D01*
X79571000Y-61182250D01*
X79574072Y-60993000D01*
X79561812Y-60868518D01*
X79525502Y-60748820D01*
X79515614Y-60730321D01*
X79551502Y-60663180D01*
X79587812Y-60543482D01*
X79600072Y-60419000D01*
X79597000Y-60229750D01*
X79438250Y-60071000D01*
X78639000Y-60071000D01*
X78639000Y-60490750D01*
X78613000Y-60516750D01*
X78385000Y-60516750D01*
X78385000Y-60071000D01*
X78365000Y-60071000D01*
X78365000Y-59817000D01*
X78385000Y-59817000D01*
X78385000Y-58992750D01*
X78639000Y-58992750D01*
X78639000Y-59817000D01*
X79438250Y-59817000D01*
X79597000Y-59658250D01*
X79600072Y-59469000D01*
X79587812Y-59344518D01*
X79551502Y-59224820D01*
X79492537Y-59114506D01*
X79413185Y-59017815D01*
X79316494Y-58938463D01*
X79206180Y-58879498D01*
X79086482Y-58843188D01*
X78962000Y-58830928D01*
X78797750Y-58834000D01*
X78639000Y-58992750D01*
X78385000Y-58992750D01*
X78226250Y-58834000D01*
X78062000Y-58830928D01*
X77937518Y-58843188D01*
X77817820Y-58879498D01*
X77707506Y-58938463D01*
X77663351Y-58974700D01*
X77517283Y-58896625D01*
X77355377Y-58847512D01*
X77187000Y-58830928D01*
X76737000Y-58830928D01*
X76568623Y-58847512D01*
X76445458Y-58884873D01*
X76372756Y-58836295D01*
X76184398Y-58758274D01*
X75984439Y-58718500D01*
X75780561Y-58718500D01*
X75580602Y-58758274D01*
X75392244Y-58836295D01*
X75222726Y-58949563D01*
X75078563Y-59093726D01*
X74965295Y-59263244D01*
X74887274Y-59451602D01*
X74847500Y-59651561D01*
X74847500Y-59855439D01*
X74887274Y-60055398D01*
X74965295Y-60243756D01*
X75078563Y-60413274D01*
X75222726Y-60557437D01*
X75392244Y-60670705D01*
X75580602Y-60748726D01*
X75780561Y-60788500D01*
X75966658Y-60788500D01*
X75913625Y-60887717D01*
X75864512Y-61049623D01*
X75847928Y-61218000D01*
X75847928Y-61481270D01*
X74420165Y-62909033D01*
X74383520Y-62872388D01*
X74197624Y-62748176D01*
X73991067Y-62662617D01*
X73954941Y-62655431D01*
X73988537Y-62614494D01*
X74047502Y-62504180D01*
X74083812Y-62384482D01*
X74096072Y-62260000D01*
X74096072Y-59660000D01*
X74083812Y-59535518D01*
X74047502Y-59415820D01*
X73988537Y-59305506D01*
X73927328Y-59230922D01*
X74041000Y-59117250D01*
X74041000Y-58293000D01*
X74295000Y-58293000D01*
X74295000Y-59117250D01*
X74453750Y-59276000D01*
X74618000Y-59279072D01*
X74742482Y-59266812D01*
X74862180Y-59230502D01*
X74972494Y-59171537D01*
X75069185Y-59092185D01*
X75148537Y-58995494D01*
X75207502Y-58885180D01*
X75243812Y-58765482D01*
X75256072Y-58641000D01*
X75253000Y-58451750D01*
X75094250Y-58293000D01*
X74295000Y-58293000D01*
X74041000Y-58293000D01*
X74021000Y-58293000D01*
X74021000Y-58039000D01*
X74041000Y-58039000D01*
X74041000Y-57214750D01*
X74295000Y-57214750D01*
X74295000Y-58039000D01*
X75094250Y-58039000D01*
X75253000Y-57880250D01*
X75256072Y-57691000D01*
X75243812Y-57566518D01*
X75207502Y-57446820D01*
X75148537Y-57336506D01*
X75069185Y-57239815D01*
X74972494Y-57160463D01*
X74862180Y-57101498D01*
X74742482Y-57065188D01*
X74618000Y-57052928D01*
X74453750Y-57056000D01*
X74295000Y-57214750D01*
X74041000Y-57214750D01*
X73882250Y-57056000D01*
X73718000Y-57052928D01*
X73593518Y-57065188D01*
X73473820Y-57101498D01*
X73363506Y-57160463D01*
X73319351Y-57196700D01*
X73173283Y-57118625D01*
X73011377Y-57069512D01*
X72843000Y-57052928D01*
X72393000Y-57052928D01*
X72224623Y-57069512D01*
X72062717Y-57118625D01*
X71913503Y-57198382D01*
X71883622Y-57222905D01*
X71848608Y-57194169D01*
X71703716Y-57116722D01*
X71546500Y-57069031D01*
X71383000Y-57052928D01*
X70983000Y-57052928D01*
X70819500Y-57069031D01*
X70662284Y-57116722D01*
X70517392Y-57194169D01*
X70390394Y-57298394D01*
X70358000Y-57337866D01*
X70325606Y-57298394D01*
X70198608Y-57194169D01*
X70053716Y-57116722D01*
X69896500Y-57069031D01*
X69733000Y-57052928D01*
X69333000Y-57052928D01*
X69169500Y-57069031D01*
X69012284Y-57116722D01*
X68867392Y-57194169D01*
X68825878Y-57228239D01*
X68789497Y-57198382D01*
X68640283Y-57118625D01*
X68478377Y-57069512D01*
X68310000Y-57052928D01*
X67860000Y-57052928D01*
X67691623Y-57069512D01*
X67529717Y-57118625D01*
X67383649Y-57196700D01*
X67339494Y-57160463D01*
X67229180Y-57101498D01*
X67109482Y-57065188D01*
X66985000Y-57052928D01*
X66820750Y-57056000D01*
X66662000Y-57214750D01*
X66662000Y-58039000D01*
X66682000Y-58039000D01*
X66682000Y-58293000D01*
X66662000Y-58293000D01*
X66662000Y-59117250D01*
X66782812Y-59238062D01*
X66727463Y-59305506D01*
X66668498Y-59415820D01*
X66632188Y-59535518D01*
X66619928Y-59660000D01*
X66619928Y-61825001D01*
X66427143Y-61825001D01*
X65720413Y-61118272D01*
X65809799Y-61028886D01*
X65961371Y-60802043D01*
X66065775Y-60549989D01*
X66119000Y-60282411D01*
X66119000Y-60009589D01*
X66065775Y-59742011D01*
X65961371Y-59489957D01*
X65809799Y-59263114D01*
X65662004Y-59115319D01*
X65730506Y-59171537D01*
X65840820Y-59230502D01*
X65960518Y-59266812D01*
X66085000Y-59279072D01*
X66249250Y-59276000D01*
X66408000Y-59117250D01*
X66408000Y-58293000D01*
X65608750Y-58293000D01*
X65450000Y-58451750D01*
X65446928Y-58641000D01*
X65459188Y-58765482D01*
X65495498Y-58885180D01*
X65554463Y-58995494D01*
X65614422Y-59068555D01*
X65390043Y-58918629D01*
X65137989Y-58814225D01*
X64870411Y-58761000D01*
X64597589Y-58761000D01*
X64330011Y-58814225D01*
X64077957Y-58918629D01*
X63851114Y-59070201D01*
X63658201Y-59263114D01*
X63576091Y-59386000D01*
X61391909Y-59386000D01*
X61309799Y-59263114D01*
X61116886Y-59070201D01*
X60890043Y-58918629D01*
X60637989Y-58814225D01*
X60370411Y-58761000D01*
X60097589Y-58761000D01*
X59952635Y-58789833D01*
X59254270Y-58091469D01*
X59262488Y-58064377D01*
X59279072Y-57896000D01*
X59279072Y-57691000D01*
X65446928Y-57691000D01*
X65450000Y-57880250D01*
X65608750Y-58039000D01*
X66408000Y-58039000D01*
X66408000Y-57214750D01*
X66249250Y-57056000D01*
X66085000Y-57052928D01*
X65960518Y-57065188D01*
X65840820Y-57101498D01*
X65730506Y-57160463D01*
X65633815Y-57239815D01*
X65554463Y-57336506D01*
X65495498Y-57446820D01*
X65459188Y-57566518D01*
X65446928Y-57691000D01*
X59279072Y-57691000D01*
X59279072Y-57446000D01*
X59262488Y-57277623D01*
X59213375Y-57115717D01*
X59135300Y-56969649D01*
X59171537Y-56925494D01*
X59230502Y-56815180D01*
X59266812Y-56695482D01*
X59279072Y-56571000D01*
X59276000Y-56406750D01*
X59117250Y-56248000D01*
X58293000Y-56248000D01*
X58293000Y-56268000D01*
X58039000Y-56268000D01*
X58039000Y-56248000D01*
X58019000Y-56248000D01*
X58019000Y-55994000D01*
X58039000Y-55994000D01*
X58039000Y-55194750D01*
X58293000Y-55194750D01*
X58293000Y-55994000D01*
X59117250Y-55994000D01*
X59276000Y-55835250D01*
X59279072Y-55671000D01*
X59266812Y-55546518D01*
X59230502Y-55426820D01*
X59171537Y-55316506D01*
X59092185Y-55219815D01*
X58995494Y-55140463D01*
X58885180Y-55081498D01*
X58765482Y-55045188D01*
X58641000Y-55032928D01*
X58451750Y-55036000D01*
X58293000Y-55194750D01*
X58039000Y-55194750D01*
X57880250Y-55036000D01*
X57691000Y-55032928D01*
X57566518Y-55045188D01*
X57446820Y-55081498D01*
X57336506Y-55140463D01*
X57239815Y-55219815D01*
X57160463Y-55316506D01*
X57101498Y-55426820D01*
X57065188Y-55546518D01*
X57052928Y-55671000D01*
X57056000Y-55835250D01*
X57214748Y-55993998D01*
X57068800Y-55993998D01*
X55677795Y-54602993D01*
X59456612Y-54602993D01*
X59522137Y-54841860D01*
X59769116Y-54957760D01*
X60033960Y-55023250D01*
X60306492Y-55035812D01*
X60576238Y-54994965D01*
X60832832Y-54902277D01*
X60945863Y-54841860D01*
X61011388Y-54602993D01*
X63956612Y-54602993D01*
X64022137Y-54841860D01*
X64269116Y-54957760D01*
X64533960Y-55023250D01*
X64806492Y-55035812D01*
X65076238Y-54994965D01*
X65332832Y-54902277D01*
X65445863Y-54841860D01*
X65511388Y-54602993D01*
X65352956Y-54444561D01*
X73958500Y-54444561D01*
X73958500Y-54648439D01*
X73998274Y-54848398D01*
X74076295Y-55036756D01*
X74189563Y-55206274D01*
X74333726Y-55350437D01*
X74503244Y-55463705D01*
X74691602Y-55541726D01*
X74891561Y-55581500D01*
X75095439Y-55581500D01*
X75295398Y-55541726D01*
X75483756Y-55463705D01*
X75653274Y-55350437D01*
X75797437Y-55206274D01*
X75910705Y-55036756D01*
X75988726Y-54848398D01*
X76028500Y-54648439D01*
X76028500Y-54586302D01*
X76330002Y-54284799D01*
X76359001Y-54261001D01*
X76453974Y-54145276D01*
X76524546Y-54013247D01*
X76568003Y-53869986D01*
X76568634Y-53863577D01*
X76622937Y-53809274D01*
X76736205Y-53639756D01*
X76814226Y-53451398D01*
X76854000Y-53251439D01*
X76854000Y-53047561D01*
X76814226Y-52847602D01*
X76736205Y-52659244D01*
X76622937Y-52489726D01*
X76478774Y-52345563D01*
X76309256Y-52232295D01*
X76120898Y-52154274D01*
X75920939Y-52114500D01*
X75717061Y-52114500D01*
X75517102Y-52154274D01*
X75328744Y-52232295D01*
X75159226Y-52345563D01*
X75015063Y-52489726D01*
X74901795Y-52659244D01*
X74823774Y-52847602D01*
X74784000Y-53047561D01*
X74784000Y-53251439D01*
X74823774Y-53451398D01*
X74851934Y-53519382D01*
X74691602Y-53551274D01*
X74503244Y-53629295D01*
X74333726Y-53742563D01*
X74189563Y-53886726D01*
X74076295Y-54056244D01*
X73998274Y-54244602D01*
X73958500Y-54444561D01*
X65352956Y-54444561D01*
X64734000Y-53825605D01*
X63956612Y-54602993D01*
X61011388Y-54602993D01*
X60234000Y-53825605D01*
X59456612Y-54602993D01*
X55677795Y-54602993D01*
X54793294Y-53718492D01*
X58844188Y-53718492D01*
X58885035Y-53988238D01*
X58977723Y-54244832D01*
X59038140Y-54357863D01*
X59277007Y-54423388D01*
X60054395Y-53646000D01*
X60413605Y-53646000D01*
X61190993Y-54423388D01*
X61429860Y-54357863D01*
X61545760Y-54110884D01*
X61611250Y-53846040D01*
X61617129Y-53718492D01*
X63344188Y-53718492D01*
X63385035Y-53988238D01*
X63477723Y-54244832D01*
X63538140Y-54357863D01*
X63777007Y-54423388D01*
X64554395Y-53646000D01*
X64913605Y-53646000D01*
X65690993Y-54423388D01*
X65929860Y-54357863D01*
X66045760Y-54110884D01*
X66111250Y-53846040D01*
X66123812Y-53573508D01*
X66082965Y-53303762D01*
X65990277Y-53047168D01*
X65929860Y-52934137D01*
X65690993Y-52868612D01*
X64913605Y-53646000D01*
X64554395Y-53646000D01*
X63777007Y-52868612D01*
X63538140Y-52934137D01*
X63422240Y-53181116D01*
X63356750Y-53445960D01*
X63344188Y-53718492D01*
X61617129Y-53718492D01*
X61623812Y-53573508D01*
X61582965Y-53303762D01*
X61490277Y-53047168D01*
X61429860Y-52934137D01*
X61190993Y-52868612D01*
X60413605Y-53646000D01*
X60054395Y-53646000D01*
X59277007Y-52868612D01*
X59038140Y-52934137D01*
X58922240Y-53181116D01*
X58856750Y-53445960D01*
X58844188Y-53718492D01*
X54793294Y-53718492D01*
X54781209Y-53706408D01*
X54825000Y-53486260D01*
X54825000Y-53193740D01*
X54767932Y-52906842D01*
X54677703Y-52689007D01*
X59456612Y-52689007D01*
X60234000Y-53466395D01*
X61011388Y-52689007D01*
X63956612Y-52689007D01*
X64734000Y-53466395D01*
X65511388Y-52689007D01*
X65445863Y-52450140D01*
X65198884Y-52334240D01*
X64934040Y-52268750D01*
X64661508Y-52256188D01*
X64391762Y-52297035D01*
X64135168Y-52389723D01*
X64022137Y-52450140D01*
X63956612Y-52689007D01*
X61011388Y-52689007D01*
X60945863Y-52450140D01*
X60698884Y-52334240D01*
X60434040Y-52268750D01*
X60161508Y-52256188D01*
X59891762Y-52297035D01*
X59635168Y-52389723D01*
X59522137Y-52450140D01*
X59456612Y-52689007D01*
X54677703Y-52689007D01*
X54655990Y-52636589D01*
X54493475Y-52393368D01*
X54286632Y-52186525D01*
X54112240Y-52070000D01*
X54286632Y-51953475D01*
X54493475Y-51746632D01*
X54655990Y-51503411D01*
X54767932Y-51233158D01*
X54825000Y-50946260D01*
X54825000Y-50767000D01*
X61636928Y-50767000D01*
X61649188Y-50891482D01*
X61685498Y-51011180D01*
X61744463Y-51121494D01*
X61823815Y-51218185D01*
X61920506Y-51297537D01*
X62030820Y-51356502D01*
X62150518Y-51392812D01*
X62275000Y-51405072D01*
X62439250Y-51402000D01*
X62598000Y-51243250D01*
X62598000Y-50419000D01*
X61798750Y-50419000D01*
X61640000Y-50577750D01*
X61636928Y-50767000D01*
X54825000Y-50767000D01*
X54825000Y-50653740D01*
X54767932Y-50366842D01*
X54655990Y-50096589D01*
X54493475Y-49853368D01*
X54457107Y-49817000D01*
X61636928Y-49817000D01*
X61640000Y-50006250D01*
X61798750Y-50165000D01*
X62598000Y-50165000D01*
X62598000Y-49340750D01*
X62439250Y-49182000D01*
X62275000Y-49178928D01*
X62150518Y-49191188D01*
X62030820Y-49227498D01*
X61920506Y-49286463D01*
X61823815Y-49365815D01*
X61744463Y-49462506D01*
X61685498Y-49572820D01*
X61649188Y-49692518D01*
X61636928Y-49817000D01*
X54457107Y-49817000D01*
X54286632Y-49646525D01*
X54112240Y-49530000D01*
X54286632Y-49413475D01*
X54493475Y-49206632D01*
X54618178Y-49020000D01*
X62677199Y-49020000D01*
X62924974Y-49267776D01*
X62852000Y-49340750D01*
X62852000Y-50165000D01*
X62872000Y-50165000D01*
X62872000Y-50419000D01*
X62852000Y-50419000D01*
X62852000Y-51243250D01*
X63010750Y-51402000D01*
X63175000Y-51405072D01*
X63299482Y-51392812D01*
X63419180Y-51356502D01*
X63529494Y-51297537D01*
X63573649Y-51261300D01*
X63719717Y-51339375D01*
X63881623Y-51388488D01*
X64050000Y-51405072D01*
X64500000Y-51405072D01*
X64668377Y-51388488D01*
X64830283Y-51339375D01*
X64892723Y-51306000D01*
X65567928Y-51306000D01*
X65567928Y-51396000D01*
X65580188Y-51520482D01*
X65616498Y-51640180D01*
X65675463Y-51750494D01*
X65754815Y-51847185D01*
X65851506Y-51926537D01*
X65961820Y-51985502D01*
X66081518Y-52021812D01*
X66206000Y-52034072D01*
X67906000Y-52034072D01*
X68030482Y-52021812D01*
X68150180Y-51985502D01*
X68260494Y-51926537D01*
X68357185Y-51847185D01*
X68436537Y-51750494D01*
X68495502Y-51640180D01*
X68517513Y-51567620D01*
X68649368Y-51699475D01*
X68892589Y-51861990D01*
X69162842Y-51973932D01*
X69449740Y-52031000D01*
X69742260Y-52031000D01*
X70029158Y-51973932D01*
X70299411Y-51861990D01*
X70542632Y-51699475D01*
X70749475Y-51492632D01*
X70866000Y-51318240D01*
X70982525Y-51492632D01*
X71189368Y-51699475D01*
X71432589Y-51861990D01*
X71702842Y-51973932D01*
X71989740Y-52031000D01*
X72282260Y-52031000D01*
X72569158Y-51973932D01*
X72839411Y-51861990D01*
X73082632Y-51699475D01*
X73289475Y-51492632D01*
X73411195Y-51310466D01*
X73480822Y-51427355D01*
X73675731Y-51643588D01*
X73909080Y-51817641D01*
X74171901Y-51942825D01*
X74319110Y-51987476D01*
X74549000Y-51866155D01*
X74549000Y-50673000D01*
X74803000Y-50673000D01*
X74803000Y-51866155D01*
X75032890Y-51987476D01*
X75180099Y-51942825D01*
X75442920Y-51817641D01*
X75676269Y-51643588D01*
X75871178Y-51427355D01*
X76020157Y-51177252D01*
X76117481Y-50902891D01*
X75996814Y-50673000D01*
X74803000Y-50673000D01*
X74549000Y-50673000D01*
X74529000Y-50673000D01*
X74529000Y-50419000D01*
X74549000Y-50419000D01*
X74549000Y-49225845D01*
X74803000Y-49225845D01*
X74803000Y-50419000D01*
X75996814Y-50419000D01*
X76117481Y-50189109D01*
X76020157Y-49914748D01*
X75871178Y-49664645D01*
X75676269Y-49448412D01*
X75442920Y-49274359D01*
X75180099Y-49149175D01*
X75032890Y-49104524D01*
X74803000Y-49225845D01*
X74549000Y-49225845D01*
X74319110Y-49104524D01*
X74171901Y-49149175D01*
X73909080Y-49274359D01*
X73675731Y-49448412D01*
X73480822Y-49664645D01*
X73411195Y-49781534D01*
X73289475Y-49599368D01*
X73082632Y-49392525D01*
X72839411Y-49230010D01*
X72569158Y-49118068D01*
X72282260Y-49061000D01*
X71989740Y-49061000D01*
X71702842Y-49118068D01*
X71432589Y-49230010D01*
X71189368Y-49392525D01*
X70982525Y-49599368D01*
X70866000Y-49773760D01*
X70749475Y-49599368D01*
X70542632Y-49392525D01*
X70299411Y-49230010D01*
X70029158Y-49118068D01*
X69742260Y-49061000D01*
X69615801Y-49061000D01*
X72196802Y-46480000D01*
X84871928Y-46480000D01*
X84871928Y-46570000D01*
G37*
%TD.AperFunction*%
%TD*%
M02*
