%TF.GenerationSoftware,KiCad,Pcbnew,(5.1.9)-1*%
%TF.CreationDate,2021-02-22T18:11:06+01:00*%
%TF.ProjectId,bluePillG,626c7565-5069-46c6-9c47-2e6b69636164,rev?*%
%TF.SameCoordinates,Original*%
%TF.FileFunction,Soldermask,Top*%
%TF.FilePolarity,Negative*%
%FSLAX46Y46*%
G04 Gerber Fmt 4.6, Leading zero omitted, Abs format (unit mm)*
G04 Created by KiCad (PCBNEW (5.1.9)-1) date 2021-02-22 18:11:06*
%MOMM*%
%LPD*%
G01*
G04 APERTURE LIST*
%ADD10C,1.500000*%
%ADD11R,1.475000X0.300000*%
%ADD12R,0.300000X1.475000*%
%ADD13R,1.900000X2.600000*%
%ADD14C,1.000000*%
%ADD15O,1.700000X1.700000*%
%ADD16R,1.700000X1.700000*%
G04 APERTURE END LIST*
D10*
%TO.C,S1*%
X60234000Y-60146000D03*
X60234000Y-53646000D03*
X64734000Y-60146000D03*
X64734000Y-53646000D03*
%TD*%
D11*
%TO.C,IC1*%
X74088000Y-67100000D03*
X74088000Y-67600000D03*
X74088000Y-68100000D03*
X74088000Y-68600000D03*
X74088000Y-69100000D03*
X74088000Y-69600000D03*
X74088000Y-70100000D03*
X74088000Y-70600000D03*
X74088000Y-71100000D03*
X74088000Y-71600000D03*
X74088000Y-72100000D03*
X74088000Y-72600000D03*
D12*
X72600000Y-74088000D03*
X72100000Y-74088000D03*
X71600000Y-74088000D03*
X71100000Y-74088000D03*
X70600000Y-74088000D03*
X70100000Y-74088000D03*
X69600000Y-74088000D03*
X69100000Y-74088000D03*
X68600000Y-74088000D03*
X68100000Y-74088000D03*
X67600000Y-74088000D03*
X67100000Y-74088000D03*
D11*
X65612000Y-72600000D03*
X65612000Y-72100000D03*
X65612000Y-71600000D03*
X65612000Y-71100000D03*
X65612000Y-70600000D03*
X65612000Y-70100000D03*
X65612000Y-69600000D03*
X65612000Y-69100000D03*
X65612000Y-68600000D03*
X65612000Y-68100000D03*
X65612000Y-67600000D03*
X65612000Y-67100000D03*
D12*
X67100000Y-65612000D03*
X67600000Y-65612000D03*
X68100000Y-65612000D03*
X68600000Y-65612000D03*
X69100000Y-65612000D03*
X69600000Y-65612000D03*
X70100000Y-65612000D03*
X70600000Y-65612000D03*
X71100000Y-65612000D03*
X71600000Y-65612000D03*
X72100000Y-65612000D03*
X72600000Y-65612000D03*
%TD*%
D13*
%TO.C,Y2*%
X68208000Y-60960000D03*
X72508000Y-60960000D03*
%TD*%
D14*
%TO.C,Y1*%
X71120000Y-63754000D03*
X73660000Y-63754000D03*
%TD*%
%TO.C,R7*%
G36*
G01*
X69933000Y-57891000D02*
X69933000Y-58441000D01*
G75*
G02*
X69733000Y-58641000I-200000J0D01*
G01*
X69333000Y-58641000D01*
G75*
G02*
X69133000Y-58441000I0J200000D01*
G01*
X69133000Y-57891000D01*
G75*
G02*
X69333000Y-57691000I200000J0D01*
G01*
X69733000Y-57691000D01*
G75*
G02*
X69933000Y-57891000I0J-200000D01*
G01*
G37*
G36*
G01*
X71583000Y-57891000D02*
X71583000Y-58441000D01*
G75*
G02*
X71383000Y-58641000I-200000J0D01*
G01*
X70983000Y-58641000D01*
G75*
G02*
X70783000Y-58441000I0J200000D01*
G01*
X70783000Y-57891000D01*
G75*
G02*
X70983000Y-57691000I200000J0D01*
G01*
X71383000Y-57691000D01*
G75*
G02*
X71583000Y-57891000I0J-200000D01*
G01*
G37*
%TD*%
%TO.C,R5*%
G36*
G01*
X77831000Y-89683000D02*
X77831000Y-89133000D01*
G75*
G02*
X78031000Y-88933000I200000J0D01*
G01*
X78431000Y-88933000D01*
G75*
G02*
X78631000Y-89133000I0J-200000D01*
G01*
X78631000Y-89683000D01*
G75*
G02*
X78431000Y-89883000I-200000J0D01*
G01*
X78031000Y-89883000D01*
G75*
G02*
X77831000Y-89683000I0J200000D01*
G01*
G37*
G36*
G01*
X76181000Y-89683000D02*
X76181000Y-89133000D01*
G75*
G02*
X76381000Y-88933000I200000J0D01*
G01*
X76781000Y-88933000D01*
G75*
G02*
X76981000Y-89133000I0J-200000D01*
G01*
X76981000Y-89683000D01*
G75*
G02*
X76781000Y-89883000I-200000J0D01*
G01*
X76381000Y-89883000D01*
G75*
G02*
X76181000Y-89683000I0J200000D01*
G01*
G37*
%TD*%
%TO.C,R4*%
G36*
G01*
X77768000Y-92731000D02*
X77768000Y-92181000D01*
G75*
G02*
X77968000Y-91981000I200000J0D01*
G01*
X78368000Y-91981000D01*
G75*
G02*
X78568000Y-92181000I0J-200000D01*
G01*
X78568000Y-92731000D01*
G75*
G02*
X78368000Y-92931000I-200000J0D01*
G01*
X77968000Y-92931000D01*
G75*
G02*
X77768000Y-92731000I0J200000D01*
G01*
G37*
G36*
G01*
X76118000Y-92731000D02*
X76118000Y-92181000D01*
G75*
G02*
X76318000Y-91981000I200000J0D01*
G01*
X76718000Y-91981000D01*
G75*
G02*
X76918000Y-92181000I0J-200000D01*
G01*
X76918000Y-92731000D01*
G75*
G02*
X76718000Y-92931000I-200000J0D01*
G01*
X76318000Y-92931000D01*
G75*
G02*
X76118000Y-92731000I0J200000D01*
G01*
G37*
%TD*%
%TO.C,R3*%
G36*
G01*
X77768000Y-91207000D02*
X77768000Y-90657000D01*
G75*
G02*
X77968000Y-90457000I200000J0D01*
G01*
X78368000Y-90457000D01*
G75*
G02*
X78568000Y-90657000I0J-200000D01*
G01*
X78568000Y-91207000D01*
G75*
G02*
X78368000Y-91407000I-200000J0D01*
G01*
X77968000Y-91407000D01*
G75*
G02*
X77768000Y-91207000I0J200000D01*
G01*
G37*
G36*
G01*
X76118000Y-91207000D02*
X76118000Y-90657000D01*
G75*
G02*
X76318000Y-90457000I200000J0D01*
G01*
X76718000Y-90457000D01*
G75*
G02*
X76918000Y-90657000I0J-200000D01*
G01*
X76918000Y-91207000D01*
G75*
G02*
X76718000Y-91407000I-200000J0D01*
G01*
X76318000Y-91407000D01*
G75*
G02*
X76118000Y-91207000I0J200000D01*
G01*
G37*
%TD*%
%TO.C,R2*%
G36*
G01*
X62909000Y-62505000D02*
X62909000Y-61955000D01*
G75*
G02*
X63109000Y-61755000I200000J0D01*
G01*
X63509000Y-61755000D01*
G75*
G02*
X63709000Y-61955000I0J-200000D01*
G01*
X63709000Y-62505000D01*
G75*
G02*
X63509000Y-62705000I-200000J0D01*
G01*
X63109000Y-62705000D01*
G75*
G02*
X62909000Y-62505000I0J200000D01*
G01*
G37*
G36*
G01*
X61259000Y-62505000D02*
X61259000Y-61955000D01*
G75*
G02*
X61459000Y-61755000I200000J0D01*
G01*
X61859000Y-61755000D01*
G75*
G02*
X62059000Y-61955000I0J-200000D01*
G01*
X62059000Y-62505000D01*
G75*
G02*
X61859000Y-62705000I-200000J0D01*
G01*
X61459000Y-62705000D01*
G75*
G02*
X61259000Y-62505000I0J200000D01*
G01*
G37*
%TD*%
%TO.C,R1*%
G36*
G01*
X82021000Y-77069000D02*
X82571000Y-77069000D01*
G75*
G02*
X82771000Y-77269000I0J-200000D01*
G01*
X82771000Y-77669000D01*
G75*
G02*
X82571000Y-77869000I-200000J0D01*
G01*
X82021000Y-77869000D01*
G75*
G02*
X81821000Y-77669000I0J200000D01*
G01*
X81821000Y-77269000D01*
G75*
G02*
X82021000Y-77069000I200000J0D01*
G01*
G37*
G36*
G01*
X82021000Y-75419000D02*
X82571000Y-75419000D01*
G75*
G02*
X82771000Y-75619000I0J-200000D01*
G01*
X82771000Y-76019000D01*
G75*
G02*
X82571000Y-76219000I-200000J0D01*
G01*
X82021000Y-76219000D01*
G75*
G02*
X81821000Y-76019000I0J200000D01*
G01*
X81821000Y-75619000D01*
G75*
G02*
X82021000Y-75419000I200000J0D01*
G01*
G37*
%TD*%
D15*
%TO.C,J4*%
X86360000Y-93980000D03*
X86360000Y-91440000D03*
X86360000Y-88900000D03*
X86360000Y-86360000D03*
X86360000Y-83820000D03*
X86360000Y-81280000D03*
X86360000Y-78740000D03*
X86360000Y-76200000D03*
X86360000Y-73660000D03*
X86360000Y-71120000D03*
X86360000Y-68580000D03*
X86360000Y-66040000D03*
X86360000Y-63500000D03*
X86360000Y-60960000D03*
X86360000Y-58420000D03*
X86360000Y-55880000D03*
X86360000Y-53340000D03*
X86360000Y-50800000D03*
X86360000Y-48260000D03*
D16*
X86360000Y-45720000D03*
%TD*%
D15*
%TO.C,J3*%
X74676000Y-50546000D03*
X72136000Y-50546000D03*
X69596000Y-50546000D03*
D16*
X67056000Y-50546000D03*
%TD*%
D15*
%TO.C,J2*%
X53340000Y-93980000D03*
X53340000Y-91440000D03*
X53340000Y-88900000D03*
X53340000Y-86360000D03*
X53340000Y-83820000D03*
X53340000Y-81280000D03*
X53340000Y-78740000D03*
X53340000Y-76200000D03*
X53340000Y-73660000D03*
X53340000Y-71120000D03*
X53340000Y-68580000D03*
X53340000Y-66040000D03*
X53340000Y-63500000D03*
X53340000Y-60960000D03*
X53340000Y-58420000D03*
X53340000Y-55880000D03*
X53340000Y-53340000D03*
X53340000Y-50800000D03*
X53340000Y-48260000D03*
D16*
X53340000Y-45720000D03*
%TD*%
D15*
%TO.C,J1*%
X79756000Y-79565500D03*
X77216000Y-79565500D03*
X79756000Y-77025500D03*
X77216000Y-77025500D03*
X79756000Y-74485500D03*
D16*
X77216000Y-74485500D03*
%TD*%
%TO.C,FB1*%
G36*
G01*
X61980500Y-70669999D02*
X61980500Y-71570001D01*
G75*
G02*
X61730501Y-71820000I-249999J0D01*
G01*
X61205499Y-71820000D01*
G75*
G02*
X60955500Y-71570001I0J249999D01*
G01*
X60955500Y-70669999D01*
G75*
G02*
X61205499Y-70420000I249999J0D01*
G01*
X61730501Y-70420000D01*
G75*
G02*
X61980500Y-70669999I0J-249999D01*
G01*
G37*
G36*
G01*
X63805500Y-70669999D02*
X63805500Y-71570001D01*
G75*
G02*
X63555501Y-71820000I-249999J0D01*
G01*
X63030499Y-71820000D01*
G75*
G02*
X62780500Y-71570001I0J249999D01*
G01*
X62780500Y-70669999D01*
G75*
G02*
X63030499Y-70420000I249999J0D01*
G01*
X63555501Y-70420000D01*
G75*
G02*
X63805500Y-70669999I0J-249999D01*
G01*
G37*
%TD*%
%TO.C,D3*%
G36*
G01*
X73970500Y-89151750D02*
X73970500Y-89664250D01*
G75*
G02*
X73751750Y-89883000I-218750J0D01*
G01*
X73314250Y-89883000D01*
G75*
G02*
X73095500Y-89664250I0J218750D01*
G01*
X73095500Y-89151750D01*
G75*
G02*
X73314250Y-88933000I218750J0D01*
G01*
X73751750Y-88933000D01*
G75*
G02*
X73970500Y-89151750I0J-218750D01*
G01*
G37*
G36*
G01*
X75545500Y-89151750D02*
X75545500Y-89664250D01*
G75*
G02*
X75326750Y-89883000I-218750J0D01*
G01*
X74889250Y-89883000D01*
G75*
G02*
X74670500Y-89664250I0J218750D01*
G01*
X74670500Y-89151750D01*
G75*
G02*
X74889250Y-88933000I218750J0D01*
G01*
X75326750Y-88933000D01*
G75*
G02*
X75545500Y-89151750I0J-218750D01*
G01*
G37*
%TD*%
%TO.C,D2*%
G36*
G01*
X73945000Y-92199750D02*
X73945000Y-92712250D01*
G75*
G02*
X73726250Y-92931000I-218750J0D01*
G01*
X73288750Y-92931000D01*
G75*
G02*
X73070000Y-92712250I0J218750D01*
G01*
X73070000Y-92199750D01*
G75*
G02*
X73288750Y-91981000I218750J0D01*
G01*
X73726250Y-91981000D01*
G75*
G02*
X73945000Y-92199750I0J-218750D01*
G01*
G37*
G36*
G01*
X75520000Y-92199750D02*
X75520000Y-92712250D01*
G75*
G02*
X75301250Y-92931000I-218750J0D01*
G01*
X74863750Y-92931000D01*
G75*
G02*
X74645000Y-92712250I0J218750D01*
G01*
X74645000Y-92199750D01*
G75*
G02*
X74863750Y-91981000I218750J0D01*
G01*
X75301250Y-91981000D01*
G75*
G02*
X75520000Y-92199750I0J-218750D01*
G01*
G37*
%TD*%
%TO.C,D1*%
G36*
G01*
X73945000Y-90675750D02*
X73945000Y-91188250D01*
G75*
G02*
X73726250Y-91407000I-218750J0D01*
G01*
X73288750Y-91407000D01*
G75*
G02*
X73070000Y-91188250I0J218750D01*
G01*
X73070000Y-90675750D01*
G75*
G02*
X73288750Y-90457000I218750J0D01*
G01*
X73726250Y-90457000D01*
G75*
G02*
X73945000Y-90675750I0J-218750D01*
G01*
G37*
G36*
G01*
X75520000Y-90675750D02*
X75520000Y-91188250D01*
G75*
G02*
X75301250Y-91407000I-218750J0D01*
G01*
X74863750Y-91407000D01*
G75*
G02*
X74645000Y-91188250I0J218750D01*
G01*
X74645000Y-90675750D01*
G75*
G02*
X74863750Y-90457000I218750J0D01*
G01*
X75301250Y-90457000D01*
G75*
G02*
X75520000Y-90675750I0J-218750D01*
G01*
G37*
%TD*%
%TO.C,C14*%
G36*
G01*
X63175000Y-50042000D02*
X63175000Y-50542000D01*
G75*
G02*
X62950000Y-50767000I-225000J0D01*
G01*
X62500000Y-50767000D01*
G75*
G02*
X62275000Y-50542000I0J225000D01*
G01*
X62275000Y-50042000D01*
G75*
G02*
X62500000Y-49817000I225000J0D01*
G01*
X62950000Y-49817000D01*
G75*
G02*
X63175000Y-50042000I0J-225000D01*
G01*
G37*
G36*
G01*
X64725000Y-50042000D02*
X64725000Y-50542000D01*
G75*
G02*
X64500000Y-50767000I-225000J0D01*
G01*
X64050000Y-50767000D01*
G75*
G02*
X63825000Y-50542000I0J225000D01*
G01*
X63825000Y-50042000D01*
G75*
G02*
X64050000Y-49817000I225000J0D01*
G01*
X64500000Y-49817000D01*
G75*
G02*
X64725000Y-50042000I0J-225000D01*
G01*
G37*
%TD*%
%TO.C,C12*%
G36*
G01*
X78062000Y-60194000D02*
X78062000Y-59694000D01*
G75*
G02*
X78287000Y-59469000I225000J0D01*
G01*
X78737000Y-59469000D01*
G75*
G02*
X78962000Y-59694000I0J-225000D01*
G01*
X78962000Y-60194000D01*
G75*
G02*
X78737000Y-60419000I-225000J0D01*
G01*
X78287000Y-60419000D01*
G75*
G02*
X78062000Y-60194000I0J225000D01*
G01*
G37*
G36*
G01*
X76512000Y-60194000D02*
X76512000Y-59694000D01*
G75*
G02*
X76737000Y-59469000I225000J0D01*
G01*
X77187000Y-59469000D01*
G75*
G02*
X77412000Y-59694000I0J-225000D01*
G01*
X77412000Y-60194000D01*
G75*
G02*
X77187000Y-60419000I-225000J0D01*
G01*
X76737000Y-60419000D01*
G75*
G02*
X76512000Y-60194000I0J225000D01*
G01*
G37*
%TD*%
%TO.C,C11*%
G36*
G01*
X77033000Y-66544000D02*
X77033000Y-66044000D01*
G75*
G02*
X77258000Y-65819000I225000J0D01*
G01*
X77708000Y-65819000D01*
G75*
G02*
X77933000Y-66044000I0J-225000D01*
G01*
X77933000Y-66544000D01*
G75*
G02*
X77708000Y-66769000I-225000J0D01*
G01*
X77258000Y-66769000D01*
G75*
G02*
X77033000Y-66544000I0J225000D01*
G01*
G37*
G36*
G01*
X75483000Y-66544000D02*
X75483000Y-66044000D01*
G75*
G02*
X75708000Y-65819000I225000J0D01*
G01*
X76158000Y-65819000D01*
G75*
G02*
X76383000Y-66044000I0J-225000D01*
G01*
X76383000Y-66544000D01*
G75*
G02*
X76158000Y-66769000I-225000J0D01*
G01*
X75708000Y-66769000D01*
G75*
G02*
X75483000Y-66544000I0J225000D01*
G01*
G37*
%TD*%
%TO.C,C10*%
G36*
G01*
X63504000Y-75128000D02*
X64004000Y-75128000D01*
G75*
G02*
X64229000Y-75353000I0J-225000D01*
G01*
X64229000Y-75803000D01*
G75*
G02*
X64004000Y-76028000I-225000J0D01*
G01*
X63504000Y-76028000D01*
G75*
G02*
X63279000Y-75803000I0J225000D01*
G01*
X63279000Y-75353000D01*
G75*
G02*
X63504000Y-75128000I225000J0D01*
G01*
G37*
G36*
G01*
X63504000Y-73578000D02*
X64004000Y-73578000D01*
G75*
G02*
X64229000Y-73803000I0J-225000D01*
G01*
X64229000Y-74253000D01*
G75*
G02*
X64004000Y-74478000I-225000J0D01*
G01*
X63504000Y-74478000D01*
G75*
G02*
X63279000Y-74253000I0J225000D01*
G01*
X63279000Y-73803000D01*
G75*
G02*
X63504000Y-73578000I225000J0D01*
G01*
G37*
%TD*%
%TO.C,C9*%
G36*
G01*
X66985000Y-57916000D02*
X66985000Y-58416000D01*
G75*
G02*
X66760000Y-58641000I-225000J0D01*
G01*
X66310000Y-58641000D01*
G75*
G02*
X66085000Y-58416000I0J225000D01*
G01*
X66085000Y-57916000D01*
G75*
G02*
X66310000Y-57691000I225000J0D01*
G01*
X66760000Y-57691000D01*
G75*
G02*
X66985000Y-57916000I0J-225000D01*
G01*
G37*
G36*
G01*
X68535000Y-57916000D02*
X68535000Y-58416000D01*
G75*
G02*
X68310000Y-58641000I-225000J0D01*
G01*
X67860000Y-58641000D01*
G75*
G02*
X67635000Y-58416000I0J225000D01*
G01*
X67635000Y-57916000D01*
G75*
G02*
X67860000Y-57691000I225000J0D01*
G01*
X68310000Y-57691000D01*
G75*
G02*
X68535000Y-57916000I0J-225000D01*
G01*
G37*
%TD*%
%TO.C,C8*%
G36*
G01*
X73664000Y-76956500D02*
X74164000Y-76956500D01*
G75*
G02*
X74389000Y-77181500I0J-225000D01*
G01*
X74389000Y-77631500D01*
G75*
G02*
X74164000Y-77856500I-225000J0D01*
G01*
X73664000Y-77856500D01*
G75*
G02*
X73439000Y-77631500I0J225000D01*
G01*
X73439000Y-77181500D01*
G75*
G02*
X73664000Y-76956500I225000J0D01*
G01*
G37*
G36*
G01*
X73664000Y-75406500D02*
X74164000Y-75406500D01*
G75*
G02*
X74389000Y-75631500I0J-225000D01*
G01*
X74389000Y-76081500D01*
G75*
G02*
X74164000Y-76306500I-225000J0D01*
G01*
X73664000Y-76306500D01*
G75*
G02*
X73439000Y-76081500I0J225000D01*
G01*
X73439000Y-75631500D01*
G75*
G02*
X73664000Y-75406500I225000J0D01*
G01*
G37*
%TD*%
%TO.C,C7*%
G36*
G01*
X73718000Y-58416000D02*
X73718000Y-57916000D01*
G75*
G02*
X73943000Y-57691000I225000J0D01*
G01*
X74393000Y-57691000D01*
G75*
G02*
X74618000Y-57916000I0J-225000D01*
G01*
X74618000Y-58416000D01*
G75*
G02*
X74393000Y-58641000I-225000J0D01*
G01*
X73943000Y-58641000D01*
G75*
G02*
X73718000Y-58416000I0J225000D01*
G01*
G37*
G36*
G01*
X72168000Y-58416000D02*
X72168000Y-57916000D01*
G75*
G02*
X72393000Y-57691000I225000J0D01*
G01*
X72843000Y-57691000D01*
G75*
G02*
X73068000Y-57916000I0J-225000D01*
G01*
X73068000Y-58416000D01*
G75*
G02*
X72843000Y-58641000I-225000J0D01*
G01*
X72393000Y-58641000D01*
G75*
G02*
X72168000Y-58416000I0J225000D01*
G01*
G37*
%TD*%
%TO.C,C6*%
G36*
G01*
X78036000Y-61718000D02*
X78036000Y-61218000D01*
G75*
G02*
X78261000Y-60993000I225000J0D01*
G01*
X78711000Y-60993000D01*
G75*
G02*
X78936000Y-61218000I0J-225000D01*
G01*
X78936000Y-61718000D01*
G75*
G02*
X78711000Y-61943000I-225000J0D01*
G01*
X78261000Y-61943000D01*
G75*
G02*
X78036000Y-61718000I0J225000D01*
G01*
G37*
G36*
G01*
X76486000Y-61718000D02*
X76486000Y-61218000D01*
G75*
G02*
X76711000Y-60993000I225000J0D01*
G01*
X77161000Y-60993000D01*
G75*
G02*
X77386000Y-61218000I0J-225000D01*
G01*
X77386000Y-61718000D01*
G75*
G02*
X77161000Y-61943000I-225000J0D01*
G01*
X76711000Y-61943000D01*
G75*
G02*
X76486000Y-61718000I0J225000D01*
G01*
G37*
%TD*%
%TO.C,C3*%
G36*
G01*
X65282000Y-90241000D02*
X65782000Y-90241000D01*
G75*
G02*
X66007000Y-90466000I0J-225000D01*
G01*
X66007000Y-90916000D01*
G75*
G02*
X65782000Y-91141000I-225000J0D01*
G01*
X65282000Y-91141000D01*
G75*
G02*
X65057000Y-90916000I0J225000D01*
G01*
X65057000Y-90466000D01*
G75*
G02*
X65282000Y-90241000I225000J0D01*
G01*
G37*
G36*
G01*
X65282000Y-88691000D02*
X65782000Y-88691000D01*
G75*
G02*
X66007000Y-88916000I0J-225000D01*
G01*
X66007000Y-89366000D01*
G75*
G02*
X65782000Y-89591000I-225000J0D01*
G01*
X65282000Y-89591000D01*
G75*
G02*
X65057000Y-89366000I0J225000D01*
G01*
X65057000Y-88916000D01*
G75*
G02*
X65282000Y-88691000I225000J0D01*
G01*
G37*
%TD*%
%TO.C,C2*%
G36*
G01*
X58416000Y-56571000D02*
X57916000Y-56571000D01*
G75*
G02*
X57691000Y-56346000I0J225000D01*
G01*
X57691000Y-55896000D01*
G75*
G02*
X57916000Y-55671000I225000J0D01*
G01*
X58416000Y-55671000D01*
G75*
G02*
X58641000Y-55896000I0J-225000D01*
G01*
X58641000Y-56346000D01*
G75*
G02*
X58416000Y-56571000I-225000J0D01*
G01*
G37*
G36*
G01*
X58416000Y-58121000D02*
X57916000Y-58121000D01*
G75*
G02*
X57691000Y-57896000I0J225000D01*
G01*
X57691000Y-57446000D01*
G75*
G02*
X57916000Y-57221000I225000J0D01*
G01*
X58416000Y-57221000D01*
G75*
G02*
X58641000Y-57446000I0J-225000D01*
G01*
X58641000Y-57896000D01*
G75*
G02*
X58416000Y-58121000I-225000J0D01*
G01*
G37*
%TD*%
%TO.C,C1*%
G36*
G01*
X66365000Y-86864000D02*
X66365000Y-86364000D01*
G75*
G02*
X66590000Y-86139000I225000J0D01*
G01*
X67040000Y-86139000D01*
G75*
G02*
X67265000Y-86364000I0J-225000D01*
G01*
X67265000Y-86864000D01*
G75*
G02*
X67040000Y-87089000I-225000J0D01*
G01*
X66590000Y-87089000D01*
G75*
G02*
X66365000Y-86864000I0J225000D01*
G01*
G37*
G36*
G01*
X64815000Y-86864000D02*
X64815000Y-86364000D01*
G75*
G02*
X65040000Y-86139000I225000J0D01*
G01*
X65490000Y-86139000D01*
G75*
G02*
X65715000Y-86364000I0J-225000D01*
G01*
X65715000Y-86864000D01*
G75*
G02*
X65490000Y-87089000I-225000J0D01*
G01*
X65040000Y-87089000D01*
G75*
G02*
X64815000Y-86864000I0J225000D01*
G01*
G37*
%TD*%
M02*
