M48
; DRILL file {KiCad (5.1.9)-1} date 02/22/21 18:11:03
; FORMAT={-:-/ absolute / inch / decimal}
; #@! TF.CreationDate,2021-02-22T18:11:03+01:00
; #@! TF.GenerationSoftware,Kicad,Pcbnew,(5.1.9)-1
; #@! TF.FileFunction,Plated,1,2,PTH
FMAT,2
INCH
T1C0.0157
T2C0.0197
T3C0.0394
%
G90
G05
T1
X2.3625Y-2.44
X2.3694Y-3.4094
X2.3875Y-2.865
X2.43Y-3.0375
X2.4675Y-2.8425
X2.475Y-3.0375
X2.5125Y-2.88
X2.58Y-3.5095
X2.5825Y-3.625
X2.6965Y-2.6375
X2.748Y-2.6357
X2.835Y-3.5175
X2.8878Y-2.5925
X2.9215Y-2.564
X2.9475Y-3.47
X2.9525Y-2.1475
X2.976Y-2.885
X2.985Y-2.0925
X2.9875Y-2.3525
X3.0Y-2.8474
X3.044Y-2.6919
X3.045Y-2.5775
X3.0875Y-3.184
X3.2375Y-2.86
X3.24Y-3.0875
T2
X2.8Y-2.51
X2.9Y-2.51
T3
X2.1Y-1.8
X2.1Y-1.9
X2.1Y-2.0
X2.1Y-2.1
X2.1Y-2.2
X2.1Y-2.3
X2.1Y-2.4
X2.1Y-2.5
X2.1Y-2.6
X2.1Y-2.7
X2.1Y-2.8
X2.1Y-2.9
X2.1Y-3.0
X2.1Y-3.1
X2.1Y-3.2
X2.1Y-3.3
X2.1Y-3.4
X2.1Y-3.5
X2.1Y-3.6
X2.1Y-3.7
X2.3714Y-2.112
X2.3714Y-2.368
X2.5486Y-2.112
X2.5486Y-2.368
X2.64Y-1.99
X2.74Y-1.99
X2.84Y-1.99
X2.94Y-1.99
X3.04Y-2.9325
X3.04Y-3.0325
X3.04Y-3.1325
X3.14Y-2.9325
X3.14Y-3.0325
X3.14Y-3.1325
X3.4Y-1.8
X3.4Y-1.9
X3.4Y-2.0
X3.4Y-2.1
X3.4Y-2.2
X3.4Y-2.3
X3.4Y-2.4
X3.4Y-2.5
X3.4Y-2.6
X3.4Y-2.7
X3.4Y-2.8
X3.4Y-2.9
X3.4Y-3.0
X3.4Y-3.1
X3.4Y-3.2
X3.4Y-3.3
X3.4Y-3.4
X3.4Y-3.5
X3.4Y-3.6
X3.4Y-3.7
T0
M30
