%TF.GenerationSoftware,KiCad,Pcbnew,(5.1.9)-1*%
%TF.CreationDate,2021-02-22T18:19:41+01:00*%
%TF.ProjectId,bluePillG,626c7565-5069-46c6-9c47-2e6b69636164,rev?*%
%TF.SameCoordinates,Original*%
%TF.FileFunction,Legend,Top*%
%TF.FilePolarity,Positive*%
%FSLAX46Y46*%
G04 Gerber Fmt 4.6, Leading zero omitted, Abs format (unit mm)*
G04 Created by KiCad (PCBNEW (5.1.9)-1) date 2021-02-22 18:19:41*
%MOMM*%
%LPD*%
G01*
G04 APERTURE LIST*
%ADD10C,0.150000*%
%ADD11C,0.254000*%
%ADD12C,0.200000*%
%ADD13C,0.120000*%
G04 APERTURE END LIST*
D10*
X81383333Y-79192380D02*
X81383333Y-78192380D01*
X81764285Y-78192380D01*
X81859523Y-78240000D01*
X81907142Y-78287619D01*
X81954761Y-78382857D01*
X81954761Y-78525714D01*
X81907142Y-78620952D01*
X81859523Y-78668571D01*
X81764285Y-78716190D01*
X81383333Y-78716190D01*
X82335714Y-78906666D02*
X82811904Y-78906666D01*
X82240476Y-79192380D02*
X82573809Y-78192380D01*
X82907142Y-79192380D01*
X83288095Y-79192380D02*
X83478571Y-79192380D01*
X83573809Y-79144761D01*
X83621428Y-79097142D01*
X83716666Y-78954285D01*
X83764285Y-78763809D01*
X83764285Y-78382857D01*
X83716666Y-78287619D01*
X83669047Y-78240000D01*
X83573809Y-78192380D01*
X83383333Y-78192380D01*
X83288095Y-78240000D01*
X83240476Y-78287619D01*
X83192857Y-78382857D01*
X83192857Y-78620952D01*
X83240476Y-78716190D01*
X83288095Y-78763809D01*
X83383333Y-78811428D01*
X83573809Y-78811428D01*
X83669047Y-78763809D01*
X83716666Y-78716190D01*
X83764285Y-78620952D01*
X81311904Y-58872380D02*
X81311904Y-57872380D01*
X81692857Y-57872380D01*
X81788095Y-57920000D01*
X81835714Y-57967619D01*
X81883333Y-58062857D01*
X81883333Y-58205714D01*
X81835714Y-58300952D01*
X81788095Y-58348571D01*
X81692857Y-58396190D01*
X81311904Y-58396190D01*
X82645238Y-58348571D02*
X82788095Y-58396190D01*
X82835714Y-58443809D01*
X82883333Y-58539047D01*
X82883333Y-58681904D01*
X82835714Y-58777142D01*
X82788095Y-58824761D01*
X82692857Y-58872380D01*
X82311904Y-58872380D01*
X82311904Y-57872380D01*
X82645238Y-57872380D01*
X82740476Y-57920000D01*
X82788095Y-57967619D01*
X82835714Y-58062857D01*
X82835714Y-58158095D01*
X82788095Y-58253333D01*
X82740476Y-58300952D01*
X82645238Y-58348571D01*
X82311904Y-58348571D01*
X83740476Y-57872380D02*
X83550000Y-57872380D01*
X83454761Y-57920000D01*
X83407142Y-57967619D01*
X83311904Y-58110476D01*
X83264285Y-58300952D01*
X83264285Y-58681904D01*
X83311904Y-58777142D01*
X83359523Y-58824761D01*
X83454761Y-58872380D01*
X83645238Y-58872380D01*
X83740476Y-58824761D01*
X83788095Y-58777142D01*
X83835714Y-58681904D01*
X83835714Y-58443809D01*
X83788095Y-58348571D01*
X83740476Y-58300952D01*
X83645238Y-58253333D01*
X83454761Y-58253333D01*
X83359523Y-58300952D01*
X83311904Y-58348571D01*
X83264285Y-58443809D01*
X81311904Y-56332380D02*
X81311904Y-55332380D01*
X81692857Y-55332380D01*
X81788095Y-55380000D01*
X81835714Y-55427619D01*
X81883333Y-55522857D01*
X81883333Y-55665714D01*
X81835714Y-55760952D01*
X81788095Y-55808571D01*
X81692857Y-55856190D01*
X81311904Y-55856190D01*
X82645238Y-55808571D02*
X82788095Y-55856190D01*
X82835714Y-55903809D01*
X82883333Y-55999047D01*
X82883333Y-56141904D01*
X82835714Y-56237142D01*
X82788095Y-56284761D01*
X82692857Y-56332380D01*
X82311904Y-56332380D01*
X82311904Y-55332380D01*
X82645238Y-55332380D01*
X82740476Y-55380000D01*
X82788095Y-55427619D01*
X82835714Y-55522857D01*
X82835714Y-55618095D01*
X82788095Y-55713333D01*
X82740476Y-55760952D01*
X82645238Y-55808571D01*
X82311904Y-55808571D01*
X83216666Y-55332380D02*
X83883333Y-55332380D01*
X83454761Y-56332380D01*
X80835714Y-89352380D02*
X80835714Y-88352380D01*
X81216666Y-88352380D01*
X81311904Y-88400000D01*
X81359523Y-88447619D01*
X81407142Y-88542857D01*
X81407142Y-88685714D01*
X81359523Y-88780952D01*
X81311904Y-88828571D01*
X81216666Y-88876190D01*
X80835714Y-88876190D01*
X82169047Y-88828571D02*
X82311904Y-88876190D01*
X82359523Y-88923809D01*
X82407142Y-89019047D01*
X82407142Y-89161904D01*
X82359523Y-89257142D01*
X82311904Y-89304761D01*
X82216666Y-89352380D01*
X81835714Y-89352380D01*
X81835714Y-88352380D01*
X82169047Y-88352380D01*
X82264285Y-88400000D01*
X82311904Y-88447619D01*
X82359523Y-88542857D01*
X82359523Y-88638095D01*
X82311904Y-88733333D01*
X82264285Y-88780952D01*
X82169047Y-88828571D01*
X81835714Y-88828571D01*
X83359523Y-89352380D02*
X82788095Y-89352380D01*
X83073809Y-89352380D02*
X83073809Y-88352380D01*
X82978571Y-88495238D01*
X82883333Y-88590476D01*
X82788095Y-88638095D01*
X83692857Y-88352380D02*
X84311904Y-88352380D01*
X83978571Y-88733333D01*
X84121428Y-88733333D01*
X84216666Y-88780952D01*
X84264285Y-88828571D01*
X84311904Y-88923809D01*
X84311904Y-89161904D01*
X84264285Y-89257142D01*
X84216666Y-89304761D01*
X84121428Y-89352380D01*
X83835714Y-89352380D01*
X83740476Y-89304761D01*
X83692857Y-89257142D01*
X80835714Y-86812380D02*
X80835714Y-85812380D01*
X81216666Y-85812380D01*
X81311904Y-85860000D01*
X81359523Y-85907619D01*
X81407142Y-86002857D01*
X81407142Y-86145714D01*
X81359523Y-86240952D01*
X81311904Y-86288571D01*
X81216666Y-86336190D01*
X80835714Y-86336190D01*
X82169047Y-86288571D02*
X82311904Y-86336190D01*
X82359523Y-86383809D01*
X82407142Y-86479047D01*
X82407142Y-86621904D01*
X82359523Y-86717142D01*
X82311904Y-86764761D01*
X82216666Y-86812380D01*
X81835714Y-86812380D01*
X81835714Y-85812380D01*
X82169047Y-85812380D01*
X82264285Y-85860000D01*
X82311904Y-85907619D01*
X82359523Y-86002857D01*
X82359523Y-86098095D01*
X82311904Y-86193333D01*
X82264285Y-86240952D01*
X82169047Y-86288571D01*
X81835714Y-86288571D01*
X83359523Y-86812380D02*
X82788095Y-86812380D01*
X83073809Y-86812380D02*
X83073809Y-85812380D01*
X82978571Y-85955238D01*
X82883333Y-86050476D01*
X82788095Y-86098095D01*
X84216666Y-86145714D02*
X84216666Y-86812380D01*
X83978571Y-85764761D02*
X83740476Y-86479047D01*
X84359523Y-86479047D01*
X81788095Y-47760000D02*
X81692857Y-47712380D01*
X81550000Y-47712380D01*
X81407142Y-47760000D01*
X81311904Y-47855238D01*
X81264285Y-47950476D01*
X81216666Y-48140952D01*
X81216666Y-48283809D01*
X81264285Y-48474285D01*
X81311904Y-48569523D01*
X81407142Y-48664761D01*
X81550000Y-48712380D01*
X81645238Y-48712380D01*
X81788095Y-48664761D01*
X81835714Y-48617142D01*
X81835714Y-48283809D01*
X81645238Y-48283809D01*
X82264285Y-48712380D02*
X82264285Y-47712380D01*
X82835714Y-48712380D01*
X82835714Y-47712380D01*
X83311904Y-48712380D02*
X83311904Y-47712380D01*
X83550000Y-47712380D01*
X83692857Y-47760000D01*
X83788095Y-47855238D01*
X83835714Y-47950476D01*
X83883333Y-48140952D01*
X83883333Y-48283809D01*
X83835714Y-48474285D01*
X83788095Y-48569523D01*
X83692857Y-48664761D01*
X83550000Y-48712380D01*
X83311904Y-48712380D01*
X80907142Y-76652380D02*
X80907142Y-75652380D01*
X81288095Y-75652380D01*
X81383333Y-75700000D01*
X81430952Y-75747619D01*
X81478571Y-75842857D01*
X81478571Y-75985714D01*
X81430952Y-76080952D01*
X81383333Y-76128571D01*
X81288095Y-76176190D01*
X80907142Y-76176190D01*
X81859523Y-76366666D02*
X82335714Y-76366666D01*
X81764285Y-76652380D02*
X82097619Y-75652380D01*
X82430952Y-76652380D01*
X83288095Y-76652380D02*
X82716666Y-76652380D01*
X83002380Y-76652380D02*
X83002380Y-75652380D01*
X82907142Y-75795238D01*
X82811904Y-75890476D01*
X82716666Y-75938095D01*
X83907142Y-75652380D02*
X84002380Y-75652380D01*
X84097619Y-75700000D01*
X84145238Y-75747619D01*
X84192857Y-75842857D01*
X84240476Y-76033333D01*
X84240476Y-76271428D01*
X84192857Y-76461904D01*
X84145238Y-76557142D01*
X84097619Y-76604761D01*
X84002380Y-76652380D01*
X83907142Y-76652380D01*
X83811904Y-76604761D01*
X83764285Y-76557142D01*
X83716666Y-76461904D01*
X83669047Y-76271428D01*
X83669047Y-76033333D01*
X83716666Y-75842857D01*
X83764285Y-75747619D01*
X83811904Y-75700000D01*
X83907142Y-75652380D01*
X80907142Y-74112380D02*
X80907142Y-73112380D01*
X81288095Y-73112380D01*
X81383333Y-73160000D01*
X81430952Y-73207619D01*
X81478571Y-73302857D01*
X81478571Y-73445714D01*
X81430952Y-73540952D01*
X81383333Y-73588571D01*
X81288095Y-73636190D01*
X80907142Y-73636190D01*
X81859523Y-73826666D02*
X82335714Y-73826666D01*
X81764285Y-74112380D02*
X82097619Y-73112380D01*
X82430952Y-74112380D01*
X83288095Y-74112380D02*
X82716666Y-74112380D01*
X83002380Y-74112380D02*
X83002380Y-73112380D01*
X82907142Y-73255238D01*
X82811904Y-73350476D01*
X82716666Y-73398095D01*
X84240476Y-74112380D02*
X83669047Y-74112380D01*
X83954761Y-74112380D02*
X83954761Y-73112380D01*
X83859523Y-73255238D01*
X83764285Y-73350476D01*
X83669047Y-73398095D01*
X80907142Y-71572380D02*
X80907142Y-70572380D01*
X81288095Y-70572380D01*
X81383333Y-70620000D01*
X81430952Y-70667619D01*
X81478571Y-70762857D01*
X81478571Y-70905714D01*
X81430952Y-71000952D01*
X81383333Y-71048571D01*
X81288095Y-71096190D01*
X80907142Y-71096190D01*
X81859523Y-71286666D02*
X82335714Y-71286666D01*
X81764285Y-71572380D02*
X82097619Y-70572380D01*
X82430952Y-71572380D01*
X83288095Y-71572380D02*
X82716666Y-71572380D01*
X83002380Y-71572380D02*
X83002380Y-70572380D01*
X82907142Y-70715238D01*
X82811904Y-70810476D01*
X82716666Y-70858095D01*
X83669047Y-70667619D02*
X83716666Y-70620000D01*
X83811904Y-70572380D01*
X84050000Y-70572380D01*
X84145238Y-70620000D01*
X84192857Y-70667619D01*
X84240476Y-70762857D01*
X84240476Y-70858095D01*
X84192857Y-71000952D01*
X83621428Y-71572380D01*
X84240476Y-71572380D01*
X81311904Y-66492380D02*
X81311904Y-65492380D01*
X81692857Y-65492380D01*
X81788095Y-65540000D01*
X81835714Y-65587619D01*
X81883333Y-65682857D01*
X81883333Y-65825714D01*
X81835714Y-65920952D01*
X81788095Y-65968571D01*
X81692857Y-66016190D01*
X81311904Y-66016190D01*
X82645238Y-65968571D02*
X82788095Y-66016190D01*
X82835714Y-66063809D01*
X82883333Y-66159047D01*
X82883333Y-66301904D01*
X82835714Y-66397142D01*
X82788095Y-66444761D01*
X82692857Y-66492380D01*
X82311904Y-66492380D01*
X82311904Y-65492380D01*
X82645238Y-65492380D01*
X82740476Y-65540000D01*
X82788095Y-65587619D01*
X82835714Y-65682857D01*
X82835714Y-65778095D01*
X82788095Y-65873333D01*
X82740476Y-65920952D01*
X82645238Y-65968571D01*
X82311904Y-65968571D01*
X83216666Y-65492380D02*
X83835714Y-65492380D01*
X83502380Y-65873333D01*
X83645238Y-65873333D01*
X83740476Y-65920952D01*
X83788095Y-65968571D01*
X83835714Y-66063809D01*
X83835714Y-66301904D01*
X83788095Y-66397142D01*
X83740476Y-66444761D01*
X83645238Y-66492380D01*
X83359523Y-66492380D01*
X83264285Y-66444761D01*
X83216666Y-66397142D01*
X81311904Y-61412380D02*
X81311904Y-60412380D01*
X81692857Y-60412380D01*
X81788095Y-60460000D01*
X81835714Y-60507619D01*
X81883333Y-60602857D01*
X81883333Y-60745714D01*
X81835714Y-60840952D01*
X81788095Y-60888571D01*
X81692857Y-60936190D01*
X81311904Y-60936190D01*
X82645238Y-60888571D02*
X82788095Y-60936190D01*
X82835714Y-60983809D01*
X82883333Y-61079047D01*
X82883333Y-61221904D01*
X82835714Y-61317142D01*
X82788095Y-61364761D01*
X82692857Y-61412380D01*
X82311904Y-61412380D01*
X82311904Y-60412380D01*
X82645238Y-60412380D01*
X82740476Y-60460000D01*
X82788095Y-60507619D01*
X82835714Y-60602857D01*
X82835714Y-60698095D01*
X82788095Y-60793333D01*
X82740476Y-60840952D01*
X82645238Y-60888571D01*
X82311904Y-60888571D01*
X83788095Y-60412380D02*
X83311904Y-60412380D01*
X83264285Y-60888571D01*
X83311904Y-60840952D01*
X83407142Y-60793333D01*
X83645238Y-60793333D01*
X83740476Y-60840952D01*
X83788095Y-60888571D01*
X83835714Y-60983809D01*
X83835714Y-61221904D01*
X83788095Y-61317142D01*
X83740476Y-61364761D01*
X83645238Y-61412380D01*
X83407142Y-61412380D01*
X83311904Y-61364761D01*
X83264285Y-61317142D01*
X81383333Y-81732380D02*
X81383333Y-80732380D01*
X81764285Y-80732380D01*
X81859523Y-80780000D01*
X81907142Y-80827619D01*
X81954761Y-80922857D01*
X81954761Y-81065714D01*
X81907142Y-81160952D01*
X81859523Y-81208571D01*
X81764285Y-81256190D01*
X81383333Y-81256190D01*
X82335714Y-81446666D02*
X82811904Y-81446666D01*
X82240476Y-81732380D02*
X82573809Y-80732380D01*
X82907142Y-81732380D01*
X83383333Y-81160952D02*
X83288095Y-81113333D01*
X83240476Y-81065714D01*
X83192857Y-80970476D01*
X83192857Y-80922857D01*
X83240476Y-80827619D01*
X83288095Y-80780000D01*
X83383333Y-80732380D01*
X83573809Y-80732380D01*
X83669047Y-80780000D01*
X83716666Y-80827619D01*
X83764285Y-80922857D01*
X83764285Y-80970476D01*
X83716666Y-81065714D01*
X83669047Y-81113333D01*
X83573809Y-81160952D01*
X83383333Y-81160952D01*
X83288095Y-81208571D01*
X83240476Y-81256190D01*
X83192857Y-81351428D01*
X83192857Y-81541904D01*
X83240476Y-81637142D01*
X83288095Y-81684761D01*
X83383333Y-81732380D01*
X83573809Y-81732380D01*
X83669047Y-81684761D01*
X83716666Y-81637142D01*
X83764285Y-81541904D01*
X83764285Y-81351428D01*
X83716666Y-81256190D01*
X83669047Y-81208571D01*
X83573809Y-81160952D01*
X80907142Y-69032380D02*
X80907142Y-68032380D01*
X81288095Y-68032380D01*
X81383333Y-68080000D01*
X81430952Y-68127619D01*
X81478571Y-68222857D01*
X81478571Y-68365714D01*
X81430952Y-68460952D01*
X81383333Y-68508571D01*
X81288095Y-68556190D01*
X80907142Y-68556190D01*
X81859523Y-68746666D02*
X82335714Y-68746666D01*
X81764285Y-69032380D02*
X82097619Y-68032380D01*
X82430952Y-69032380D01*
X83288095Y-69032380D02*
X82716666Y-69032380D01*
X83002380Y-69032380D02*
X83002380Y-68032380D01*
X82907142Y-68175238D01*
X82811904Y-68270476D01*
X82716666Y-68318095D01*
X84192857Y-68032380D02*
X83716666Y-68032380D01*
X83669047Y-68508571D01*
X83716666Y-68460952D01*
X83811904Y-68413333D01*
X84050000Y-68413333D01*
X84145238Y-68460952D01*
X84192857Y-68508571D01*
X84240476Y-68603809D01*
X84240476Y-68841904D01*
X84192857Y-68937142D01*
X84145238Y-68984761D01*
X84050000Y-69032380D01*
X83811904Y-69032380D01*
X83716666Y-68984761D01*
X83669047Y-68937142D01*
X81311904Y-63952380D02*
X81311904Y-62952380D01*
X81692857Y-62952380D01*
X81788095Y-63000000D01*
X81835714Y-63047619D01*
X81883333Y-63142857D01*
X81883333Y-63285714D01*
X81835714Y-63380952D01*
X81788095Y-63428571D01*
X81692857Y-63476190D01*
X81311904Y-63476190D01*
X82645238Y-63428571D02*
X82788095Y-63476190D01*
X82835714Y-63523809D01*
X82883333Y-63619047D01*
X82883333Y-63761904D01*
X82835714Y-63857142D01*
X82788095Y-63904761D01*
X82692857Y-63952380D01*
X82311904Y-63952380D01*
X82311904Y-62952380D01*
X82645238Y-62952380D01*
X82740476Y-63000000D01*
X82788095Y-63047619D01*
X82835714Y-63142857D01*
X82835714Y-63238095D01*
X82788095Y-63333333D01*
X82740476Y-63380952D01*
X82645238Y-63428571D01*
X82311904Y-63428571D01*
X83740476Y-63285714D02*
X83740476Y-63952380D01*
X83502380Y-62904761D02*
X83264285Y-63619047D01*
X83883333Y-63619047D01*
X80788095Y-45791428D02*
X81550000Y-45791428D01*
X81169047Y-46172380D02*
X81169047Y-45410476D01*
X81930952Y-45172380D02*
X82550000Y-45172380D01*
X82216666Y-45553333D01*
X82359523Y-45553333D01*
X82454761Y-45600952D01*
X82502380Y-45648571D01*
X82550000Y-45743809D01*
X82550000Y-45981904D01*
X82502380Y-46077142D01*
X82454761Y-46124761D01*
X82359523Y-46172380D01*
X82073809Y-46172380D01*
X81978571Y-46124761D01*
X81930952Y-46077142D01*
X82835714Y-45172380D02*
X83169047Y-46172380D01*
X83502380Y-45172380D01*
X83740476Y-45172380D02*
X84359523Y-45172380D01*
X84026190Y-45553333D01*
X84169047Y-45553333D01*
X84264285Y-45600952D01*
X84311904Y-45648571D01*
X84359523Y-45743809D01*
X84359523Y-45981904D01*
X84311904Y-46077142D01*
X84264285Y-46124761D01*
X84169047Y-46172380D01*
X83883333Y-46172380D01*
X83788095Y-46124761D01*
X83740476Y-46077142D01*
X80835714Y-94432380D02*
X80835714Y-93432380D01*
X81216666Y-93432380D01*
X81311904Y-93480000D01*
X81359523Y-93527619D01*
X81407142Y-93622857D01*
X81407142Y-93765714D01*
X81359523Y-93860952D01*
X81311904Y-93908571D01*
X81216666Y-93956190D01*
X80835714Y-93956190D01*
X82169047Y-93908571D02*
X82311904Y-93956190D01*
X82359523Y-94003809D01*
X82407142Y-94099047D01*
X82407142Y-94241904D01*
X82359523Y-94337142D01*
X82311904Y-94384761D01*
X82216666Y-94432380D01*
X81835714Y-94432380D01*
X81835714Y-93432380D01*
X82169047Y-93432380D01*
X82264285Y-93480000D01*
X82311904Y-93527619D01*
X82359523Y-93622857D01*
X82359523Y-93718095D01*
X82311904Y-93813333D01*
X82264285Y-93860952D01*
X82169047Y-93908571D01*
X81835714Y-93908571D01*
X83359523Y-94432380D02*
X82788095Y-94432380D01*
X83073809Y-94432380D02*
X83073809Y-93432380D01*
X82978571Y-93575238D01*
X82883333Y-93670476D01*
X82788095Y-93718095D01*
X84311904Y-94432380D02*
X83740476Y-94432380D01*
X84026190Y-94432380D02*
X84026190Y-93432380D01*
X83930952Y-93575238D01*
X83835714Y-93670476D01*
X83740476Y-93718095D01*
X80835714Y-91892380D02*
X80835714Y-90892380D01*
X81216666Y-90892380D01*
X81311904Y-90940000D01*
X81359523Y-90987619D01*
X81407142Y-91082857D01*
X81407142Y-91225714D01*
X81359523Y-91320952D01*
X81311904Y-91368571D01*
X81216666Y-91416190D01*
X80835714Y-91416190D01*
X82169047Y-91368571D02*
X82311904Y-91416190D01*
X82359523Y-91463809D01*
X82407142Y-91559047D01*
X82407142Y-91701904D01*
X82359523Y-91797142D01*
X82311904Y-91844761D01*
X82216666Y-91892380D01*
X81835714Y-91892380D01*
X81835714Y-90892380D01*
X82169047Y-90892380D01*
X82264285Y-90940000D01*
X82311904Y-90987619D01*
X82359523Y-91082857D01*
X82359523Y-91178095D01*
X82311904Y-91273333D01*
X82264285Y-91320952D01*
X82169047Y-91368571D01*
X81835714Y-91368571D01*
X83359523Y-91892380D02*
X82788095Y-91892380D01*
X83073809Y-91892380D02*
X83073809Y-90892380D01*
X82978571Y-91035238D01*
X82883333Y-91130476D01*
X82788095Y-91178095D01*
X83740476Y-90987619D02*
X83788095Y-90940000D01*
X83883333Y-90892380D01*
X84121428Y-90892380D01*
X84216666Y-90940000D01*
X84264285Y-90987619D01*
X84311904Y-91082857D01*
X84311904Y-91178095D01*
X84264285Y-91320952D01*
X83692857Y-91892380D01*
X84311904Y-91892380D01*
X81311904Y-51252380D02*
X81311904Y-50252380D01*
X81692857Y-50252380D01*
X81788095Y-50300000D01*
X81835714Y-50347619D01*
X81883333Y-50442857D01*
X81883333Y-50585714D01*
X81835714Y-50680952D01*
X81788095Y-50728571D01*
X81692857Y-50776190D01*
X81311904Y-50776190D01*
X82645238Y-50728571D02*
X82788095Y-50776190D01*
X82835714Y-50823809D01*
X82883333Y-50919047D01*
X82883333Y-51061904D01*
X82835714Y-51157142D01*
X82788095Y-51204761D01*
X82692857Y-51252380D01*
X82311904Y-51252380D01*
X82311904Y-50252380D01*
X82645238Y-50252380D01*
X82740476Y-50300000D01*
X82788095Y-50347619D01*
X82835714Y-50442857D01*
X82835714Y-50538095D01*
X82788095Y-50633333D01*
X82740476Y-50680952D01*
X82645238Y-50728571D01*
X82311904Y-50728571D01*
X83359523Y-51252380D02*
X83550000Y-51252380D01*
X83645238Y-51204761D01*
X83692857Y-51157142D01*
X83788095Y-51014285D01*
X83835714Y-50823809D01*
X83835714Y-50442857D01*
X83788095Y-50347619D01*
X83740476Y-50300000D01*
X83645238Y-50252380D01*
X83454761Y-50252380D01*
X83359523Y-50300000D01*
X83311904Y-50347619D01*
X83264285Y-50442857D01*
X83264285Y-50680952D01*
X83311904Y-50776190D01*
X83359523Y-50823809D01*
X83454761Y-50871428D01*
X83645238Y-50871428D01*
X83740476Y-50823809D01*
X83788095Y-50776190D01*
X83835714Y-50680952D01*
X80835714Y-84272380D02*
X80835714Y-83272380D01*
X81216666Y-83272380D01*
X81311904Y-83320000D01*
X81359523Y-83367619D01*
X81407142Y-83462857D01*
X81407142Y-83605714D01*
X81359523Y-83700952D01*
X81311904Y-83748571D01*
X81216666Y-83796190D01*
X80835714Y-83796190D01*
X82169047Y-83748571D02*
X82311904Y-83796190D01*
X82359523Y-83843809D01*
X82407142Y-83939047D01*
X82407142Y-84081904D01*
X82359523Y-84177142D01*
X82311904Y-84224761D01*
X82216666Y-84272380D01*
X81835714Y-84272380D01*
X81835714Y-83272380D01*
X82169047Y-83272380D01*
X82264285Y-83320000D01*
X82311904Y-83367619D01*
X82359523Y-83462857D01*
X82359523Y-83558095D01*
X82311904Y-83653333D01*
X82264285Y-83700952D01*
X82169047Y-83748571D01*
X81835714Y-83748571D01*
X83359523Y-84272380D02*
X82788095Y-84272380D01*
X83073809Y-84272380D02*
X83073809Y-83272380D01*
X82978571Y-83415238D01*
X82883333Y-83510476D01*
X82788095Y-83558095D01*
X84264285Y-83272380D02*
X83788095Y-83272380D01*
X83740476Y-83748571D01*
X83788095Y-83700952D01*
X83883333Y-83653333D01*
X84121428Y-83653333D01*
X84216666Y-83700952D01*
X84264285Y-83748571D01*
X84311904Y-83843809D01*
X84311904Y-84081904D01*
X84264285Y-84177142D01*
X84216666Y-84224761D01*
X84121428Y-84272380D01*
X83883333Y-84272380D01*
X83788095Y-84224761D01*
X83740476Y-84177142D01*
X80716666Y-53268571D02*
X80859523Y-53316190D01*
X80907142Y-53363809D01*
X80954761Y-53459047D01*
X80954761Y-53601904D01*
X80907142Y-53697142D01*
X80859523Y-53744761D01*
X80764285Y-53792380D01*
X80383333Y-53792380D01*
X80383333Y-52792380D01*
X80716666Y-52792380D01*
X80811904Y-52840000D01*
X80859523Y-52887619D01*
X80907142Y-52982857D01*
X80907142Y-53078095D01*
X80859523Y-53173333D01*
X80811904Y-53220952D01*
X80716666Y-53268571D01*
X80383333Y-53268571D01*
X81573809Y-52792380D02*
X81764285Y-52792380D01*
X81859523Y-52840000D01*
X81954761Y-52935238D01*
X82002380Y-53125714D01*
X82002380Y-53459047D01*
X81954761Y-53649523D01*
X81859523Y-53744761D01*
X81764285Y-53792380D01*
X81573809Y-53792380D01*
X81478571Y-53744761D01*
X81383333Y-53649523D01*
X81335714Y-53459047D01*
X81335714Y-53125714D01*
X81383333Y-52935238D01*
X81478571Y-52840000D01*
X81573809Y-52792380D01*
X82621428Y-52792380D02*
X82811904Y-52792380D01*
X82907142Y-52840000D01*
X83002380Y-52935238D01*
X83050000Y-53125714D01*
X83050000Y-53459047D01*
X83002380Y-53649523D01*
X82907142Y-53744761D01*
X82811904Y-53792380D01*
X82621428Y-53792380D01*
X82526190Y-53744761D01*
X82430952Y-53649523D01*
X82383333Y-53459047D01*
X82383333Y-53125714D01*
X82430952Y-52935238D01*
X82526190Y-52840000D01*
X82621428Y-52792380D01*
X83335714Y-52792380D02*
X83907142Y-52792380D01*
X83621428Y-53792380D02*
X83621428Y-52792380D01*
X84430952Y-52792380D02*
X84526190Y-52792380D01*
X84621428Y-52840000D01*
X84669047Y-52887619D01*
X84716666Y-52982857D01*
X84764285Y-53173333D01*
X84764285Y-53411428D01*
X84716666Y-53601904D01*
X84669047Y-53697142D01*
X84621428Y-53744761D01*
X84526190Y-53792380D01*
X84430952Y-53792380D01*
X84335714Y-53744761D01*
X84288095Y-53697142D01*
X84240476Y-53601904D01*
X84192857Y-53411428D01*
X84192857Y-53173333D01*
X84240476Y-52982857D01*
X84288095Y-52887619D01*
X84335714Y-52840000D01*
X84430952Y-52792380D01*
X55753095Y-93480000D02*
X55657857Y-93432380D01*
X55515000Y-93432380D01*
X55372142Y-93480000D01*
X55276904Y-93575238D01*
X55229285Y-93670476D01*
X55181666Y-93860952D01*
X55181666Y-94003809D01*
X55229285Y-94194285D01*
X55276904Y-94289523D01*
X55372142Y-94384761D01*
X55515000Y-94432380D01*
X55610238Y-94432380D01*
X55753095Y-94384761D01*
X55800714Y-94337142D01*
X55800714Y-94003809D01*
X55610238Y-94003809D01*
X56229285Y-94432380D02*
X56229285Y-93432380D01*
X56800714Y-94432380D01*
X56800714Y-93432380D01*
X57276904Y-94432380D02*
X57276904Y-93432380D01*
X57515000Y-93432380D01*
X57657857Y-93480000D01*
X57753095Y-93575238D01*
X57800714Y-93670476D01*
X57848333Y-93860952D01*
X57848333Y-94003809D01*
X57800714Y-94194285D01*
X57753095Y-94289523D01*
X57657857Y-94384761D01*
X57515000Y-94432380D01*
X57276904Y-94432380D01*
X55753095Y-90940000D02*
X55657857Y-90892380D01*
X55515000Y-90892380D01*
X55372142Y-90940000D01*
X55276904Y-91035238D01*
X55229285Y-91130476D01*
X55181666Y-91320952D01*
X55181666Y-91463809D01*
X55229285Y-91654285D01*
X55276904Y-91749523D01*
X55372142Y-91844761D01*
X55515000Y-91892380D01*
X55610238Y-91892380D01*
X55753095Y-91844761D01*
X55800714Y-91797142D01*
X55800714Y-91463809D01*
X55610238Y-91463809D01*
X56229285Y-91892380D02*
X56229285Y-90892380D01*
X56800714Y-91892380D01*
X56800714Y-90892380D01*
X57276904Y-91892380D02*
X57276904Y-90892380D01*
X57515000Y-90892380D01*
X57657857Y-90940000D01*
X57753095Y-91035238D01*
X57800714Y-91130476D01*
X57848333Y-91320952D01*
X57848333Y-91463809D01*
X57800714Y-91654285D01*
X57753095Y-91749523D01*
X57657857Y-91844761D01*
X57515000Y-91892380D01*
X57276904Y-91892380D01*
X55229285Y-88971428D02*
X55991190Y-88971428D01*
X55610238Y-89352380D02*
X55610238Y-88590476D01*
X56943571Y-88352380D02*
X56467380Y-88352380D01*
X56419761Y-88828571D01*
X56467380Y-88780952D01*
X56562619Y-88733333D01*
X56800714Y-88733333D01*
X56895952Y-88780952D01*
X56943571Y-88828571D01*
X56991190Y-88923809D01*
X56991190Y-89161904D01*
X56943571Y-89257142D01*
X56895952Y-89304761D01*
X56800714Y-89352380D01*
X56562619Y-89352380D01*
X56467380Y-89304761D01*
X56419761Y-89257142D01*
X57276904Y-88352380D02*
X57610238Y-89352380D01*
X57943571Y-88352380D01*
X55229285Y-86431428D02*
X55991190Y-86431428D01*
X55610238Y-86812380D02*
X55610238Y-86050476D01*
X56943571Y-85812380D02*
X56467380Y-85812380D01*
X56419761Y-86288571D01*
X56467380Y-86240952D01*
X56562619Y-86193333D01*
X56800714Y-86193333D01*
X56895952Y-86240952D01*
X56943571Y-86288571D01*
X56991190Y-86383809D01*
X56991190Y-86621904D01*
X56943571Y-86717142D01*
X56895952Y-86764761D01*
X56800714Y-86812380D01*
X56562619Y-86812380D01*
X56467380Y-86764761D01*
X56419761Y-86717142D01*
X57276904Y-85812380D02*
X57610238Y-86812380D01*
X57943571Y-85812380D01*
X54800714Y-84272380D02*
X54800714Y-83272380D01*
X55181666Y-83272380D01*
X55276904Y-83320000D01*
X55324523Y-83367619D01*
X55372142Y-83462857D01*
X55372142Y-83605714D01*
X55324523Y-83700952D01*
X55276904Y-83748571D01*
X55181666Y-83796190D01*
X54800714Y-83796190D01*
X56134047Y-83748571D02*
X56276904Y-83796190D01*
X56324523Y-83843809D01*
X56372142Y-83939047D01*
X56372142Y-84081904D01*
X56324523Y-84177142D01*
X56276904Y-84224761D01*
X56181666Y-84272380D01*
X55800714Y-84272380D01*
X55800714Y-83272380D01*
X56134047Y-83272380D01*
X56229285Y-83320000D01*
X56276904Y-83367619D01*
X56324523Y-83462857D01*
X56324523Y-83558095D01*
X56276904Y-83653333D01*
X56229285Y-83700952D01*
X56134047Y-83748571D01*
X55800714Y-83748571D01*
X57324523Y-84272380D02*
X56753095Y-84272380D01*
X57038809Y-84272380D02*
X57038809Y-83272380D01*
X56943571Y-83415238D01*
X56848333Y-83510476D01*
X56753095Y-83558095D01*
X57943571Y-83272380D02*
X58038809Y-83272380D01*
X58134047Y-83320000D01*
X58181666Y-83367619D01*
X58229285Y-83462857D01*
X58276904Y-83653333D01*
X58276904Y-83891428D01*
X58229285Y-84081904D01*
X58181666Y-84177142D01*
X58134047Y-84224761D01*
X58038809Y-84272380D01*
X57943571Y-84272380D01*
X57848333Y-84224761D01*
X57800714Y-84177142D01*
X57753095Y-84081904D01*
X57705476Y-83891428D01*
X57705476Y-83653333D01*
X57753095Y-83462857D01*
X57800714Y-83367619D01*
X57848333Y-83320000D01*
X57943571Y-83272380D01*
X55276904Y-81732380D02*
X55276904Y-80732380D01*
X55657857Y-80732380D01*
X55753095Y-80780000D01*
X55800714Y-80827619D01*
X55848333Y-80922857D01*
X55848333Y-81065714D01*
X55800714Y-81160952D01*
X55753095Y-81208571D01*
X55657857Y-81256190D01*
X55276904Y-81256190D01*
X56610238Y-81208571D02*
X56753095Y-81256190D01*
X56800714Y-81303809D01*
X56848333Y-81399047D01*
X56848333Y-81541904D01*
X56800714Y-81637142D01*
X56753095Y-81684761D01*
X56657857Y-81732380D01*
X56276904Y-81732380D01*
X56276904Y-80732380D01*
X56610238Y-80732380D01*
X56705476Y-80780000D01*
X56753095Y-80827619D01*
X56800714Y-80922857D01*
X56800714Y-81018095D01*
X56753095Y-81113333D01*
X56705476Y-81160952D01*
X56610238Y-81208571D01*
X56276904Y-81208571D01*
X57229285Y-80827619D02*
X57276904Y-80780000D01*
X57372142Y-80732380D01*
X57610238Y-80732380D01*
X57705476Y-80780000D01*
X57753095Y-80827619D01*
X57800714Y-80922857D01*
X57800714Y-81018095D01*
X57753095Y-81160952D01*
X57181666Y-81732380D01*
X57800714Y-81732380D01*
X55276904Y-79192380D02*
X55276904Y-78192380D01*
X55657857Y-78192380D01*
X55753095Y-78240000D01*
X55800714Y-78287619D01*
X55848333Y-78382857D01*
X55848333Y-78525714D01*
X55800714Y-78620952D01*
X55753095Y-78668571D01*
X55657857Y-78716190D01*
X55276904Y-78716190D01*
X56610238Y-78668571D02*
X56753095Y-78716190D01*
X56800714Y-78763809D01*
X56848333Y-78859047D01*
X56848333Y-79001904D01*
X56800714Y-79097142D01*
X56753095Y-79144761D01*
X56657857Y-79192380D01*
X56276904Y-79192380D01*
X56276904Y-78192380D01*
X56610238Y-78192380D01*
X56705476Y-78240000D01*
X56753095Y-78287619D01*
X56800714Y-78382857D01*
X56800714Y-78478095D01*
X56753095Y-78573333D01*
X56705476Y-78620952D01*
X56610238Y-78668571D01*
X56276904Y-78668571D01*
X57800714Y-79192380D02*
X57229285Y-79192380D01*
X57515000Y-79192380D02*
X57515000Y-78192380D01*
X57419761Y-78335238D01*
X57324523Y-78430476D01*
X57229285Y-78478095D01*
X55276904Y-76652380D02*
X55276904Y-75652380D01*
X55657857Y-75652380D01*
X55753095Y-75700000D01*
X55800714Y-75747619D01*
X55848333Y-75842857D01*
X55848333Y-75985714D01*
X55800714Y-76080952D01*
X55753095Y-76128571D01*
X55657857Y-76176190D01*
X55276904Y-76176190D01*
X56610238Y-76128571D02*
X56753095Y-76176190D01*
X56800714Y-76223809D01*
X56848333Y-76319047D01*
X56848333Y-76461904D01*
X56800714Y-76557142D01*
X56753095Y-76604761D01*
X56657857Y-76652380D01*
X56276904Y-76652380D01*
X56276904Y-75652380D01*
X56610238Y-75652380D01*
X56705476Y-75700000D01*
X56753095Y-75747619D01*
X56800714Y-75842857D01*
X56800714Y-75938095D01*
X56753095Y-76033333D01*
X56705476Y-76080952D01*
X56610238Y-76128571D01*
X56276904Y-76128571D01*
X57467380Y-75652380D02*
X57562619Y-75652380D01*
X57657857Y-75700000D01*
X57705476Y-75747619D01*
X57753095Y-75842857D01*
X57800714Y-76033333D01*
X57800714Y-76271428D01*
X57753095Y-76461904D01*
X57705476Y-76557142D01*
X57657857Y-76604761D01*
X57562619Y-76652380D01*
X57467380Y-76652380D01*
X57372142Y-76604761D01*
X57324523Y-76557142D01*
X57276904Y-76461904D01*
X57229285Y-76271428D01*
X57229285Y-76033333D01*
X57276904Y-75842857D01*
X57324523Y-75747619D01*
X57372142Y-75700000D01*
X57467380Y-75652380D01*
X55348333Y-74112380D02*
X55348333Y-73112380D01*
X55729285Y-73112380D01*
X55824523Y-73160000D01*
X55872142Y-73207619D01*
X55919761Y-73302857D01*
X55919761Y-73445714D01*
X55872142Y-73540952D01*
X55824523Y-73588571D01*
X55729285Y-73636190D01*
X55348333Y-73636190D01*
X56300714Y-73826666D02*
X56776904Y-73826666D01*
X56205476Y-74112380D02*
X56538809Y-73112380D01*
X56872142Y-74112380D01*
X57110238Y-73112380D02*
X57776904Y-73112380D01*
X57348333Y-74112380D01*
X55348333Y-71572380D02*
X55348333Y-70572380D01*
X55729285Y-70572380D01*
X55824523Y-70620000D01*
X55872142Y-70667619D01*
X55919761Y-70762857D01*
X55919761Y-70905714D01*
X55872142Y-71000952D01*
X55824523Y-71048571D01*
X55729285Y-71096190D01*
X55348333Y-71096190D01*
X56300714Y-71286666D02*
X56776904Y-71286666D01*
X56205476Y-71572380D02*
X56538809Y-70572380D01*
X56872142Y-71572380D01*
X57634047Y-70572380D02*
X57443571Y-70572380D01*
X57348333Y-70620000D01*
X57300714Y-70667619D01*
X57205476Y-70810476D01*
X57157857Y-71000952D01*
X57157857Y-71381904D01*
X57205476Y-71477142D01*
X57253095Y-71524761D01*
X57348333Y-71572380D01*
X57538809Y-71572380D01*
X57634047Y-71524761D01*
X57681666Y-71477142D01*
X57729285Y-71381904D01*
X57729285Y-71143809D01*
X57681666Y-71048571D01*
X57634047Y-71000952D01*
X57538809Y-70953333D01*
X57348333Y-70953333D01*
X57253095Y-71000952D01*
X57205476Y-71048571D01*
X57157857Y-71143809D01*
X55348333Y-69032380D02*
X55348333Y-68032380D01*
X55729285Y-68032380D01*
X55824523Y-68080000D01*
X55872142Y-68127619D01*
X55919761Y-68222857D01*
X55919761Y-68365714D01*
X55872142Y-68460952D01*
X55824523Y-68508571D01*
X55729285Y-68556190D01*
X55348333Y-68556190D01*
X56300714Y-68746666D02*
X56776904Y-68746666D01*
X56205476Y-69032380D02*
X56538809Y-68032380D01*
X56872142Y-69032380D01*
X57681666Y-68032380D02*
X57205476Y-68032380D01*
X57157857Y-68508571D01*
X57205476Y-68460952D01*
X57300714Y-68413333D01*
X57538809Y-68413333D01*
X57634047Y-68460952D01*
X57681666Y-68508571D01*
X57729285Y-68603809D01*
X57729285Y-68841904D01*
X57681666Y-68937142D01*
X57634047Y-68984761D01*
X57538809Y-69032380D01*
X57300714Y-69032380D01*
X57205476Y-68984761D01*
X57157857Y-68937142D01*
X55348333Y-66492380D02*
X55348333Y-65492380D01*
X55729285Y-65492380D01*
X55824523Y-65540000D01*
X55872142Y-65587619D01*
X55919761Y-65682857D01*
X55919761Y-65825714D01*
X55872142Y-65920952D01*
X55824523Y-65968571D01*
X55729285Y-66016190D01*
X55348333Y-66016190D01*
X56300714Y-66206666D02*
X56776904Y-66206666D01*
X56205476Y-66492380D02*
X56538809Y-65492380D01*
X56872142Y-66492380D01*
X57634047Y-65825714D02*
X57634047Y-66492380D01*
X57395952Y-65444761D02*
X57157857Y-66159047D01*
X57776904Y-66159047D01*
X55348333Y-63952380D02*
X55348333Y-62952380D01*
X55729285Y-62952380D01*
X55824523Y-63000000D01*
X55872142Y-63047619D01*
X55919761Y-63142857D01*
X55919761Y-63285714D01*
X55872142Y-63380952D01*
X55824523Y-63428571D01*
X55729285Y-63476190D01*
X55348333Y-63476190D01*
X56300714Y-63666666D02*
X56776904Y-63666666D01*
X56205476Y-63952380D02*
X56538809Y-62952380D01*
X56872142Y-63952380D01*
X57110238Y-62952380D02*
X57729285Y-62952380D01*
X57395952Y-63333333D01*
X57538809Y-63333333D01*
X57634047Y-63380952D01*
X57681666Y-63428571D01*
X57729285Y-63523809D01*
X57729285Y-63761904D01*
X57681666Y-63857142D01*
X57634047Y-63904761D01*
X57538809Y-63952380D01*
X57253095Y-63952380D01*
X57157857Y-63904761D01*
X57110238Y-63857142D01*
X55348333Y-61412380D02*
X55348333Y-60412380D01*
X55729285Y-60412380D01*
X55824523Y-60460000D01*
X55872142Y-60507619D01*
X55919761Y-60602857D01*
X55919761Y-60745714D01*
X55872142Y-60840952D01*
X55824523Y-60888571D01*
X55729285Y-60936190D01*
X55348333Y-60936190D01*
X56300714Y-61126666D02*
X56776904Y-61126666D01*
X56205476Y-61412380D02*
X56538809Y-60412380D01*
X56872142Y-61412380D01*
X57157857Y-60507619D02*
X57205476Y-60460000D01*
X57300714Y-60412380D01*
X57538809Y-60412380D01*
X57634047Y-60460000D01*
X57681666Y-60507619D01*
X57729285Y-60602857D01*
X57729285Y-60698095D01*
X57681666Y-60840952D01*
X57110238Y-61412380D01*
X57729285Y-61412380D01*
X55348333Y-58872380D02*
X55348333Y-57872380D01*
X55729285Y-57872380D01*
X55824523Y-57920000D01*
X55872142Y-57967619D01*
X55919761Y-58062857D01*
X55919761Y-58205714D01*
X55872142Y-58300952D01*
X55824523Y-58348571D01*
X55729285Y-58396190D01*
X55348333Y-58396190D01*
X56300714Y-58586666D02*
X56776904Y-58586666D01*
X56205476Y-58872380D02*
X56538809Y-57872380D01*
X56872142Y-58872380D01*
X57729285Y-58872380D02*
X57157857Y-58872380D01*
X57443571Y-58872380D02*
X57443571Y-57872380D01*
X57348333Y-58015238D01*
X57253095Y-58110476D01*
X57157857Y-58158095D01*
X55348333Y-56332380D02*
X55348333Y-55332380D01*
X55729285Y-55332380D01*
X55824523Y-55380000D01*
X55872142Y-55427619D01*
X55919761Y-55522857D01*
X55919761Y-55665714D01*
X55872142Y-55760952D01*
X55824523Y-55808571D01*
X55729285Y-55856190D01*
X55348333Y-55856190D01*
X56300714Y-56046666D02*
X56776904Y-56046666D01*
X56205476Y-56332380D02*
X56538809Y-55332380D01*
X56872142Y-56332380D01*
X57395952Y-55332380D02*
X57491190Y-55332380D01*
X57586428Y-55380000D01*
X57634047Y-55427619D01*
X57681666Y-55522857D01*
X57729285Y-55713333D01*
X57729285Y-55951428D01*
X57681666Y-56141904D01*
X57634047Y-56237142D01*
X57586428Y-56284761D01*
X57491190Y-56332380D01*
X57395952Y-56332380D01*
X57300714Y-56284761D01*
X57253095Y-56237142D01*
X57205476Y-56141904D01*
X57157857Y-55951428D01*
X57157857Y-55713333D01*
X57205476Y-55522857D01*
X57253095Y-55427619D01*
X57300714Y-55380000D01*
X57395952Y-55332380D01*
X55967380Y-53792380D02*
X55634047Y-53316190D01*
X55395952Y-53792380D02*
X55395952Y-52792380D01*
X55776904Y-52792380D01*
X55872142Y-52840000D01*
X55919761Y-52887619D01*
X55967380Y-52982857D01*
X55967380Y-53125714D01*
X55919761Y-53220952D01*
X55872142Y-53268571D01*
X55776904Y-53316190D01*
X55395952Y-53316190D01*
X56348333Y-53744761D02*
X56491190Y-53792380D01*
X56729285Y-53792380D01*
X56824523Y-53744761D01*
X56872142Y-53697142D01*
X56919761Y-53601904D01*
X56919761Y-53506666D01*
X56872142Y-53411428D01*
X56824523Y-53363809D01*
X56729285Y-53316190D01*
X56538809Y-53268571D01*
X56443571Y-53220952D01*
X56395952Y-53173333D01*
X56348333Y-53078095D01*
X56348333Y-52982857D01*
X56395952Y-52887619D01*
X56443571Y-52840000D01*
X56538809Y-52792380D01*
X56776904Y-52792380D01*
X56919761Y-52840000D01*
X57205476Y-52792380D02*
X57776904Y-52792380D01*
X57491190Y-53792380D02*
X57491190Y-52792380D01*
X54800714Y-51252380D02*
X54800714Y-50252380D01*
X55181666Y-50252380D01*
X55276904Y-50300000D01*
X55324523Y-50347619D01*
X55372142Y-50442857D01*
X55372142Y-50585714D01*
X55324523Y-50680952D01*
X55276904Y-50728571D01*
X55181666Y-50776190D01*
X54800714Y-50776190D01*
X56372142Y-51157142D02*
X56324523Y-51204761D01*
X56181666Y-51252380D01*
X56086428Y-51252380D01*
X55943571Y-51204761D01*
X55848333Y-51109523D01*
X55800714Y-51014285D01*
X55753095Y-50823809D01*
X55753095Y-50680952D01*
X55800714Y-50490476D01*
X55848333Y-50395238D01*
X55943571Y-50300000D01*
X56086428Y-50252380D01*
X56181666Y-50252380D01*
X56324523Y-50300000D01*
X56372142Y-50347619D01*
X57324523Y-51252380D02*
X56753095Y-51252380D01*
X57038809Y-51252380D02*
X57038809Y-50252380D01*
X56943571Y-50395238D01*
X56848333Y-50490476D01*
X56753095Y-50538095D01*
X57657857Y-50252380D02*
X58276904Y-50252380D01*
X57943571Y-50633333D01*
X58086428Y-50633333D01*
X58181666Y-50680952D01*
X58229285Y-50728571D01*
X58276904Y-50823809D01*
X58276904Y-51061904D01*
X58229285Y-51157142D01*
X58181666Y-51204761D01*
X58086428Y-51252380D01*
X57800714Y-51252380D01*
X57705476Y-51204761D01*
X57657857Y-51157142D01*
X54753095Y-48331428D02*
X55515000Y-48331428D01*
X55134047Y-48712380D02*
X55134047Y-47950476D01*
X55895952Y-47712380D02*
X56515000Y-47712380D01*
X56181666Y-48093333D01*
X56324523Y-48093333D01*
X56419761Y-48140952D01*
X56467380Y-48188571D01*
X56515000Y-48283809D01*
X56515000Y-48521904D01*
X56467380Y-48617142D01*
X56419761Y-48664761D01*
X56324523Y-48712380D01*
X56038809Y-48712380D01*
X55943571Y-48664761D01*
X55895952Y-48617142D01*
X56800714Y-47712380D02*
X57134047Y-48712380D01*
X57467380Y-47712380D01*
X57705476Y-47712380D02*
X58324523Y-47712380D01*
X57991190Y-48093333D01*
X58134047Y-48093333D01*
X58229285Y-48140952D01*
X58276904Y-48188571D01*
X58324523Y-48283809D01*
X58324523Y-48521904D01*
X58276904Y-48617142D01*
X58229285Y-48664761D01*
X58134047Y-48712380D01*
X57848333Y-48712380D01*
X57753095Y-48664761D01*
X57705476Y-48617142D01*
X54753095Y-45791428D02*
X55515000Y-45791428D01*
X55134047Y-46172380D02*
X55134047Y-45410476D01*
X55895952Y-45172380D02*
X56515000Y-45172380D01*
X56181666Y-45553333D01*
X56324523Y-45553333D01*
X56419761Y-45600952D01*
X56467380Y-45648571D01*
X56515000Y-45743809D01*
X56515000Y-45981904D01*
X56467380Y-46077142D01*
X56419761Y-46124761D01*
X56324523Y-46172380D01*
X56038809Y-46172380D01*
X55943571Y-46124761D01*
X55895952Y-46077142D01*
X56800714Y-45172380D02*
X57134047Y-46172380D01*
X57467380Y-45172380D01*
X57705476Y-45172380D02*
X58324523Y-45172380D01*
X57991190Y-45553333D01*
X58134047Y-45553333D01*
X58229285Y-45600952D01*
X58276904Y-45648571D01*
X58324523Y-45743809D01*
X58324523Y-45981904D01*
X58276904Y-46077142D01*
X58229285Y-46124761D01*
X58134047Y-46172380D01*
X57848333Y-46172380D01*
X57753095Y-46124761D01*
X57705476Y-46077142D01*
D11*
%TO.C,S1*%
X65479000Y-54396000D02*
X65479000Y-59396000D01*
X63739670Y-53901000D02*
X61304000Y-53901000D01*
X63796330Y-59891000D02*
X61204670Y-59891000D01*
X59489000Y-54396000D02*
X59489000Y-59396000D01*
X65340005Y-52391665D02*
G75*
G03*
X65340005Y-52391665I-99335J0D01*
G01*
D12*
%TO.C,IC1*%
X73000000Y-66700000D02*
X73000000Y-73000000D01*
X73000000Y-73000000D02*
X66700000Y-73000000D01*
X66700000Y-73000000D02*
X66700000Y-66700000D01*
X66700000Y-66700000D02*
X73000000Y-66700000D01*
D11*
X73475000Y-65125000D02*
G75*
G03*
X73475000Y-65125000I-125000J0D01*
G01*
D13*
%TO.C,Y2*%
X73358000Y-62820000D02*
X67358000Y-62820000D01*
X73358000Y-59100000D02*
X67358000Y-59100000D01*
%TO.C,R7*%
X70595258Y-58688500D02*
X70120742Y-58688500D01*
X70595258Y-57643500D02*
X70120742Y-57643500D01*
%TO.C,R5*%
X77168742Y-88885500D02*
X77643258Y-88885500D01*
X77168742Y-89930500D02*
X77643258Y-89930500D01*
%TO.C,R4*%
X77105742Y-91933500D02*
X77580258Y-91933500D01*
X77105742Y-92978500D02*
X77580258Y-92978500D01*
%TO.C,R3*%
X77105742Y-90409500D02*
X77580258Y-90409500D01*
X77105742Y-91454500D02*
X77580258Y-91454500D01*
%TO.C,R2*%
X62246742Y-61707500D02*
X62721258Y-61707500D01*
X62246742Y-62752500D02*
X62721258Y-62752500D01*
%TO.C,R1*%
X82818500Y-76406742D02*
X82818500Y-76881258D01*
X81773500Y-76406742D02*
X81773500Y-76881258D01*
%TO.C,J4*%
X85030000Y-95310000D02*
X87690000Y-95310000D01*
X85030000Y-46990000D02*
X85030000Y-95310000D01*
X87690000Y-46990000D02*
X87690000Y-95310000D01*
X85030000Y-46990000D02*
X87690000Y-46990000D01*
X85030000Y-45720000D02*
X85030000Y-44390000D01*
X85030000Y-44390000D02*
X86360000Y-44390000D01*
%TO.C,J3*%
X65726000Y-49106000D02*
X76006000Y-49106000D01*
X76006000Y-49106000D02*
X76006000Y-46446000D01*
X76006000Y-46446000D02*
X65726000Y-46446000D01*
X65726000Y-46446000D02*
X65726000Y-49106000D01*
X66676000Y-46446000D02*
X66676000Y-40446000D01*
X66676000Y-40446000D02*
X67436000Y-40446000D01*
X67436000Y-40446000D02*
X67436000Y-46446000D01*
X66736000Y-46446000D02*
X66736000Y-40446000D01*
X66856000Y-46446000D02*
X66856000Y-40446000D01*
X66976000Y-46446000D02*
X66976000Y-40446000D01*
X67096000Y-46446000D02*
X67096000Y-40446000D01*
X67216000Y-46446000D02*
X67216000Y-40446000D01*
X67336000Y-46446000D02*
X67336000Y-40446000D01*
X66676000Y-49436000D02*
X66676000Y-49106000D01*
X67436000Y-49436000D02*
X67436000Y-49106000D01*
X68326000Y-49106000D02*
X68326000Y-46446000D01*
X69216000Y-46446000D02*
X69216000Y-40446000D01*
X69216000Y-40446000D02*
X69976000Y-40446000D01*
X69976000Y-40446000D02*
X69976000Y-46446000D01*
X69216000Y-49503071D02*
X69216000Y-49106000D01*
X69976000Y-49503071D02*
X69976000Y-49106000D01*
X70866000Y-49106000D02*
X70866000Y-46446000D01*
X71756000Y-46446000D02*
X71756000Y-40446000D01*
X71756000Y-40446000D02*
X72516000Y-40446000D01*
X72516000Y-40446000D02*
X72516000Y-46446000D01*
X71756000Y-49503071D02*
X71756000Y-49106000D01*
X72516000Y-49503071D02*
X72516000Y-49106000D01*
X73406000Y-49106000D02*
X73406000Y-46446000D01*
X74296000Y-46446000D02*
X74296000Y-40446000D01*
X74296000Y-40446000D02*
X75056000Y-40446000D01*
X75056000Y-40446000D02*
X75056000Y-46446000D01*
X74296000Y-49503071D02*
X74296000Y-49106000D01*
X75056000Y-49503071D02*
X75056000Y-49106000D01*
X67056000Y-51816000D02*
X65786000Y-51816000D01*
X65786000Y-51816000D02*
X65786000Y-50546000D01*
%TO.C,J2*%
X52010000Y-95310000D02*
X54670000Y-95310000D01*
X52010000Y-46990000D02*
X52010000Y-95310000D01*
X54670000Y-46990000D02*
X54670000Y-95310000D01*
X52010000Y-46990000D02*
X54670000Y-46990000D01*
X52010000Y-45720000D02*
X52010000Y-44390000D01*
X52010000Y-44390000D02*
X53340000Y-44390000D01*
%TO.C,J1*%
X75886000Y-80895500D02*
X81086000Y-80895500D01*
X75886000Y-75755500D02*
X75886000Y-80895500D01*
X81086000Y-73155500D02*
X81086000Y-80895500D01*
X75886000Y-75755500D02*
X78486000Y-75755500D01*
X78486000Y-75755500D02*
X78486000Y-73155500D01*
X78486000Y-73155500D02*
X81086000Y-73155500D01*
X75886000Y-74485500D02*
X75886000Y-73155500D01*
X75886000Y-73155500D02*
X77216000Y-73155500D01*
%TO.C,FB1*%
X62607564Y-71855000D02*
X62153436Y-71855000D01*
X62607564Y-70385000D02*
X62153436Y-70385000D01*
%TO.C,D3*%
X73520500Y-90143000D02*
X75805500Y-90143000D01*
X75805500Y-90143000D02*
X75805500Y-88673000D01*
X75805500Y-88673000D02*
X73520500Y-88673000D01*
%TO.C,D2*%
X73495000Y-93191000D02*
X75780000Y-93191000D01*
X75780000Y-93191000D02*
X75780000Y-91721000D01*
X75780000Y-91721000D02*
X73495000Y-91721000D01*
%TO.C,D1*%
X73495000Y-91667000D02*
X75780000Y-91667000D01*
X75780000Y-91667000D02*
X75780000Y-90197000D01*
X75780000Y-90197000D02*
X73495000Y-90197000D01*
%TO.C,C14*%
X63640580Y-50802000D02*
X63359420Y-50802000D01*
X63640580Y-49782000D02*
X63359420Y-49782000D01*
%TO.C,C12*%
X77596420Y-59434000D02*
X77877580Y-59434000D01*
X77596420Y-60454000D02*
X77877580Y-60454000D01*
%TO.C,C11*%
X76567420Y-65784000D02*
X76848580Y-65784000D01*
X76567420Y-66804000D02*
X76848580Y-66804000D01*
%TO.C,C10*%
X64264000Y-74662420D02*
X64264000Y-74943580D01*
X63244000Y-74662420D02*
X63244000Y-74943580D01*
%TO.C,C9*%
X67450580Y-58676000D02*
X67169420Y-58676000D01*
X67450580Y-57656000D02*
X67169420Y-57656000D01*
%TO.C,C8*%
X74424000Y-76490920D02*
X74424000Y-76772080D01*
X73404000Y-76490920D02*
X73404000Y-76772080D01*
%TO.C,C7*%
X73252420Y-57656000D02*
X73533580Y-57656000D01*
X73252420Y-58676000D02*
X73533580Y-58676000D01*
%TO.C,C6*%
X77570420Y-60958000D02*
X77851580Y-60958000D01*
X77570420Y-61978000D02*
X77851580Y-61978000D01*
%TO.C,C3*%
X66042000Y-89775420D02*
X66042000Y-90056580D01*
X65022000Y-89775420D02*
X65022000Y-90056580D01*
%TO.C,C2*%
X57656000Y-57036580D02*
X57656000Y-56755420D01*
X58676000Y-57036580D02*
X58676000Y-56755420D01*
%TO.C,C1*%
X65899420Y-86104000D02*
X66180580Y-86104000D01*
X65899420Y-87124000D02*
X66180580Y-87124000D01*
%TO.C,S1*%
D11*
X63007377Y-57409289D02*
X63067853Y-57227860D01*
X63067853Y-56925479D01*
X63007377Y-56804527D01*
X62946901Y-56744050D01*
X62825949Y-56683574D01*
X62704996Y-56683574D01*
X62584044Y-56744050D01*
X62523568Y-56804527D01*
X62463091Y-56925479D01*
X62402615Y-57167384D01*
X62342139Y-57288336D01*
X62281663Y-57348812D01*
X62160710Y-57409289D01*
X62039758Y-57409289D01*
X61918806Y-57348812D01*
X61858330Y-57288336D01*
X61797853Y-57167384D01*
X61797853Y-56865003D01*
X61858330Y-56683574D01*
X63067853Y-55474050D02*
X63067853Y-56199765D01*
X63067853Y-55836908D02*
X61797853Y-55836908D01*
X61979282Y-55957860D01*
X62100234Y-56078812D01*
X62160710Y-56199765D01*
%TO.C,IC1*%
X70424523Y-71089761D02*
X69154523Y-71089761D01*
X70303571Y-69759285D02*
X70364047Y-69819761D01*
X70424523Y-70001190D01*
X70424523Y-70122142D01*
X70364047Y-70303571D01*
X70243095Y-70424523D01*
X70122142Y-70485000D01*
X69880238Y-70545476D01*
X69698809Y-70545476D01*
X69456904Y-70485000D01*
X69335952Y-70424523D01*
X69215000Y-70303571D01*
X69154523Y-70122142D01*
X69154523Y-70001190D01*
X69215000Y-69819761D01*
X69275476Y-69759285D01*
X70424523Y-68549761D02*
X70424523Y-69275476D01*
X70424523Y-68912619D02*
X69154523Y-68912619D01*
X69335952Y-69033571D01*
X69456904Y-69154523D01*
X69517380Y-69275476D01*
%TO.C,Y2*%
D10*
X69881809Y-63536190D02*
X69881809Y-64012380D01*
X69548476Y-63012380D02*
X69881809Y-63536190D01*
X70215142Y-63012380D01*
X70500857Y-63107619D02*
X70548476Y-63060000D01*
X70643714Y-63012380D01*
X70881809Y-63012380D01*
X70977047Y-63060000D01*
X71024666Y-63107619D01*
X71072285Y-63202857D01*
X71072285Y-63298095D01*
X71024666Y-63440952D01*
X70453238Y-64012380D01*
X71072285Y-64012380D01*
%TO.C,R7*%
X70191333Y-60048380D02*
X69858000Y-59572190D01*
X69619904Y-60048380D02*
X69619904Y-59048380D01*
X70000857Y-59048380D01*
X70096095Y-59096000D01*
X70143714Y-59143619D01*
X70191333Y-59238857D01*
X70191333Y-59381714D01*
X70143714Y-59476952D01*
X70096095Y-59524571D01*
X70000857Y-59572190D01*
X69619904Y-59572190D01*
X70524666Y-59048380D02*
X71191333Y-59048380D01*
X70762761Y-60048380D01*
%TO.C,R5*%
X79970333Y-89860380D02*
X79637000Y-89384190D01*
X79398904Y-89860380D02*
X79398904Y-88860380D01*
X79779857Y-88860380D01*
X79875095Y-88908000D01*
X79922714Y-88955619D01*
X79970333Y-89050857D01*
X79970333Y-89193714D01*
X79922714Y-89288952D01*
X79875095Y-89336571D01*
X79779857Y-89384190D01*
X79398904Y-89384190D01*
X80875095Y-88860380D02*
X80398904Y-88860380D01*
X80351285Y-89336571D01*
X80398904Y-89288952D01*
X80494142Y-89241333D01*
X80732238Y-89241333D01*
X80827476Y-89288952D01*
X80875095Y-89336571D01*
X80922714Y-89431809D01*
X80922714Y-89669904D01*
X80875095Y-89765142D01*
X80827476Y-89812761D01*
X80732238Y-89860380D01*
X80494142Y-89860380D01*
X80398904Y-89812761D01*
X80351285Y-89765142D01*
%TO.C,R4*%
X79970333Y-93162380D02*
X79637000Y-92686190D01*
X79398904Y-93162380D02*
X79398904Y-92162380D01*
X79779857Y-92162380D01*
X79875095Y-92210000D01*
X79922714Y-92257619D01*
X79970333Y-92352857D01*
X79970333Y-92495714D01*
X79922714Y-92590952D01*
X79875095Y-92638571D01*
X79779857Y-92686190D01*
X79398904Y-92686190D01*
X80827476Y-92495714D02*
X80827476Y-93162380D01*
X80589380Y-92114761D02*
X80351285Y-92829047D01*
X80970333Y-92829047D01*
%TO.C,R3*%
X79716333Y-91384380D02*
X79383000Y-90908190D01*
X79144904Y-91384380D02*
X79144904Y-90384380D01*
X79525857Y-90384380D01*
X79621095Y-90432000D01*
X79668714Y-90479619D01*
X79716333Y-90574857D01*
X79716333Y-90717714D01*
X79668714Y-90812952D01*
X79621095Y-90860571D01*
X79525857Y-90908190D01*
X79144904Y-90908190D01*
X80049666Y-90384380D02*
X80668714Y-90384380D01*
X80335380Y-90765333D01*
X80478238Y-90765333D01*
X80573476Y-90812952D01*
X80621095Y-90860571D01*
X80668714Y-90955809D01*
X80668714Y-91193904D01*
X80621095Y-91289142D01*
X80573476Y-91336761D01*
X80478238Y-91384380D01*
X80192523Y-91384380D01*
X80097285Y-91336761D01*
X80049666Y-91289142D01*
%TO.C,R2*%
X62317333Y-61252380D02*
X61984000Y-60776190D01*
X61745904Y-61252380D02*
X61745904Y-60252380D01*
X62126857Y-60252380D01*
X62222095Y-60300000D01*
X62269714Y-60347619D01*
X62317333Y-60442857D01*
X62317333Y-60585714D01*
X62269714Y-60680952D01*
X62222095Y-60728571D01*
X62126857Y-60776190D01*
X61745904Y-60776190D01*
X62698285Y-60347619D02*
X62745904Y-60300000D01*
X62841142Y-60252380D01*
X63079238Y-60252380D01*
X63174476Y-60300000D01*
X63222095Y-60347619D01*
X63269714Y-60442857D01*
X63269714Y-60538095D01*
X63222095Y-60680952D01*
X62650666Y-61252380D01*
X63269714Y-61252380D01*
%TO.C,R1*%
X84178380Y-76810666D02*
X83702190Y-77144000D01*
X84178380Y-77382095D02*
X83178380Y-77382095D01*
X83178380Y-77001142D01*
X83226000Y-76905904D01*
X83273619Y-76858285D01*
X83368857Y-76810666D01*
X83511714Y-76810666D01*
X83606952Y-76858285D01*
X83654571Y-76905904D01*
X83702190Y-77001142D01*
X83702190Y-77382095D01*
X84178380Y-75858285D02*
X84178380Y-76429714D01*
X84178380Y-76144000D02*
X83178380Y-76144000D01*
X83321238Y-76239238D01*
X83416476Y-76334476D01*
X83464095Y-76429714D01*
%TO.C,J4*%
X86026666Y-42842380D02*
X86026666Y-43556666D01*
X85979047Y-43699523D01*
X85883809Y-43794761D01*
X85740952Y-43842380D01*
X85645714Y-43842380D01*
X86931428Y-43175714D02*
X86931428Y-43842380D01*
X86693333Y-42794761D02*
X86455238Y-43509047D01*
X87074285Y-43509047D01*
%TO.C,J3*%
X64238380Y-46494333D02*
X64952666Y-46494333D01*
X65095523Y-46541952D01*
X65190761Y-46637190D01*
X65238380Y-46780047D01*
X65238380Y-46875285D01*
X64238380Y-46113380D02*
X64238380Y-45494333D01*
X64619333Y-45827666D01*
X64619333Y-45684809D01*
X64666952Y-45589571D01*
X64714571Y-45541952D01*
X64809809Y-45494333D01*
X65047904Y-45494333D01*
X65143142Y-45541952D01*
X65190761Y-45589571D01*
X65238380Y-45684809D01*
X65238380Y-45970523D01*
X65190761Y-46065761D01*
X65143142Y-46113380D01*
%TO.C,J2*%
X53006666Y-42842380D02*
X53006666Y-43556666D01*
X52959047Y-43699523D01*
X52863809Y-43794761D01*
X52720952Y-43842380D01*
X52625714Y-43842380D01*
X53435238Y-42937619D02*
X53482857Y-42890000D01*
X53578095Y-42842380D01*
X53816190Y-42842380D01*
X53911428Y-42890000D01*
X53959047Y-42937619D01*
X54006666Y-43032857D01*
X54006666Y-43128095D01*
X53959047Y-43270952D01*
X53387619Y-43842380D01*
X54006666Y-43842380D01*
%TO.C,J1*%
X78152666Y-71607880D02*
X78152666Y-72322166D01*
X78105047Y-72465023D01*
X78009809Y-72560261D01*
X77866952Y-72607880D01*
X77771714Y-72607880D01*
X79152666Y-72607880D02*
X78581238Y-72607880D01*
X78866952Y-72607880D02*
X78866952Y-71607880D01*
X78771714Y-71750738D01*
X78676476Y-71845976D01*
X78581238Y-71893595D01*
%TO.C,FB1*%
X61547166Y-72698571D02*
X61213833Y-72698571D01*
X61213833Y-73222380D02*
X61213833Y-72222380D01*
X61690023Y-72222380D01*
X62404309Y-72698571D02*
X62547166Y-72746190D01*
X62594785Y-72793809D01*
X62642404Y-72889047D01*
X62642404Y-73031904D01*
X62594785Y-73127142D01*
X62547166Y-73174761D01*
X62451928Y-73222380D01*
X62070976Y-73222380D01*
X62070976Y-72222380D01*
X62404309Y-72222380D01*
X62499547Y-72270000D01*
X62547166Y-72317619D01*
X62594785Y-72412857D01*
X62594785Y-72508095D01*
X62547166Y-72603333D01*
X62499547Y-72650952D01*
X62404309Y-72698571D01*
X62070976Y-72698571D01*
X63594785Y-73222380D02*
X63023357Y-73222380D01*
X63309071Y-73222380D02*
X63309071Y-72222380D01*
X63213833Y-72365238D01*
X63118595Y-72460476D01*
X63023357Y-72508095D01*
%TO.C,D3*%
X71016904Y-89860380D02*
X71016904Y-88860380D01*
X71255000Y-88860380D01*
X71397857Y-88908000D01*
X71493095Y-89003238D01*
X71540714Y-89098476D01*
X71588333Y-89288952D01*
X71588333Y-89431809D01*
X71540714Y-89622285D01*
X71493095Y-89717523D01*
X71397857Y-89812761D01*
X71255000Y-89860380D01*
X71016904Y-89860380D01*
X71921666Y-88860380D02*
X72540714Y-88860380D01*
X72207380Y-89241333D01*
X72350238Y-89241333D01*
X72445476Y-89288952D01*
X72493095Y-89336571D01*
X72540714Y-89431809D01*
X72540714Y-89669904D01*
X72493095Y-89765142D01*
X72445476Y-89812761D01*
X72350238Y-89860380D01*
X72064523Y-89860380D01*
X71969285Y-89812761D01*
X71921666Y-89765142D01*
%TO.C,D2*%
X71016904Y-92908380D02*
X71016904Y-91908380D01*
X71255000Y-91908380D01*
X71397857Y-91956000D01*
X71493095Y-92051238D01*
X71540714Y-92146476D01*
X71588333Y-92336952D01*
X71588333Y-92479809D01*
X71540714Y-92670285D01*
X71493095Y-92765523D01*
X71397857Y-92860761D01*
X71255000Y-92908380D01*
X71016904Y-92908380D01*
X71969285Y-92003619D02*
X72016904Y-91956000D01*
X72112142Y-91908380D01*
X72350238Y-91908380D01*
X72445476Y-91956000D01*
X72493095Y-92003619D01*
X72540714Y-92098857D01*
X72540714Y-92194095D01*
X72493095Y-92336952D01*
X71921666Y-92908380D01*
X72540714Y-92908380D01*
%TO.C,D1*%
X71016904Y-91384380D02*
X71016904Y-90384380D01*
X71255000Y-90384380D01*
X71397857Y-90432000D01*
X71493095Y-90527238D01*
X71540714Y-90622476D01*
X71588333Y-90812952D01*
X71588333Y-90955809D01*
X71540714Y-91146285D01*
X71493095Y-91241523D01*
X71397857Y-91336761D01*
X71255000Y-91384380D01*
X71016904Y-91384380D01*
X72540714Y-91384380D02*
X71969285Y-91384380D01*
X72255000Y-91384380D02*
X72255000Y-90384380D01*
X72159761Y-90527238D01*
X72064523Y-90622476D01*
X71969285Y-90670095D01*
%TO.C,C14*%
X62857142Y-52079142D02*
X62809523Y-52126761D01*
X62666666Y-52174380D01*
X62571428Y-52174380D01*
X62428571Y-52126761D01*
X62333333Y-52031523D01*
X62285714Y-51936285D01*
X62238095Y-51745809D01*
X62238095Y-51602952D01*
X62285714Y-51412476D01*
X62333333Y-51317238D01*
X62428571Y-51222000D01*
X62571428Y-51174380D01*
X62666666Y-51174380D01*
X62809523Y-51222000D01*
X62857142Y-51269619D01*
X63809523Y-52174380D02*
X63238095Y-52174380D01*
X63523809Y-52174380D02*
X63523809Y-51174380D01*
X63428571Y-51317238D01*
X63333333Y-51412476D01*
X63238095Y-51460095D01*
X64666666Y-51507714D02*
X64666666Y-52174380D01*
X64428571Y-51126761D02*
X64190476Y-51841047D01*
X64809523Y-51841047D01*
%TO.C,C12*%
X77094142Y-58871142D02*
X77046523Y-58918761D01*
X76903666Y-58966380D01*
X76808428Y-58966380D01*
X76665571Y-58918761D01*
X76570333Y-58823523D01*
X76522714Y-58728285D01*
X76475095Y-58537809D01*
X76475095Y-58394952D01*
X76522714Y-58204476D01*
X76570333Y-58109238D01*
X76665571Y-58014000D01*
X76808428Y-57966380D01*
X76903666Y-57966380D01*
X77046523Y-58014000D01*
X77094142Y-58061619D01*
X78046523Y-58966380D02*
X77475095Y-58966380D01*
X77760809Y-58966380D02*
X77760809Y-57966380D01*
X77665571Y-58109238D01*
X77570333Y-58204476D01*
X77475095Y-58252095D01*
X78427476Y-58061619D02*
X78475095Y-58014000D01*
X78570333Y-57966380D01*
X78808428Y-57966380D01*
X78903666Y-58014000D01*
X78951285Y-58061619D01*
X78998904Y-58156857D01*
X78998904Y-58252095D01*
X78951285Y-58394952D01*
X78379857Y-58966380D01*
X78998904Y-58966380D01*
%TO.C,C11*%
X76065142Y-65221142D02*
X76017523Y-65268761D01*
X75874666Y-65316380D01*
X75779428Y-65316380D01*
X75636571Y-65268761D01*
X75541333Y-65173523D01*
X75493714Y-65078285D01*
X75446095Y-64887809D01*
X75446095Y-64744952D01*
X75493714Y-64554476D01*
X75541333Y-64459238D01*
X75636571Y-64364000D01*
X75779428Y-64316380D01*
X75874666Y-64316380D01*
X76017523Y-64364000D01*
X76065142Y-64411619D01*
X77017523Y-65316380D02*
X76446095Y-65316380D01*
X76731809Y-65316380D02*
X76731809Y-64316380D01*
X76636571Y-64459238D01*
X76541333Y-64554476D01*
X76446095Y-64602095D01*
X77969904Y-65316380D02*
X77398476Y-65316380D01*
X77684190Y-65316380D02*
X77684190Y-64316380D01*
X77588952Y-64459238D01*
X77493714Y-64554476D01*
X77398476Y-64602095D01*
%TO.C,C10*%
X65541142Y-75445857D02*
X65588761Y-75493476D01*
X65636380Y-75636333D01*
X65636380Y-75731571D01*
X65588761Y-75874428D01*
X65493523Y-75969666D01*
X65398285Y-76017285D01*
X65207809Y-76064904D01*
X65064952Y-76064904D01*
X64874476Y-76017285D01*
X64779238Y-75969666D01*
X64684000Y-75874428D01*
X64636380Y-75731571D01*
X64636380Y-75636333D01*
X64684000Y-75493476D01*
X64731619Y-75445857D01*
X65636380Y-74493476D02*
X65636380Y-75064904D01*
X65636380Y-74779190D02*
X64636380Y-74779190D01*
X64779238Y-74874428D01*
X64874476Y-74969666D01*
X64922095Y-75064904D01*
X64636380Y-73874428D02*
X64636380Y-73779190D01*
X64684000Y-73683952D01*
X64731619Y-73636333D01*
X64826857Y-73588714D01*
X65017333Y-73541095D01*
X65255428Y-73541095D01*
X65445904Y-73588714D01*
X65541142Y-73636333D01*
X65588761Y-73683952D01*
X65636380Y-73779190D01*
X65636380Y-73874428D01*
X65588761Y-73969666D01*
X65541142Y-74017285D01*
X65445904Y-74064904D01*
X65255428Y-74112523D01*
X65017333Y-74112523D01*
X64826857Y-74064904D01*
X64731619Y-74017285D01*
X64684000Y-73969666D01*
X64636380Y-73874428D01*
%TO.C,C9*%
X67143333Y-59953142D02*
X67095714Y-60000761D01*
X66952857Y-60048380D01*
X66857619Y-60048380D01*
X66714761Y-60000761D01*
X66619523Y-59905523D01*
X66571904Y-59810285D01*
X66524285Y-59619809D01*
X66524285Y-59476952D01*
X66571904Y-59286476D01*
X66619523Y-59191238D01*
X66714761Y-59096000D01*
X66857619Y-59048380D01*
X66952857Y-59048380D01*
X67095714Y-59096000D01*
X67143333Y-59143619D01*
X67619523Y-60048380D02*
X67810000Y-60048380D01*
X67905238Y-60000761D01*
X67952857Y-59953142D01*
X68048095Y-59810285D01*
X68095714Y-59619809D01*
X68095714Y-59238857D01*
X68048095Y-59143619D01*
X68000476Y-59096000D01*
X67905238Y-59048380D01*
X67714761Y-59048380D01*
X67619523Y-59096000D01*
X67571904Y-59143619D01*
X67524285Y-59238857D01*
X67524285Y-59476952D01*
X67571904Y-59572190D01*
X67619523Y-59619809D01*
X67714761Y-59667428D01*
X67905238Y-59667428D01*
X68000476Y-59619809D01*
X68048095Y-59572190D01*
X68095714Y-59476952D01*
%TO.C,C8*%
X75701142Y-76798166D02*
X75748761Y-76845785D01*
X75796380Y-76988642D01*
X75796380Y-77083880D01*
X75748761Y-77226738D01*
X75653523Y-77321976D01*
X75558285Y-77369595D01*
X75367809Y-77417214D01*
X75224952Y-77417214D01*
X75034476Y-77369595D01*
X74939238Y-77321976D01*
X74844000Y-77226738D01*
X74796380Y-77083880D01*
X74796380Y-76988642D01*
X74844000Y-76845785D01*
X74891619Y-76798166D01*
X75224952Y-76226738D02*
X75177333Y-76321976D01*
X75129714Y-76369595D01*
X75034476Y-76417214D01*
X74986857Y-76417214D01*
X74891619Y-76369595D01*
X74844000Y-76321976D01*
X74796380Y-76226738D01*
X74796380Y-76036261D01*
X74844000Y-75941023D01*
X74891619Y-75893404D01*
X74986857Y-75845785D01*
X75034476Y-75845785D01*
X75129714Y-75893404D01*
X75177333Y-75941023D01*
X75224952Y-76036261D01*
X75224952Y-76226738D01*
X75272571Y-76321976D01*
X75320190Y-76369595D01*
X75415428Y-76417214D01*
X75605904Y-76417214D01*
X75701142Y-76369595D01*
X75748761Y-76321976D01*
X75796380Y-76226738D01*
X75796380Y-76036261D01*
X75748761Y-75941023D01*
X75701142Y-75893404D01*
X75605904Y-75845785D01*
X75415428Y-75845785D01*
X75320190Y-75893404D01*
X75272571Y-75941023D01*
X75224952Y-76036261D01*
%TO.C,C7*%
X73226333Y-57093142D02*
X73178714Y-57140761D01*
X73035857Y-57188380D01*
X72940619Y-57188380D01*
X72797761Y-57140761D01*
X72702523Y-57045523D01*
X72654904Y-56950285D01*
X72607285Y-56759809D01*
X72607285Y-56616952D01*
X72654904Y-56426476D01*
X72702523Y-56331238D01*
X72797761Y-56236000D01*
X72940619Y-56188380D01*
X73035857Y-56188380D01*
X73178714Y-56236000D01*
X73226333Y-56283619D01*
X73559666Y-56188380D02*
X74226333Y-56188380D01*
X73797761Y-57188380D01*
%TO.C,C6*%
X75017333Y-62079142D02*
X74969714Y-62126761D01*
X74826857Y-62174380D01*
X74731619Y-62174380D01*
X74588761Y-62126761D01*
X74493523Y-62031523D01*
X74445904Y-61936285D01*
X74398285Y-61745809D01*
X74398285Y-61602952D01*
X74445904Y-61412476D01*
X74493523Y-61317238D01*
X74588761Y-61222000D01*
X74731619Y-61174380D01*
X74826857Y-61174380D01*
X74969714Y-61222000D01*
X75017333Y-61269619D01*
X75874476Y-61174380D02*
X75684000Y-61174380D01*
X75588761Y-61222000D01*
X75541142Y-61269619D01*
X75445904Y-61412476D01*
X75398285Y-61602952D01*
X75398285Y-61983904D01*
X75445904Y-62079142D01*
X75493523Y-62126761D01*
X75588761Y-62174380D01*
X75779238Y-62174380D01*
X75874476Y-62126761D01*
X75922095Y-62079142D01*
X75969714Y-61983904D01*
X75969714Y-61745809D01*
X75922095Y-61650571D01*
X75874476Y-61602952D01*
X75779238Y-61555333D01*
X75588761Y-61555333D01*
X75493523Y-61602952D01*
X75445904Y-61650571D01*
X75398285Y-61745809D01*
%TO.C,C3*%
X67319142Y-90082666D02*
X67366761Y-90130285D01*
X67414380Y-90273142D01*
X67414380Y-90368380D01*
X67366761Y-90511238D01*
X67271523Y-90606476D01*
X67176285Y-90654095D01*
X66985809Y-90701714D01*
X66842952Y-90701714D01*
X66652476Y-90654095D01*
X66557238Y-90606476D01*
X66462000Y-90511238D01*
X66414380Y-90368380D01*
X66414380Y-90273142D01*
X66462000Y-90130285D01*
X66509619Y-90082666D01*
X66414380Y-89749333D02*
X66414380Y-89130285D01*
X66795333Y-89463619D01*
X66795333Y-89320761D01*
X66842952Y-89225523D01*
X66890571Y-89177904D01*
X66985809Y-89130285D01*
X67223904Y-89130285D01*
X67319142Y-89177904D01*
X67366761Y-89225523D01*
X67414380Y-89320761D01*
X67414380Y-89606476D01*
X67366761Y-89701714D01*
X67319142Y-89749333D01*
%TO.C,C2*%
X60682142Y-57062666D02*
X60729761Y-57110285D01*
X60777380Y-57253142D01*
X60777380Y-57348380D01*
X60729761Y-57491238D01*
X60634523Y-57586476D01*
X60539285Y-57634095D01*
X60348809Y-57681714D01*
X60205952Y-57681714D01*
X60015476Y-57634095D01*
X59920238Y-57586476D01*
X59825000Y-57491238D01*
X59777380Y-57348380D01*
X59777380Y-57253142D01*
X59825000Y-57110285D01*
X59872619Y-57062666D01*
X59872619Y-56681714D02*
X59825000Y-56634095D01*
X59777380Y-56538857D01*
X59777380Y-56300761D01*
X59825000Y-56205523D01*
X59872619Y-56157904D01*
X59967857Y-56110285D01*
X60063095Y-56110285D01*
X60205952Y-56157904D01*
X60777380Y-56729333D01*
X60777380Y-56110285D01*
%TO.C,C1*%
X65873333Y-85541142D02*
X65825714Y-85588761D01*
X65682857Y-85636380D01*
X65587619Y-85636380D01*
X65444761Y-85588761D01*
X65349523Y-85493523D01*
X65301904Y-85398285D01*
X65254285Y-85207809D01*
X65254285Y-85064952D01*
X65301904Y-84874476D01*
X65349523Y-84779238D01*
X65444761Y-84684000D01*
X65587619Y-84636380D01*
X65682857Y-84636380D01*
X65825714Y-84684000D01*
X65873333Y-84731619D01*
X66825714Y-85636380D02*
X66254285Y-85636380D01*
X66540000Y-85636380D02*
X66540000Y-84636380D01*
X66444761Y-84779238D01*
X66349523Y-84874476D01*
X66254285Y-84922095D01*
%TD*%
M02*
