%TF.GenerationSoftware,KiCad,Pcbnew,(5.1.9)-1*%
%TF.CreationDate,2021-02-22T18:11:06+01:00*%
%TF.ProjectId,bluePillG,626c7565-5069-46c6-9c47-2e6b69636164,rev?*%
%TF.SameCoordinates,Original*%
%TF.FileFunction,Soldermask,Bot*%
%TF.FilePolarity,Negative*%
%FSLAX46Y46*%
G04 Gerber Fmt 4.6, Leading zero omitted, Abs format (unit mm)*
G04 Created by KiCad (PCBNEW (5.1.9)-1) date 2021-02-22 18:11:06*
%MOMM*%
%LPD*%
G01*
G04 APERTURE LIST*
%ADD10R,2.150000X3.250000*%
%ADD11C,1.500000*%
%ADD12R,3.200000X10.500000*%
%ADD13C,1.000000*%
%ADD14O,1.700000X1.700000*%
%ADD15R,1.700000X1.700000*%
G04 APERTURE END LIST*
D10*
%TO.C,U1*%
X68940000Y-88900000D03*
G36*
G01*
X64215000Y-91745000D02*
X62065000Y-91745000D01*
G75*
G02*
X61995000Y-91675000I0J70000D01*
G01*
X61995000Y-90725000D01*
G75*
G02*
X62065000Y-90655000I70000J0D01*
G01*
X64215000Y-90655000D01*
G75*
G02*
X64285000Y-90725000I0J-70000D01*
G01*
X64285000Y-91675000D01*
G75*
G02*
X64215000Y-91745000I-70000J0D01*
G01*
G37*
G36*
G01*
X64215000Y-89445000D02*
X62065000Y-89445000D01*
G75*
G02*
X61995000Y-89375000I0J70000D01*
G01*
X61995000Y-88425000D01*
G75*
G02*
X62065000Y-88355000I70000J0D01*
G01*
X64215000Y-88355000D01*
G75*
G02*
X64285000Y-88425000I0J-70000D01*
G01*
X64285000Y-89375000D01*
G75*
G02*
X64215000Y-89445000I-70000J0D01*
G01*
G37*
G36*
G01*
X64215000Y-87145000D02*
X62065000Y-87145000D01*
G75*
G02*
X61995000Y-87075000I0J70000D01*
G01*
X61995000Y-86125000D01*
G75*
G02*
X62065000Y-86055000I70000J0D01*
G01*
X64215000Y-86055000D01*
G75*
G02*
X64285000Y-86125000I0J-70000D01*
G01*
X64285000Y-87075000D01*
G75*
G02*
X64215000Y-87145000I-70000J0D01*
G01*
G37*
%TD*%
D11*
%TO.C,S1*%
X60234000Y-60146000D03*
X60234000Y-53646000D03*
X64734000Y-60146000D03*
X64734000Y-53646000D03*
%TD*%
D12*
%TO.C,Y1*%
X72390000Y-72504000D03*
D13*
X71120000Y-63754000D03*
X73660000Y-63754000D03*
%TD*%
%TO.C,R6*%
G36*
G01*
X78822500Y-68940000D02*
X78822500Y-69490000D01*
G75*
G02*
X78622500Y-69690000I-200000J0D01*
G01*
X78222500Y-69690000D01*
G75*
G02*
X78022500Y-69490000I0J200000D01*
G01*
X78022500Y-68940000D01*
G75*
G02*
X78222500Y-68740000I200000J0D01*
G01*
X78622500Y-68740000D01*
G75*
G02*
X78822500Y-68940000I0J-200000D01*
G01*
G37*
G36*
G01*
X80472500Y-68940000D02*
X80472500Y-69490000D01*
G75*
G02*
X80272500Y-69690000I-200000J0D01*
G01*
X79872500Y-69690000D01*
G75*
G02*
X79672500Y-69490000I0J200000D01*
G01*
X79672500Y-68940000D01*
G75*
G02*
X79872500Y-68740000I200000J0D01*
G01*
X80272500Y-68740000D01*
G75*
G02*
X80472500Y-68940000I0J-200000D01*
G01*
G37*
%TD*%
D14*
%TO.C,J4*%
X86360000Y-93980000D03*
X86360000Y-91440000D03*
X86360000Y-88900000D03*
X86360000Y-86360000D03*
X86360000Y-83820000D03*
X86360000Y-81280000D03*
X86360000Y-78740000D03*
X86360000Y-76200000D03*
X86360000Y-73660000D03*
X86360000Y-71120000D03*
X86360000Y-68580000D03*
X86360000Y-66040000D03*
X86360000Y-63500000D03*
X86360000Y-60960000D03*
X86360000Y-58420000D03*
X86360000Y-55880000D03*
X86360000Y-53340000D03*
X86360000Y-50800000D03*
X86360000Y-48260000D03*
D15*
X86360000Y-45720000D03*
%TD*%
D14*
%TO.C,J3*%
X74676000Y-50546000D03*
X72136000Y-50546000D03*
X69596000Y-50546000D03*
D15*
X67056000Y-50546000D03*
%TD*%
D14*
%TO.C,J2*%
X53340000Y-93980000D03*
X53340000Y-91440000D03*
X53340000Y-88900000D03*
X53340000Y-86360000D03*
X53340000Y-83820000D03*
X53340000Y-81280000D03*
X53340000Y-78740000D03*
X53340000Y-76200000D03*
X53340000Y-73660000D03*
X53340000Y-71120000D03*
X53340000Y-68580000D03*
X53340000Y-66040000D03*
X53340000Y-63500000D03*
X53340000Y-60960000D03*
X53340000Y-58420000D03*
X53340000Y-55880000D03*
X53340000Y-53340000D03*
X53340000Y-50800000D03*
X53340000Y-48260000D03*
D15*
X53340000Y-45720000D03*
%TD*%
D14*
%TO.C,J1*%
X79756000Y-79565500D03*
X77216000Y-79565500D03*
X79756000Y-77025500D03*
X77216000Y-77025500D03*
X79756000Y-74485500D03*
D15*
X77216000Y-74485500D03*
%TD*%
%TO.C,C13*%
G36*
G01*
X62159000Y-70870000D02*
X62159000Y-71370000D01*
G75*
G02*
X61934000Y-71595000I-225000J0D01*
G01*
X61484000Y-71595000D01*
G75*
G02*
X61259000Y-71370000I0J225000D01*
G01*
X61259000Y-70870000D01*
G75*
G02*
X61484000Y-70645000I225000J0D01*
G01*
X61934000Y-70645000D01*
G75*
G02*
X62159000Y-70870000I0J-225000D01*
G01*
G37*
G36*
G01*
X63709000Y-70870000D02*
X63709000Y-71370000D01*
G75*
G02*
X63484000Y-71595000I-225000J0D01*
G01*
X63034000Y-71595000D01*
G75*
G02*
X62809000Y-71370000I0J225000D01*
G01*
X62809000Y-70870000D01*
G75*
G02*
X63034000Y-70645000I225000J0D01*
G01*
X63484000Y-70645000D01*
G75*
G02*
X63709000Y-70870000I0J-225000D01*
G01*
G37*
%TD*%
%TO.C,C5*%
G36*
G01*
X67861000Y-62996000D02*
X67861000Y-63496000D01*
G75*
G02*
X67636000Y-63721000I-225000J0D01*
G01*
X67186000Y-63721000D01*
G75*
G02*
X66961000Y-63496000I0J225000D01*
G01*
X66961000Y-62996000D01*
G75*
G02*
X67186000Y-62771000I225000J0D01*
G01*
X67636000Y-62771000D01*
G75*
G02*
X67861000Y-62996000I0J-225000D01*
G01*
G37*
G36*
G01*
X69411000Y-62996000D02*
X69411000Y-63496000D01*
G75*
G02*
X69186000Y-63721000I-225000J0D01*
G01*
X68736000Y-63721000D01*
G75*
G02*
X68511000Y-63496000I0J225000D01*
G01*
X68511000Y-62996000D01*
G75*
G02*
X68736000Y-62771000I225000J0D01*
G01*
X69186000Y-62771000D01*
G75*
G02*
X69411000Y-62996000I0J-225000D01*
G01*
G37*
%TD*%
%TO.C,C4*%
G36*
G01*
X75442000Y-64841000D02*
X75942000Y-64841000D01*
G75*
G02*
X76167000Y-65066000I0J-225000D01*
G01*
X76167000Y-65516000D01*
G75*
G02*
X75942000Y-65741000I-225000J0D01*
G01*
X75442000Y-65741000D01*
G75*
G02*
X75217000Y-65516000I0J225000D01*
G01*
X75217000Y-65066000D01*
G75*
G02*
X75442000Y-64841000I225000J0D01*
G01*
G37*
G36*
G01*
X75442000Y-63291000D02*
X75942000Y-63291000D01*
G75*
G02*
X76167000Y-63516000I0J-225000D01*
G01*
X76167000Y-63966000D01*
G75*
G02*
X75942000Y-64191000I-225000J0D01*
G01*
X75442000Y-64191000D01*
G75*
G02*
X75217000Y-63966000I0J225000D01*
G01*
X75217000Y-63516000D01*
G75*
G02*
X75442000Y-63291000I225000J0D01*
G01*
G37*
%TD*%
M02*
