%TF.GenerationSoftware,KiCad,Pcbnew,(5.1.9)-1*%
%TF.CreationDate,2021-02-22T18:11:06+01:00*%
%TF.ProjectId,bluePillG,626c7565-5069-46c6-9c47-2e6b69636164,rev?*%
%TF.SameCoordinates,Original*%
%TF.FileFunction,Legend,Top*%
%TF.FilePolarity,Positive*%
%FSLAX46Y46*%
G04 Gerber Fmt 4.6, Leading zero omitted, Abs format (unit mm)*
G04 Created by KiCad (PCBNEW (5.1.9)-1) date 2021-02-22 18:11:06*
%MOMM*%
%LPD*%
G01*
G04 APERTURE LIST*
%ADD10C,0.254000*%
%ADD11C,0.200000*%
%ADD12C,0.120000*%
%ADD13C,0.150000*%
G04 APERTURE END LIST*
D10*
%TO.C,S1*%
X65340005Y-52391665D02*
G75*
G03*
X65340005Y-52391665I-99335J0D01*
G01*
X59489000Y-54396000D02*
X59489000Y-59396000D01*
X63796330Y-59891000D02*
X61204670Y-59891000D01*
X63739670Y-53901000D02*
X61304000Y-53901000D01*
X65479000Y-54396000D02*
X65479000Y-59396000D01*
%TO.C,IC1*%
X73475000Y-65125000D02*
G75*
G03*
X73475000Y-65125000I-125000J0D01*
G01*
D11*
X66700000Y-66700000D02*
X73000000Y-66700000D01*
X66700000Y-73000000D02*
X66700000Y-66700000D01*
X73000000Y-73000000D02*
X66700000Y-73000000D01*
X73000000Y-66700000D02*
X73000000Y-73000000D01*
D12*
%TO.C,Y2*%
X73358000Y-59100000D02*
X67358000Y-59100000D01*
X73358000Y-62820000D02*
X67358000Y-62820000D01*
%TO.C,R7*%
X70595258Y-57643500D02*
X70120742Y-57643500D01*
X70595258Y-58688500D02*
X70120742Y-58688500D01*
%TO.C,R5*%
X77168742Y-89930500D02*
X77643258Y-89930500D01*
X77168742Y-88885500D02*
X77643258Y-88885500D01*
%TO.C,R4*%
X77105742Y-92978500D02*
X77580258Y-92978500D01*
X77105742Y-91933500D02*
X77580258Y-91933500D01*
%TO.C,R3*%
X77105742Y-91454500D02*
X77580258Y-91454500D01*
X77105742Y-90409500D02*
X77580258Y-90409500D01*
%TO.C,R2*%
X62246742Y-62752500D02*
X62721258Y-62752500D01*
X62246742Y-61707500D02*
X62721258Y-61707500D01*
%TO.C,R1*%
X81773500Y-76406742D02*
X81773500Y-76881258D01*
X82818500Y-76406742D02*
X82818500Y-76881258D01*
%TO.C,J4*%
X85030000Y-44390000D02*
X86360000Y-44390000D01*
X85030000Y-45720000D02*
X85030000Y-44390000D01*
X85030000Y-46990000D02*
X87690000Y-46990000D01*
X87690000Y-46990000D02*
X87690000Y-95310000D01*
X85030000Y-46990000D02*
X85030000Y-95310000D01*
X85030000Y-95310000D02*
X87690000Y-95310000D01*
%TO.C,J3*%
X65786000Y-51816000D02*
X65786000Y-50546000D01*
X67056000Y-51816000D02*
X65786000Y-51816000D01*
X75056000Y-49503071D02*
X75056000Y-49106000D01*
X74296000Y-49503071D02*
X74296000Y-49106000D01*
X75056000Y-40446000D02*
X75056000Y-46446000D01*
X74296000Y-40446000D02*
X75056000Y-40446000D01*
X74296000Y-46446000D02*
X74296000Y-40446000D01*
X73406000Y-49106000D02*
X73406000Y-46446000D01*
X72516000Y-49503071D02*
X72516000Y-49106000D01*
X71756000Y-49503071D02*
X71756000Y-49106000D01*
X72516000Y-40446000D02*
X72516000Y-46446000D01*
X71756000Y-40446000D02*
X72516000Y-40446000D01*
X71756000Y-46446000D02*
X71756000Y-40446000D01*
X70866000Y-49106000D02*
X70866000Y-46446000D01*
X69976000Y-49503071D02*
X69976000Y-49106000D01*
X69216000Y-49503071D02*
X69216000Y-49106000D01*
X69976000Y-40446000D02*
X69976000Y-46446000D01*
X69216000Y-40446000D02*
X69976000Y-40446000D01*
X69216000Y-46446000D02*
X69216000Y-40446000D01*
X68326000Y-49106000D02*
X68326000Y-46446000D01*
X67436000Y-49436000D02*
X67436000Y-49106000D01*
X66676000Y-49436000D02*
X66676000Y-49106000D01*
X67336000Y-46446000D02*
X67336000Y-40446000D01*
X67216000Y-46446000D02*
X67216000Y-40446000D01*
X67096000Y-46446000D02*
X67096000Y-40446000D01*
X66976000Y-46446000D02*
X66976000Y-40446000D01*
X66856000Y-46446000D02*
X66856000Y-40446000D01*
X66736000Y-46446000D02*
X66736000Y-40446000D01*
X67436000Y-40446000D02*
X67436000Y-46446000D01*
X66676000Y-40446000D02*
X67436000Y-40446000D01*
X66676000Y-46446000D02*
X66676000Y-40446000D01*
X65726000Y-46446000D02*
X65726000Y-49106000D01*
X76006000Y-46446000D02*
X65726000Y-46446000D01*
X76006000Y-49106000D02*
X76006000Y-46446000D01*
X65726000Y-49106000D02*
X76006000Y-49106000D01*
%TO.C,J2*%
X52010000Y-44390000D02*
X53340000Y-44390000D01*
X52010000Y-45720000D02*
X52010000Y-44390000D01*
X52010000Y-46990000D02*
X54670000Y-46990000D01*
X54670000Y-46990000D02*
X54670000Y-95310000D01*
X52010000Y-46990000D02*
X52010000Y-95310000D01*
X52010000Y-95310000D02*
X54670000Y-95310000D01*
%TO.C,J1*%
X75886000Y-73155500D02*
X77216000Y-73155500D01*
X75886000Y-74485500D02*
X75886000Y-73155500D01*
X78486000Y-73155500D02*
X81086000Y-73155500D01*
X78486000Y-75755500D02*
X78486000Y-73155500D01*
X75886000Y-75755500D02*
X78486000Y-75755500D01*
X81086000Y-73155500D02*
X81086000Y-80895500D01*
X75886000Y-75755500D02*
X75886000Y-80895500D01*
X75886000Y-80895500D02*
X81086000Y-80895500D01*
%TO.C,FB1*%
X62607564Y-70385000D02*
X62153436Y-70385000D01*
X62607564Y-71855000D02*
X62153436Y-71855000D01*
%TO.C,D3*%
X75805500Y-88673000D02*
X73520500Y-88673000D01*
X75805500Y-90143000D02*
X75805500Y-88673000D01*
X73520500Y-90143000D02*
X75805500Y-90143000D01*
%TO.C,D2*%
X75780000Y-91721000D02*
X73495000Y-91721000D01*
X75780000Y-93191000D02*
X75780000Y-91721000D01*
X73495000Y-93191000D02*
X75780000Y-93191000D01*
%TO.C,D1*%
X75780000Y-90197000D02*
X73495000Y-90197000D01*
X75780000Y-91667000D02*
X75780000Y-90197000D01*
X73495000Y-91667000D02*
X75780000Y-91667000D01*
%TO.C,C14*%
X63640580Y-49782000D02*
X63359420Y-49782000D01*
X63640580Y-50802000D02*
X63359420Y-50802000D01*
%TO.C,C12*%
X77596420Y-60454000D02*
X77877580Y-60454000D01*
X77596420Y-59434000D02*
X77877580Y-59434000D01*
%TO.C,C11*%
X76567420Y-66804000D02*
X76848580Y-66804000D01*
X76567420Y-65784000D02*
X76848580Y-65784000D01*
%TO.C,C10*%
X63244000Y-74662420D02*
X63244000Y-74943580D01*
X64264000Y-74662420D02*
X64264000Y-74943580D01*
%TO.C,C9*%
X67450580Y-57656000D02*
X67169420Y-57656000D01*
X67450580Y-58676000D02*
X67169420Y-58676000D01*
%TO.C,C8*%
X73404000Y-76490920D02*
X73404000Y-76772080D01*
X74424000Y-76490920D02*
X74424000Y-76772080D01*
%TO.C,C7*%
X73252420Y-58676000D02*
X73533580Y-58676000D01*
X73252420Y-57656000D02*
X73533580Y-57656000D01*
%TO.C,C6*%
X77570420Y-61978000D02*
X77851580Y-61978000D01*
X77570420Y-60958000D02*
X77851580Y-60958000D01*
%TO.C,C3*%
X65022000Y-89775420D02*
X65022000Y-90056580D01*
X66042000Y-89775420D02*
X66042000Y-90056580D01*
%TO.C,C2*%
X58676000Y-57036580D02*
X58676000Y-56755420D01*
X57656000Y-57036580D02*
X57656000Y-56755420D01*
%TO.C,C1*%
X65899420Y-87124000D02*
X66180580Y-87124000D01*
X65899420Y-86104000D02*
X66180580Y-86104000D01*
%TO.C,S1*%
D10*
X63007377Y-57409289D02*
X63067853Y-57227860D01*
X63067853Y-56925479D01*
X63007377Y-56804527D01*
X62946901Y-56744050D01*
X62825949Y-56683574D01*
X62704996Y-56683574D01*
X62584044Y-56744050D01*
X62523568Y-56804527D01*
X62463091Y-56925479D01*
X62402615Y-57167384D01*
X62342139Y-57288336D01*
X62281663Y-57348812D01*
X62160710Y-57409289D01*
X62039758Y-57409289D01*
X61918806Y-57348812D01*
X61858330Y-57288336D01*
X61797853Y-57167384D01*
X61797853Y-56865003D01*
X61858330Y-56683574D01*
X63067853Y-55474050D02*
X63067853Y-56199765D01*
X63067853Y-55836908D02*
X61797853Y-55836908D01*
X61979282Y-55957860D01*
X62100234Y-56078812D01*
X62160710Y-56199765D01*
%TO.C,IC1*%
X70424523Y-71089761D02*
X69154523Y-71089761D01*
X70303571Y-69759285D02*
X70364047Y-69819761D01*
X70424523Y-70001190D01*
X70424523Y-70122142D01*
X70364047Y-70303571D01*
X70243095Y-70424523D01*
X70122142Y-70485000D01*
X69880238Y-70545476D01*
X69698809Y-70545476D01*
X69456904Y-70485000D01*
X69335952Y-70424523D01*
X69215000Y-70303571D01*
X69154523Y-70122142D01*
X69154523Y-70001190D01*
X69215000Y-69819761D01*
X69275476Y-69759285D01*
X70424523Y-68549761D02*
X70424523Y-69275476D01*
X70424523Y-68912619D02*
X69154523Y-68912619D01*
X69335952Y-69033571D01*
X69456904Y-69154523D01*
X69517380Y-69275476D01*
%TO.C,Y2*%
D13*
X69881809Y-63536190D02*
X69881809Y-64012380D01*
X69548476Y-63012380D02*
X69881809Y-63536190D01*
X70215142Y-63012380D01*
X70500857Y-63107619D02*
X70548476Y-63060000D01*
X70643714Y-63012380D01*
X70881809Y-63012380D01*
X70977047Y-63060000D01*
X71024666Y-63107619D01*
X71072285Y-63202857D01*
X71072285Y-63298095D01*
X71024666Y-63440952D01*
X70453238Y-64012380D01*
X71072285Y-64012380D01*
%TO.C,R7*%
X70191333Y-60048380D02*
X69858000Y-59572190D01*
X69619904Y-60048380D02*
X69619904Y-59048380D01*
X70000857Y-59048380D01*
X70096095Y-59096000D01*
X70143714Y-59143619D01*
X70191333Y-59238857D01*
X70191333Y-59381714D01*
X70143714Y-59476952D01*
X70096095Y-59524571D01*
X70000857Y-59572190D01*
X69619904Y-59572190D01*
X70524666Y-59048380D02*
X71191333Y-59048380D01*
X70762761Y-60048380D01*
%TO.C,R5*%
X79970333Y-89860380D02*
X79637000Y-89384190D01*
X79398904Y-89860380D02*
X79398904Y-88860380D01*
X79779857Y-88860380D01*
X79875095Y-88908000D01*
X79922714Y-88955619D01*
X79970333Y-89050857D01*
X79970333Y-89193714D01*
X79922714Y-89288952D01*
X79875095Y-89336571D01*
X79779857Y-89384190D01*
X79398904Y-89384190D01*
X80875095Y-88860380D02*
X80398904Y-88860380D01*
X80351285Y-89336571D01*
X80398904Y-89288952D01*
X80494142Y-89241333D01*
X80732238Y-89241333D01*
X80827476Y-89288952D01*
X80875095Y-89336571D01*
X80922714Y-89431809D01*
X80922714Y-89669904D01*
X80875095Y-89765142D01*
X80827476Y-89812761D01*
X80732238Y-89860380D01*
X80494142Y-89860380D01*
X80398904Y-89812761D01*
X80351285Y-89765142D01*
%TO.C,R4*%
X79970333Y-93162380D02*
X79637000Y-92686190D01*
X79398904Y-93162380D02*
X79398904Y-92162380D01*
X79779857Y-92162380D01*
X79875095Y-92210000D01*
X79922714Y-92257619D01*
X79970333Y-92352857D01*
X79970333Y-92495714D01*
X79922714Y-92590952D01*
X79875095Y-92638571D01*
X79779857Y-92686190D01*
X79398904Y-92686190D01*
X80827476Y-92495714D02*
X80827476Y-93162380D01*
X80589380Y-92114761D02*
X80351285Y-92829047D01*
X80970333Y-92829047D01*
%TO.C,R3*%
X79716333Y-91384380D02*
X79383000Y-90908190D01*
X79144904Y-91384380D02*
X79144904Y-90384380D01*
X79525857Y-90384380D01*
X79621095Y-90432000D01*
X79668714Y-90479619D01*
X79716333Y-90574857D01*
X79716333Y-90717714D01*
X79668714Y-90812952D01*
X79621095Y-90860571D01*
X79525857Y-90908190D01*
X79144904Y-90908190D01*
X80049666Y-90384380D02*
X80668714Y-90384380D01*
X80335380Y-90765333D01*
X80478238Y-90765333D01*
X80573476Y-90812952D01*
X80621095Y-90860571D01*
X80668714Y-90955809D01*
X80668714Y-91193904D01*
X80621095Y-91289142D01*
X80573476Y-91336761D01*
X80478238Y-91384380D01*
X80192523Y-91384380D01*
X80097285Y-91336761D01*
X80049666Y-91289142D01*
%TO.C,R2*%
X62317333Y-61252380D02*
X61984000Y-60776190D01*
X61745904Y-61252380D02*
X61745904Y-60252380D01*
X62126857Y-60252380D01*
X62222095Y-60300000D01*
X62269714Y-60347619D01*
X62317333Y-60442857D01*
X62317333Y-60585714D01*
X62269714Y-60680952D01*
X62222095Y-60728571D01*
X62126857Y-60776190D01*
X61745904Y-60776190D01*
X62698285Y-60347619D02*
X62745904Y-60300000D01*
X62841142Y-60252380D01*
X63079238Y-60252380D01*
X63174476Y-60300000D01*
X63222095Y-60347619D01*
X63269714Y-60442857D01*
X63269714Y-60538095D01*
X63222095Y-60680952D01*
X62650666Y-61252380D01*
X63269714Y-61252380D01*
%TO.C,R1*%
X84178380Y-76810666D02*
X83702190Y-77144000D01*
X84178380Y-77382095D02*
X83178380Y-77382095D01*
X83178380Y-77001142D01*
X83226000Y-76905904D01*
X83273619Y-76858285D01*
X83368857Y-76810666D01*
X83511714Y-76810666D01*
X83606952Y-76858285D01*
X83654571Y-76905904D01*
X83702190Y-77001142D01*
X83702190Y-77382095D01*
X84178380Y-75858285D02*
X84178380Y-76429714D01*
X84178380Y-76144000D02*
X83178380Y-76144000D01*
X83321238Y-76239238D01*
X83416476Y-76334476D01*
X83464095Y-76429714D01*
%TO.C,J4*%
X86026666Y-42842380D02*
X86026666Y-43556666D01*
X85979047Y-43699523D01*
X85883809Y-43794761D01*
X85740952Y-43842380D01*
X85645714Y-43842380D01*
X86931428Y-43175714D02*
X86931428Y-43842380D01*
X86693333Y-42794761D02*
X86455238Y-43509047D01*
X87074285Y-43509047D01*
%TO.C,J3*%
X64238380Y-46494333D02*
X64952666Y-46494333D01*
X65095523Y-46541952D01*
X65190761Y-46637190D01*
X65238380Y-46780047D01*
X65238380Y-46875285D01*
X64238380Y-46113380D02*
X64238380Y-45494333D01*
X64619333Y-45827666D01*
X64619333Y-45684809D01*
X64666952Y-45589571D01*
X64714571Y-45541952D01*
X64809809Y-45494333D01*
X65047904Y-45494333D01*
X65143142Y-45541952D01*
X65190761Y-45589571D01*
X65238380Y-45684809D01*
X65238380Y-45970523D01*
X65190761Y-46065761D01*
X65143142Y-46113380D01*
%TO.C,J2*%
X53006666Y-42842380D02*
X53006666Y-43556666D01*
X52959047Y-43699523D01*
X52863809Y-43794761D01*
X52720952Y-43842380D01*
X52625714Y-43842380D01*
X53435238Y-42937619D02*
X53482857Y-42890000D01*
X53578095Y-42842380D01*
X53816190Y-42842380D01*
X53911428Y-42890000D01*
X53959047Y-42937619D01*
X54006666Y-43032857D01*
X54006666Y-43128095D01*
X53959047Y-43270952D01*
X53387619Y-43842380D01*
X54006666Y-43842380D01*
%TO.C,J1*%
X78152666Y-71607880D02*
X78152666Y-72322166D01*
X78105047Y-72465023D01*
X78009809Y-72560261D01*
X77866952Y-72607880D01*
X77771714Y-72607880D01*
X79152666Y-72607880D02*
X78581238Y-72607880D01*
X78866952Y-72607880D02*
X78866952Y-71607880D01*
X78771714Y-71750738D01*
X78676476Y-71845976D01*
X78581238Y-71893595D01*
%TO.C,FB1*%
X61547166Y-72698571D02*
X61213833Y-72698571D01*
X61213833Y-73222380D02*
X61213833Y-72222380D01*
X61690023Y-72222380D01*
X62404309Y-72698571D02*
X62547166Y-72746190D01*
X62594785Y-72793809D01*
X62642404Y-72889047D01*
X62642404Y-73031904D01*
X62594785Y-73127142D01*
X62547166Y-73174761D01*
X62451928Y-73222380D01*
X62070976Y-73222380D01*
X62070976Y-72222380D01*
X62404309Y-72222380D01*
X62499547Y-72270000D01*
X62547166Y-72317619D01*
X62594785Y-72412857D01*
X62594785Y-72508095D01*
X62547166Y-72603333D01*
X62499547Y-72650952D01*
X62404309Y-72698571D01*
X62070976Y-72698571D01*
X63594785Y-73222380D02*
X63023357Y-73222380D01*
X63309071Y-73222380D02*
X63309071Y-72222380D01*
X63213833Y-72365238D01*
X63118595Y-72460476D01*
X63023357Y-72508095D01*
%TO.C,D3*%
X71016904Y-89860380D02*
X71016904Y-88860380D01*
X71255000Y-88860380D01*
X71397857Y-88908000D01*
X71493095Y-89003238D01*
X71540714Y-89098476D01*
X71588333Y-89288952D01*
X71588333Y-89431809D01*
X71540714Y-89622285D01*
X71493095Y-89717523D01*
X71397857Y-89812761D01*
X71255000Y-89860380D01*
X71016904Y-89860380D01*
X71921666Y-88860380D02*
X72540714Y-88860380D01*
X72207380Y-89241333D01*
X72350238Y-89241333D01*
X72445476Y-89288952D01*
X72493095Y-89336571D01*
X72540714Y-89431809D01*
X72540714Y-89669904D01*
X72493095Y-89765142D01*
X72445476Y-89812761D01*
X72350238Y-89860380D01*
X72064523Y-89860380D01*
X71969285Y-89812761D01*
X71921666Y-89765142D01*
%TO.C,D2*%
X71016904Y-92908380D02*
X71016904Y-91908380D01*
X71255000Y-91908380D01*
X71397857Y-91956000D01*
X71493095Y-92051238D01*
X71540714Y-92146476D01*
X71588333Y-92336952D01*
X71588333Y-92479809D01*
X71540714Y-92670285D01*
X71493095Y-92765523D01*
X71397857Y-92860761D01*
X71255000Y-92908380D01*
X71016904Y-92908380D01*
X71969285Y-92003619D02*
X72016904Y-91956000D01*
X72112142Y-91908380D01*
X72350238Y-91908380D01*
X72445476Y-91956000D01*
X72493095Y-92003619D01*
X72540714Y-92098857D01*
X72540714Y-92194095D01*
X72493095Y-92336952D01*
X71921666Y-92908380D01*
X72540714Y-92908380D01*
%TO.C,D1*%
X71016904Y-91384380D02*
X71016904Y-90384380D01*
X71255000Y-90384380D01*
X71397857Y-90432000D01*
X71493095Y-90527238D01*
X71540714Y-90622476D01*
X71588333Y-90812952D01*
X71588333Y-90955809D01*
X71540714Y-91146285D01*
X71493095Y-91241523D01*
X71397857Y-91336761D01*
X71255000Y-91384380D01*
X71016904Y-91384380D01*
X72540714Y-91384380D02*
X71969285Y-91384380D01*
X72255000Y-91384380D02*
X72255000Y-90384380D01*
X72159761Y-90527238D01*
X72064523Y-90622476D01*
X71969285Y-90670095D01*
%TO.C,C14*%
X62857142Y-52079142D02*
X62809523Y-52126761D01*
X62666666Y-52174380D01*
X62571428Y-52174380D01*
X62428571Y-52126761D01*
X62333333Y-52031523D01*
X62285714Y-51936285D01*
X62238095Y-51745809D01*
X62238095Y-51602952D01*
X62285714Y-51412476D01*
X62333333Y-51317238D01*
X62428571Y-51222000D01*
X62571428Y-51174380D01*
X62666666Y-51174380D01*
X62809523Y-51222000D01*
X62857142Y-51269619D01*
X63809523Y-52174380D02*
X63238095Y-52174380D01*
X63523809Y-52174380D02*
X63523809Y-51174380D01*
X63428571Y-51317238D01*
X63333333Y-51412476D01*
X63238095Y-51460095D01*
X64666666Y-51507714D02*
X64666666Y-52174380D01*
X64428571Y-51126761D02*
X64190476Y-51841047D01*
X64809523Y-51841047D01*
%TO.C,C12*%
X77094142Y-58871142D02*
X77046523Y-58918761D01*
X76903666Y-58966380D01*
X76808428Y-58966380D01*
X76665571Y-58918761D01*
X76570333Y-58823523D01*
X76522714Y-58728285D01*
X76475095Y-58537809D01*
X76475095Y-58394952D01*
X76522714Y-58204476D01*
X76570333Y-58109238D01*
X76665571Y-58014000D01*
X76808428Y-57966380D01*
X76903666Y-57966380D01*
X77046523Y-58014000D01*
X77094142Y-58061619D01*
X78046523Y-58966380D02*
X77475095Y-58966380D01*
X77760809Y-58966380D02*
X77760809Y-57966380D01*
X77665571Y-58109238D01*
X77570333Y-58204476D01*
X77475095Y-58252095D01*
X78427476Y-58061619D02*
X78475095Y-58014000D01*
X78570333Y-57966380D01*
X78808428Y-57966380D01*
X78903666Y-58014000D01*
X78951285Y-58061619D01*
X78998904Y-58156857D01*
X78998904Y-58252095D01*
X78951285Y-58394952D01*
X78379857Y-58966380D01*
X78998904Y-58966380D01*
%TO.C,C11*%
X76065142Y-65221142D02*
X76017523Y-65268761D01*
X75874666Y-65316380D01*
X75779428Y-65316380D01*
X75636571Y-65268761D01*
X75541333Y-65173523D01*
X75493714Y-65078285D01*
X75446095Y-64887809D01*
X75446095Y-64744952D01*
X75493714Y-64554476D01*
X75541333Y-64459238D01*
X75636571Y-64364000D01*
X75779428Y-64316380D01*
X75874666Y-64316380D01*
X76017523Y-64364000D01*
X76065142Y-64411619D01*
X77017523Y-65316380D02*
X76446095Y-65316380D01*
X76731809Y-65316380D02*
X76731809Y-64316380D01*
X76636571Y-64459238D01*
X76541333Y-64554476D01*
X76446095Y-64602095D01*
X77969904Y-65316380D02*
X77398476Y-65316380D01*
X77684190Y-65316380D02*
X77684190Y-64316380D01*
X77588952Y-64459238D01*
X77493714Y-64554476D01*
X77398476Y-64602095D01*
%TO.C,C10*%
X65541142Y-75445857D02*
X65588761Y-75493476D01*
X65636380Y-75636333D01*
X65636380Y-75731571D01*
X65588761Y-75874428D01*
X65493523Y-75969666D01*
X65398285Y-76017285D01*
X65207809Y-76064904D01*
X65064952Y-76064904D01*
X64874476Y-76017285D01*
X64779238Y-75969666D01*
X64684000Y-75874428D01*
X64636380Y-75731571D01*
X64636380Y-75636333D01*
X64684000Y-75493476D01*
X64731619Y-75445857D01*
X65636380Y-74493476D02*
X65636380Y-75064904D01*
X65636380Y-74779190D02*
X64636380Y-74779190D01*
X64779238Y-74874428D01*
X64874476Y-74969666D01*
X64922095Y-75064904D01*
X64636380Y-73874428D02*
X64636380Y-73779190D01*
X64684000Y-73683952D01*
X64731619Y-73636333D01*
X64826857Y-73588714D01*
X65017333Y-73541095D01*
X65255428Y-73541095D01*
X65445904Y-73588714D01*
X65541142Y-73636333D01*
X65588761Y-73683952D01*
X65636380Y-73779190D01*
X65636380Y-73874428D01*
X65588761Y-73969666D01*
X65541142Y-74017285D01*
X65445904Y-74064904D01*
X65255428Y-74112523D01*
X65017333Y-74112523D01*
X64826857Y-74064904D01*
X64731619Y-74017285D01*
X64684000Y-73969666D01*
X64636380Y-73874428D01*
%TO.C,C9*%
X67143333Y-59953142D02*
X67095714Y-60000761D01*
X66952857Y-60048380D01*
X66857619Y-60048380D01*
X66714761Y-60000761D01*
X66619523Y-59905523D01*
X66571904Y-59810285D01*
X66524285Y-59619809D01*
X66524285Y-59476952D01*
X66571904Y-59286476D01*
X66619523Y-59191238D01*
X66714761Y-59096000D01*
X66857619Y-59048380D01*
X66952857Y-59048380D01*
X67095714Y-59096000D01*
X67143333Y-59143619D01*
X67619523Y-60048380D02*
X67810000Y-60048380D01*
X67905238Y-60000761D01*
X67952857Y-59953142D01*
X68048095Y-59810285D01*
X68095714Y-59619809D01*
X68095714Y-59238857D01*
X68048095Y-59143619D01*
X68000476Y-59096000D01*
X67905238Y-59048380D01*
X67714761Y-59048380D01*
X67619523Y-59096000D01*
X67571904Y-59143619D01*
X67524285Y-59238857D01*
X67524285Y-59476952D01*
X67571904Y-59572190D01*
X67619523Y-59619809D01*
X67714761Y-59667428D01*
X67905238Y-59667428D01*
X68000476Y-59619809D01*
X68048095Y-59572190D01*
X68095714Y-59476952D01*
%TO.C,C8*%
X75701142Y-76798166D02*
X75748761Y-76845785D01*
X75796380Y-76988642D01*
X75796380Y-77083880D01*
X75748761Y-77226738D01*
X75653523Y-77321976D01*
X75558285Y-77369595D01*
X75367809Y-77417214D01*
X75224952Y-77417214D01*
X75034476Y-77369595D01*
X74939238Y-77321976D01*
X74844000Y-77226738D01*
X74796380Y-77083880D01*
X74796380Y-76988642D01*
X74844000Y-76845785D01*
X74891619Y-76798166D01*
X75224952Y-76226738D02*
X75177333Y-76321976D01*
X75129714Y-76369595D01*
X75034476Y-76417214D01*
X74986857Y-76417214D01*
X74891619Y-76369595D01*
X74844000Y-76321976D01*
X74796380Y-76226738D01*
X74796380Y-76036261D01*
X74844000Y-75941023D01*
X74891619Y-75893404D01*
X74986857Y-75845785D01*
X75034476Y-75845785D01*
X75129714Y-75893404D01*
X75177333Y-75941023D01*
X75224952Y-76036261D01*
X75224952Y-76226738D01*
X75272571Y-76321976D01*
X75320190Y-76369595D01*
X75415428Y-76417214D01*
X75605904Y-76417214D01*
X75701142Y-76369595D01*
X75748761Y-76321976D01*
X75796380Y-76226738D01*
X75796380Y-76036261D01*
X75748761Y-75941023D01*
X75701142Y-75893404D01*
X75605904Y-75845785D01*
X75415428Y-75845785D01*
X75320190Y-75893404D01*
X75272571Y-75941023D01*
X75224952Y-76036261D01*
%TO.C,C7*%
X73226333Y-57093142D02*
X73178714Y-57140761D01*
X73035857Y-57188380D01*
X72940619Y-57188380D01*
X72797761Y-57140761D01*
X72702523Y-57045523D01*
X72654904Y-56950285D01*
X72607285Y-56759809D01*
X72607285Y-56616952D01*
X72654904Y-56426476D01*
X72702523Y-56331238D01*
X72797761Y-56236000D01*
X72940619Y-56188380D01*
X73035857Y-56188380D01*
X73178714Y-56236000D01*
X73226333Y-56283619D01*
X73559666Y-56188380D02*
X74226333Y-56188380D01*
X73797761Y-57188380D01*
%TO.C,C6*%
X75017333Y-62079142D02*
X74969714Y-62126761D01*
X74826857Y-62174380D01*
X74731619Y-62174380D01*
X74588761Y-62126761D01*
X74493523Y-62031523D01*
X74445904Y-61936285D01*
X74398285Y-61745809D01*
X74398285Y-61602952D01*
X74445904Y-61412476D01*
X74493523Y-61317238D01*
X74588761Y-61222000D01*
X74731619Y-61174380D01*
X74826857Y-61174380D01*
X74969714Y-61222000D01*
X75017333Y-61269619D01*
X75874476Y-61174380D02*
X75684000Y-61174380D01*
X75588761Y-61222000D01*
X75541142Y-61269619D01*
X75445904Y-61412476D01*
X75398285Y-61602952D01*
X75398285Y-61983904D01*
X75445904Y-62079142D01*
X75493523Y-62126761D01*
X75588761Y-62174380D01*
X75779238Y-62174380D01*
X75874476Y-62126761D01*
X75922095Y-62079142D01*
X75969714Y-61983904D01*
X75969714Y-61745809D01*
X75922095Y-61650571D01*
X75874476Y-61602952D01*
X75779238Y-61555333D01*
X75588761Y-61555333D01*
X75493523Y-61602952D01*
X75445904Y-61650571D01*
X75398285Y-61745809D01*
%TO.C,C3*%
X67319142Y-90082666D02*
X67366761Y-90130285D01*
X67414380Y-90273142D01*
X67414380Y-90368380D01*
X67366761Y-90511238D01*
X67271523Y-90606476D01*
X67176285Y-90654095D01*
X66985809Y-90701714D01*
X66842952Y-90701714D01*
X66652476Y-90654095D01*
X66557238Y-90606476D01*
X66462000Y-90511238D01*
X66414380Y-90368380D01*
X66414380Y-90273142D01*
X66462000Y-90130285D01*
X66509619Y-90082666D01*
X66414380Y-89749333D02*
X66414380Y-89130285D01*
X66795333Y-89463619D01*
X66795333Y-89320761D01*
X66842952Y-89225523D01*
X66890571Y-89177904D01*
X66985809Y-89130285D01*
X67223904Y-89130285D01*
X67319142Y-89177904D01*
X67366761Y-89225523D01*
X67414380Y-89320761D01*
X67414380Y-89606476D01*
X67366761Y-89701714D01*
X67319142Y-89749333D01*
%TO.C,C2*%
X57093142Y-57062666D02*
X57140761Y-57110285D01*
X57188380Y-57253142D01*
X57188380Y-57348380D01*
X57140761Y-57491238D01*
X57045523Y-57586476D01*
X56950285Y-57634095D01*
X56759809Y-57681714D01*
X56616952Y-57681714D01*
X56426476Y-57634095D01*
X56331238Y-57586476D01*
X56236000Y-57491238D01*
X56188380Y-57348380D01*
X56188380Y-57253142D01*
X56236000Y-57110285D01*
X56283619Y-57062666D01*
X56283619Y-56681714D02*
X56236000Y-56634095D01*
X56188380Y-56538857D01*
X56188380Y-56300761D01*
X56236000Y-56205523D01*
X56283619Y-56157904D01*
X56378857Y-56110285D01*
X56474095Y-56110285D01*
X56616952Y-56157904D01*
X57188380Y-56729333D01*
X57188380Y-56110285D01*
%TO.C,C1*%
X65873333Y-85541142D02*
X65825714Y-85588761D01*
X65682857Y-85636380D01*
X65587619Y-85636380D01*
X65444761Y-85588761D01*
X65349523Y-85493523D01*
X65301904Y-85398285D01*
X65254285Y-85207809D01*
X65254285Y-85064952D01*
X65301904Y-84874476D01*
X65349523Y-84779238D01*
X65444761Y-84684000D01*
X65587619Y-84636380D01*
X65682857Y-84636380D01*
X65825714Y-84684000D01*
X65873333Y-84731619D01*
X66825714Y-85636380D02*
X66254285Y-85636380D01*
X66540000Y-85636380D02*
X66540000Y-84636380D01*
X66444761Y-84779238D01*
X66349523Y-84874476D01*
X66254285Y-84922095D01*
%TD*%
M02*
